G04 #@! TF.GenerationSoftware,KiCad,Pcbnew,(5.1.2)-2*
G04 #@! TF.CreationDate,2020-02-14T14:24:33-05:00*
G04 #@! TF.ProjectId,rpi-power-supply,7270692d-706f-4776-9572-2d737570706c,rev?*
G04 #@! TF.SameCoordinates,Original*
G04 #@! TF.FileFunction,Legend,Bot*
G04 #@! TF.FilePolarity,Positive*
%FSLAX46Y46*%
G04 Gerber Fmt 4.6, Leading zero omitted, Abs format (unit mm)*
G04 Created by KiCad (PCBNEW (5.1.2)-2) date 2020-02-14 14:24:33*
%MOMM*%
%LPD*%
G04 APERTURE LIST*
%ADD10C,0.052250*%
%ADD11C,0.254000*%
%ADD12C,0.150000*%
G04 APERTURE END LIST*
D10*
X159015000Y-96780000D02*
X158540000Y-96780000D01*
X171460000Y-102670000D02*
X171460000Y-102100000D01*
X154170000Y-101720000D02*
X154170000Y-101150000D01*
X153030000Y-101720000D02*
X153030000Y-102290000D01*
X158540000Y-96780000D02*
X158540000Y-97350000D01*
X174215000Y-100960000D02*
X173740000Y-100960000D01*
X156260000Y-100010000D02*
X156260000Y-99440000D01*
X165000000Y-102670000D02*
X165000000Y-103240000D01*
X165570000Y-102100000D02*
X165000000Y-102100000D01*
X166140000Y-101530000D02*
X166140000Y-102100000D01*
X165000000Y-102100000D02*
X165000000Y-102670000D01*
X170890000Y-102100000D02*
X170320000Y-102100000D01*
X174690000Y-103240000D02*
X174690000Y-102100000D01*
X167090000Y-103240000D02*
X167090000Y-102100000D01*
X154170000Y-101150000D02*
X153600000Y-101150000D01*
X170320000Y-102100000D02*
X170320000Y-102670000D01*
X171460000Y-103240000D02*
X171460000Y-102670000D01*
X166615000Y-100960000D02*
X166140000Y-100960000D01*
X170890000Y-103240000D02*
X171460000Y-103240000D01*
X170320000Y-103240000D02*
X170890000Y-103240000D01*
X153600000Y-101150000D02*
X153030000Y-101150000D01*
X173170000Y-102100000D02*
X172600000Y-102100000D01*
X173645000Y-103240000D02*
X174690000Y-103240000D01*
X173740000Y-100960000D02*
X173740000Y-101530000D01*
X173740000Y-102100000D02*
X173170000Y-102100000D01*
X156260000Y-99440000D02*
X156260000Y-98870000D01*
X165000000Y-103240000D02*
X166045000Y-103240000D01*
X166140000Y-102100000D02*
X165570000Y-102100000D01*
X154170000Y-102290000D02*
X154170000Y-101720000D01*
X155310000Y-100010000D02*
X155785000Y-100010000D01*
X153030000Y-102290000D02*
X153600000Y-102290000D01*
X170320000Y-102670000D02*
X170320000Y-103240000D01*
X167090000Y-100960000D02*
X166615000Y-100960000D01*
X155785000Y-98870000D02*
X155310000Y-98870000D01*
X172600000Y-103240000D02*
X173645000Y-103240000D01*
X174690000Y-102100000D02*
X174690000Y-100960000D01*
X155310000Y-99440000D02*
X155310000Y-100010000D01*
X172600000Y-102670000D02*
X172600000Y-103240000D01*
X174690000Y-100960000D02*
X174215000Y-100960000D01*
X166140000Y-100960000D02*
X166140000Y-101530000D01*
X156260000Y-98870000D02*
X155785000Y-98870000D01*
X153030000Y-101150000D02*
X153030000Y-101720000D01*
X166045000Y-103240000D02*
X167090000Y-103240000D01*
X167090000Y-102100000D02*
X167090000Y-100960000D01*
X155785000Y-100010000D02*
X156260000Y-100010000D01*
X157400000Y-103810000D02*
X157400000Y-104380000D01*
X153600000Y-102290000D02*
X154170000Y-102290000D01*
X171460000Y-102100000D02*
X170890000Y-102100000D01*
X173740000Y-101530000D02*
X173740000Y-102100000D01*
X172600000Y-102100000D02*
X172600000Y-102670000D01*
X155310000Y-98870000D02*
X155310000Y-99440000D01*
X162245000Y-100010000D02*
X162720000Y-100010000D01*
X161770000Y-106470000D02*
X162245000Y-106470000D01*
X160060000Y-101150000D02*
X160630000Y-101150000D01*
X167090000Y-97730000D02*
X167090000Y-98300000D01*
X167090000Y-97730000D02*
X167090000Y-97160000D01*
X162245000Y-105330000D02*
X161770000Y-105330000D01*
X171460000Y-97730000D02*
X169275000Y-97730000D01*
X171460000Y-98300000D02*
X171460000Y-97730000D01*
X161770000Y-102670000D02*
X161770000Y-100010000D01*
X166140000Y-97730000D02*
X166615000Y-97730000D01*
X165570000Y-96590000D02*
X166140000Y-96590000D01*
X165000000Y-96115000D02*
X165000000Y-96590000D01*
X162720000Y-97825000D02*
X162720000Y-95640000D01*
X162720000Y-106470000D02*
X162720000Y-105900000D01*
X162720000Y-94500000D02*
X162720000Y-95070000D01*
X159490000Y-96780000D02*
X159015000Y-96780000D01*
X168230000Y-95640000D02*
X168230000Y-95165000D01*
X166140000Y-96590000D02*
X166140000Y-97160000D01*
X159490000Y-97350000D02*
X159490000Y-96780000D01*
X159490000Y-97920000D02*
X159490000Y-97350000D01*
X159015000Y-97920000D02*
X159490000Y-97920000D01*
X169275000Y-98870000D02*
X171460000Y-98870000D01*
X167660000Y-94690000D02*
X167090000Y-94690000D01*
X161770000Y-105330000D02*
X161770000Y-102670000D01*
X160630000Y-103240000D02*
X160630000Y-105330000D01*
X161200000Y-105330000D02*
X161770000Y-105330000D01*
X167090000Y-95640000D02*
X167660000Y-95640000D01*
X165000000Y-95640000D02*
X165000000Y-96115000D01*
X166140000Y-97160000D02*
X166140000Y-97730000D01*
X162720000Y-105330000D02*
X162245000Y-105330000D01*
X162720000Y-105900000D02*
X162720000Y-105330000D01*
X166140000Y-96115000D02*
X166140000Y-95640000D01*
X165000000Y-94500000D02*
X163860000Y-94500000D01*
X161770000Y-105330000D02*
X161770000Y-105900000D01*
X162720000Y-100010000D02*
X162720000Y-97825000D01*
X160630000Y-105330000D02*
X161200000Y-105330000D01*
X158540000Y-97920000D02*
X159015000Y-97920000D01*
X167090000Y-96590000D02*
X166615000Y-96590000D01*
X168230000Y-94690000D02*
X167660000Y-94690000D01*
X165570000Y-95640000D02*
X165000000Y-95640000D01*
X167090000Y-97160000D02*
X167090000Y-96590000D01*
X161770000Y-100010000D02*
X162245000Y-100010000D01*
X160630000Y-101150000D02*
X160630000Y-103240000D01*
X171460000Y-98870000D02*
X171460000Y-98300000D01*
X167090000Y-98870000D02*
X169275000Y-98870000D01*
X165000000Y-96590000D02*
X165570000Y-96590000D01*
X158540000Y-97350000D02*
X158540000Y-97920000D01*
X167090000Y-94690000D02*
X167090000Y-95165000D01*
X162245000Y-106470000D02*
X162720000Y-106470000D01*
X166615000Y-97730000D02*
X167090000Y-97730000D01*
X166140000Y-95640000D02*
X165570000Y-95640000D01*
X162720000Y-95640000D02*
X163860000Y-95640000D01*
X167660000Y-95640000D02*
X168230000Y-95640000D01*
X161770000Y-105900000D02*
X161770000Y-106470000D01*
X163860000Y-95640000D02*
X165000000Y-95640000D01*
X166615000Y-96590000D02*
X166140000Y-96590000D01*
X168230000Y-95165000D02*
X168230000Y-94690000D01*
X167090000Y-95165000D02*
X167090000Y-95640000D01*
X163860000Y-94500000D02*
X162720000Y-94500000D01*
X165000000Y-95070000D02*
X165000000Y-94500000D01*
X165000000Y-95640000D02*
X165000000Y-95070000D01*
X166140000Y-96590000D02*
X166140000Y-96115000D01*
X169275000Y-97730000D02*
X167090000Y-97730000D01*
X167090000Y-98300000D02*
X167090000Y-98870000D01*
X159490000Y-100580000D02*
X159490000Y-101150000D01*
X160060000Y-92410000D02*
X159490000Y-92410000D01*
X159490000Y-100010000D02*
X159490000Y-100580000D01*
X160630000Y-100010000D02*
X159490000Y-100010000D01*
X161770000Y-100010000D02*
X160630000Y-100010000D01*
X154740000Y-93550000D02*
X154170000Y-93550000D01*
X146480844Y-107009283D02*
G75*
G02X146498255Y-106982364I53716J-15653D01*
G01*
X162910000Y-92980000D02*
X162910000Y-93550000D01*
X160060000Y-93550000D02*
X160630000Y-93550000D01*
X146633333Y-106893322D02*
G75*
G02X146627602Y-106942790I-216373J0D01*
G01*
X145644783Y-106669683D02*
G75*
G02X145670125Y-106660000I25342J-28321D01*
G01*
X146431592Y-106959709D02*
G75*
G02X146473094Y-106899796I364575J-208214D01*
G01*
X146627602Y-106942789D02*
G75*
G02X146610078Y-106976638I-75863J17815D01*
G01*
X146608822Y-106764798D02*
G75*
G02X146629637Y-106783484I810J-20034D01*
G01*
X146475000Y-107050228D02*
G75*
G02X146480844Y-107009283I146350J1D01*
G01*
X145685543Y-106669352D02*
G75*
G02X145689873Y-106692140I-35637J-18576D01*
G01*
X146584164Y-106989766D02*
G75*
G02X146554166Y-106982715I-4456J48379D01*
G01*
X154740000Y-94690000D02*
X155310000Y-94690000D01*
X163385000Y-93550000D02*
X163860000Y-93550000D01*
X146498254Y-106982364D02*
G75*
G02X146524079Y-106973469I24231J-28413D01*
G01*
X145646058Y-106820906D02*
G75*
G02X145658592Y-106769412I85331J6503D01*
G01*
X154170000Y-94690000D02*
X154740000Y-94690000D01*
X146406154Y-107019988D02*
G75*
G02X146431592Y-106959709I263560J-75716D01*
G01*
X154170000Y-94120000D02*
X154170000Y-94690000D01*
X160630000Y-92980000D02*
X160630000Y-92410000D01*
X155310000Y-94690000D02*
X155310000Y-94120000D01*
X163860000Y-92980000D02*
X163860000Y-92410000D01*
X159490000Y-92410000D02*
X159490000Y-92980000D01*
X160630000Y-92410000D02*
X160060000Y-92410000D01*
X146574170Y-106781346D02*
X146473094Y-106899796D01*
X146474999Y-107050227D02*
G75*
G02X146470747Y-107090727I-194994J0D01*
G01*
X145662292Y-106884310D02*
G75*
G02X145646059Y-106820905I171629J77721D01*
G01*
X163860000Y-92410000D02*
X163385000Y-92410000D01*
X145670124Y-106660001D02*
G75*
G02X145685544Y-106669351I1J-17388D01*
G01*
X155310000Y-94120000D02*
X155310000Y-93550000D01*
X161770000Y-97825000D02*
X161770000Y-100010000D01*
X161770000Y-95640000D02*
X161770000Y-97825000D01*
X162910000Y-93550000D02*
X163385000Y-93550000D01*
X162720000Y-95070000D02*
X162720000Y-95640000D01*
X163385000Y-92410000D02*
X162910000Y-92410000D01*
X146399445Y-107071610D02*
G75*
G02X146406154Y-107019988I173550J3691D01*
G01*
X145558267Y-106805331D02*
G75*
G02X145583734Y-106749694I454760J-174508D01*
G01*
X145614130Y-106702692D02*
G75*
G02X145644783Y-106669683I193350J-148815D01*
G01*
X162245000Y-95640000D02*
X161770000Y-95640000D01*
X146524080Y-106973470D02*
G75*
G02X146554166Y-106982715I-2660J-62229D01*
G01*
X154170000Y-93550000D02*
X154170000Y-94120000D01*
X155310000Y-93550000D02*
X154740000Y-93550000D01*
X163860000Y-93550000D02*
X163860000Y-92980000D01*
X146610077Y-106976638D02*
G75*
G02X146584164Y-106989766I-29531J26152D01*
G01*
X146457070Y-107114534D02*
G75*
G02X146437113Y-107119217I-14199J15644D01*
G01*
X145680570Y-106727416D02*
G75*
G02X145658592Y-106769412I-304415J132560D01*
G01*
X160630000Y-93550000D02*
X160630000Y-92980000D01*
X159490000Y-92980000D02*
X159490000Y-93550000D01*
X146470748Y-107090727D02*
G75*
G02X146457070Y-107114533I-43710J9281D01*
G01*
X145689873Y-106692140D02*
G75*
G02X145680570Y-106727416I-119152J12559D01*
G01*
X162720000Y-95640000D02*
X162245000Y-95640000D01*
X162910000Y-92410000D02*
X162910000Y-92980000D01*
X146413962Y-107105629D02*
G75*
G02X146399445Y-107071610I35074J35073D01*
G01*
X146437114Y-107119217D02*
G75*
G02X146413962Y-107105630I14518J51258D01*
G01*
X159490000Y-93550000D02*
X160060000Y-93550000D01*
X146633333Y-106893322D02*
X146629637Y-106783484D01*
X145583734Y-106749695D02*
G75*
G02X145614130Y-106702692I301404J-161583D01*
G01*
X146574170Y-106781346D02*
G75*
G02X146608822Y-106764797I36619J-32124D01*
G01*
X159490000Y-101150000D02*
X160060000Y-101150000D01*
X145704172Y-106949793D02*
G75*
G02X145662292Y-106884310I205192J177368D01*
G01*
X145776061Y-107148682D02*
G75*
G02X145821755Y-107135000I45694J-69463D01*
G01*
X145766143Y-107006913D02*
G75*
G02X145704173Y-106949793I219974J300832D01*
G01*
X145762500Y-107325001D02*
G75*
G02X145779781Y-107402070I-434470J-137895D01*
G01*
X145680597Y-107506123D02*
G75*
G02X145660398Y-107482352I20333J37745D01*
G01*
X145659126Y-107446375D02*
G75*
G02X145677477Y-107403856I153624J-41084D01*
G01*
X145457524Y-107401687D02*
G75*
G02X145442288Y-107392409I-3825J10868D01*
G01*
X145698031Y-107357725D02*
G75*
G02X145677477Y-107403856I-180842J52933D01*
G01*
X145442287Y-107392410D02*
G75*
G02X145449912Y-107367027I31463J4386D01*
G01*
X145511594Y-107068582D02*
G75*
G02X145568734Y-107020799I227710J-214246D01*
G01*
X145249281Y-107271653D02*
G75*
G02X145174092Y-107220838I9734J95438D01*
G01*
X146342286Y-106549167D02*
G75*
G02X146367621Y-106518880I117819J-72817D01*
G01*
X146403100Y-106493256D02*
G75*
G02X146442787Y-106475849I101260J-176924D01*
G01*
X145520856Y-106863959D02*
G75*
G02X145465093Y-106899627I-103318J100100D01*
G01*
X145558268Y-106805331D02*
G75*
G02X145520856Y-106863958I-162146J62220D01*
G01*
X145146455Y-107105644D02*
G75*
G02X145151867Y-107063093I189078J-2431D01*
G01*
X145649175Y-107333720D02*
G75*
G02X145687320Y-107335643I16288J-56207D01*
G01*
X145299999Y-106895795D02*
X145173474Y-106862177D01*
X145766143Y-107006913D02*
G75*
G02X145828402Y-107057920I-431938J-590711D01*
G01*
X145457524Y-107401686D02*
X145569660Y-107360445D01*
X145229579Y-107121393D02*
X145192320Y-107067874D01*
X145828402Y-107057920D02*
G75*
G02X145857348Y-107098509I-80797J-88236D01*
G01*
X145568734Y-107020799D02*
G75*
G02X145618353Y-106999493I86321J-132606D01*
G01*
X145161754Y-106880329D02*
X145265748Y-106946303D01*
X145744161Y-107243883D02*
G75*
G02X145749068Y-107184514I135301J18703D01*
G01*
X145857348Y-107098509D02*
G75*
G02X145851904Y-107123455I-20029J-8696D01*
G01*
X145851903Y-107123454D02*
G75*
G02X145821755Y-107135000I-30148J33589D01*
G01*
X145383141Y-107105019D02*
G75*
G02X145372623Y-107150982I-72659J-7558D01*
G01*
X145749068Y-107184514D02*
G75*
G02X145776061Y-107148682I63615J-19840D01*
G01*
X145753890Y-107500352D02*
G75*
G02X145715795Y-107515000I-38095J42213D01*
G01*
X145554283Y-107250129D02*
X145449912Y-107367027D01*
X145268677Y-107171240D02*
G75*
G02X145229579Y-107121393I227983J219078D01*
G01*
X145174092Y-107220838D02*
G75*
G02X145146454Y-107105644I213333J112096D01*
G01*
X145366544Y-107049895D02*
G75*
G02X145383140Y-107105019I-135962J-70993D01*
G01*
X145465093Y-106899627D02*
G75*
G02X145390957Y-106910285I-64173J183209D01*
G01*
X146367621Y-106518880D02*
G75*
G02X146403100Y-106493256I138543J-154452D01*
G01*
X145762500Y-107325000D02*
G75*
G02X145744160Y-107243883I466927J148196D01*
G01*
X145779781Y-107402070D02*
G75*
G02X145776541Y-107462465I-160837J-21656D01*
G01*
X145776541Y-107462465D02*
G75*
G02X145753891Y-107500352I-73046J17956D01*
G01*
X145618353Y-106999492D02*
G75*
G02X145652478Y-107009145I8429J-35349D01*
G01*
X145455771Y-107137194D02*
G75*
G02X145511594Y-107068581I503798J-352875D01*
G01*
X146480606Y-106470000D02*
G75*
G02X146514739Y-106476006I0J-99996D01*
G01*
X145353303Y-107242859D02*
G75*
G02X145249280Y-107271653I-88945J119031D01*
G01*
X145161755Y-106880331D02*
G75*
G02X145159143Y-106867572I4917J7654D01*
G01*
X145569660Y-107360445D02*
X145649174Y-107333720D01*
X145687320Y-107335642D02*
G75*
G02X145698032Y-107357726I-6825J-16951D01*
G01*
X145306055Y-107191885D02*
G75*
G02X145268677Y-107171240I14603J70595D01*
G01*
X145649594Y-107105895D02*
G75*
G02X145611393Y-107177345I-361170J147166D01*
G01*
X145167889Y-107052785D02*
G75*
G02X145192320Y-107067874I-7468J-39416D01*
G01*
X145340906Y-107184650D02*
G75*
G02X145306055Y-107191885I-25779J36624D01*
G01*
X146514740Y-106476007D02*
G75*
G02X146543740Y-106493256I-30778J-84749D01*
G01*
X145265747Y-106946302D02*
G75*
G02X145325545Y-106993979I-179134J-286017D01*
G01*
X145611393Y-107177345D02*
G75*
G02X145554283Y-107250129I-545702J369384D01*
G01*
X145151866Y-107063093D02*
G75*
G02X145167889Y-107052785I13446J-3293D01*
G01*
X145390957Y-106910285D02*
G75*
G02X145299999Y-106895795I22209J432159D01*
G01*
X145715795Y-107515001D02*
G75*
G02X145680596Y-107506123I0J74216D01*
G01*
X145159144Y-106867572D02*
G75*
G02X145173474Y-106862177I10985J-7449D01*
G01*
X145652478Y-107009145D02*
G75*
G02X145665168Y-107045961I-31428J-31429D01*
G01*
X145665168Y-107045962D02*
G75*
G02X145649594Y-107105896I-232274J28366D01*
G01*
X145660398Y-107482352D02*
G75*
G02X145659126Y-107446375I58211J20069D01*
G01*
X145455770Y-107137195D02*
G75*
G02X145353303Y-107242859I-380656J266623D01*
G01*
X145372623Y-107150982D02*
G75*
G02X145340907Y-107184651I-98080J60617D01*
G01*
X145325545Y-106993980D02*
G75*
G02X145366544Y-107049895I-162662J-162258D01*
G01*
X146442786Y-106475848D02*
G75*
G02X146480606Y-106470000I37820J-119363D01*
G01*
X169370000Y-109700000D02*
X169370000Y-109225000D01*
X165000000Y-109700000D02*
X163860000Y-109700000D01*
X153030000Y-109700000D02*
X153030000Y-109225000D01*
X142105000Y-106226083D02*
X141270375Y-106227864D01*
X146348362Y-106605078D02*
G75*
G02X146335234Y-106579165I26152J29531D01*
G01*
X166140000Y-108750000D02*
X166140000Y-109225000D01*
X143406945Y-106234861D02*
X142939624Y-106227864D01*
X142738972Y-106265282D02*
X143268750Y-106255966D01*
X171460000Y-109700000D02*
X170415000Y-109700000D01*
X141471027Y-106265282D02*
X142105000Y-106268292D01*
X169370000Y-108750000D02*
X170415000Y-108750000D01*
X150940000Y-107610000D02*
X150940000Y-108180000D01*
X163860000Y-109225000D02*
X163860000Y-108750000D01*
X155310000Y-109225000D02*
X155310000Y-109700000D01*
X146570000Y-106549167D02*
G75*
G02X146559403Y-106579372I-48347J0D01*
G01*
X140941250Y-106255966D02*
G75*
G02X140802517Y-106245113I34102J1328053D01*
G01*
X155310000Y-109700000D02*
X154170000Y-109700000D01*
X143407483Y-106245113D02*
G75*
G02X143268750Y-106255966I-172836J1317200D01*
G01*
X154170000Y-109700000D02*
X153030000Y-109700000D01*
X171460000Y-109225000D02*
X171460000Y-109700000D01*
X149800000Y-108750000D02*
X149800000Y-109225000D01*
X146570000Y-98870000D02*
X146570000Y-99345000D01*
X144955000Y-98870000D02*
X146570000Y-98870000D01*
X153030000Y-108750000D02*
X154170000Y-108750000D01*
X143340000Y-98870000D02*
X144955000Y-98870000D01*
X155310000Y-108750000D02*
X155310000Y-109225000D01*
X143406946Y-106234861D02*
G75*
G02X143407482Y-106245113I-133J-5147D01*
G01*
X140941250Y-106255966D02*
X141471027Y-106265282D01*
X169370000Y-109225000D02*
X169370000Y-108750000D01*
X165000000Y-108750000D02*
X166140000Y-108750000D01*
X163860000Y-108750000D02*
X165000000Y-108750000D01*
X166140000Y-109225000D02*
X166140000Y-109700000D01*
X143815000Y-99820000D02*
X143340000Y-99820000D01*
X150940000Y-108180000D02*
X150940000Y-108750000D01*
X150940000Y-108750000D02*
X150370000Y-108750000D01*
X154170000Y-108750000D02*
X155310000Y-108750000D01*
X146559403Y-106579372D02*
G75*
G02X146529368Y-106605079I-82553J66054D01*
G01*
X146529368Y-106605078D02*
G75*
G02X146484591Y-106622465I-80121J139988D01*
G01*
X146335234Y-106579165D02*
G75*
G02X146342285Y-106549167I48379J4456D01*
G01*
X170415000Y-109700000D02*
X169370000Y-109700000D01*
X149800000Y-109700000D02*
X148755000Y-109700000D01*
X143340000Y-99820000D02*
X143340000Y-99345000D01*
X153030000Y-109225000D02*
X153030000Y-108750000D01*
X140802516Y-106245113D02*
G75*
G02X140803054Y-106234861I670J5105D01*
G01*
X142105000Y-106268292D02*
X142738972Y-106265282D01*
X163860000Y-109700000D02*
X163860000Y-109225000D01*
X147710000Y-109700000D02*
X147710000Y-108655000D01*
X149325000Y-107610000D02*
X150940000Y-107610000D01*
X147710000Y-108655000D02*
X147710000Y-107610000D01*
X142939624Y-106227864D02*
X142105000Y-106226083D01*
X170415000Y-108750000D02*
X171460000Y-108750000D01*
X166140000Y-109700000D02*
X165000000Y-109700000D01*
X150370000Y-108750000D02*
X149800000Y-108750000D01*
X149800000Y-109225000D02*
X149800000Y-109700000D01*
X171460000Y-108750000D02*
X171460000Y-109225000D01*
X147710000Y-107610000D02*
X149325000Y-107610000D01*
X148755000Y-109700000D02*
X147710000Y-109700000D01*
X143340000Y-99345000D02*
X143340000Y-98870000D01*
X146543740Y-106493256D02*
G75*
G02X146563139Y-106518967I-53842J-60797D01*
G01*
X146563140Y-106518967D02*
G75*
G02X146570000Y-106549167I-63043J-30200D01*
G01*
X146484590Y-106622465D02*
G75*
G02X146431678Y-106628334I-52912J235601D01*
G01*
X146431678Y-106628334D02*
G75*
G02X146382210Y-106622603I0J216373D01*
G01*
X146382211Y-106622603D02*
G75*
G02X146348362Y-106605079I17815J75863D01*
G01*
X141270375Y-106227864D02*
X140803054Y-106234861D01*
X151890000Y-107040000D02*
X151890000Y-106470000D01*
X148660000Y-101530000D02*
X148660000Y-100960000D01*
X149230000Y-102100000D02*
X148660000Y-102100000D01*
X149800000Y-102100000D02*
X149230000Y-102100000D01*
X162720000Y-107610000D02*
X157305000Y-107610000D01*
X175830000Y-97825000D02*
X175830000Y-100010000D01*
X146570000Y-99345000D02*
X146570000Y-99820000D01*
X173170000Y-96590000D02*
X173740000Y-96590000D01*
X162720000Y-106470000D02*
X162720000Y-107040000D01*
X172600000Y-97160000D02*
X172600000Y-96590000D01*
X157305000Y-107610000D02*
X151890000Y-107610000D01*
X149800000Y-101530000D02*
X149800000Y-102100000D01*
X173740000Y-95640000D02*
X174785000Y-95640000D01*
X169275000Y-107610000D02*
X163860000Y-107610000D01*
X174785000Y-95640000D02*
X175830000Y-95640000D01*
X149800000Y-100960000D02*
X149800000Y-101530000D01*
X150940000Y-91270000D02*
X151415000Y-91270000D01*
X149230000Y-100960000D02*
X149800000Y-100960000D01*
X148660000Y-100960000D02*
X149230000Y-100960000D01*
X170510000Y-90320000D02*
X170510000Y-90795000D01*
X173740000Y-96115000D02*
X173740000Y-95640000D01*
X146570000Y-99820000D02*
X147615000Y-99820000D01*
X151415000Y-91270000D02*
X151890000Y-91270000D01*
X174690000Y-106470000D02*
X174690000Y-107040000D01*
X162720000Y-107040000D02*
X162720000Y-107610000D01*
X175830000Y-100010000D02*
X176400000Y-100010000D01*
X172600000Y-97730000D02*
X172600000Y-97160000D01*
X175830000Y-105330000D02*
X175830000Y-105900000D01*
X172600000Y-96590000D02*
X173170000Y-96590000D01*
X174690000Y-107040000D02*
X174690000Y-107610000D01*
X175830000Y-105900000D02*
X175830000Y-106470000D01*
X176970000Y-100010000D02*
X176970000Y-102670000D01*
X176970000Y-105330000D02*
X176400000Y-105330000D01*
X176400000Y-105330000D02*
X175830000Y-105330000D01*
X150940000Y-98870000D02*
X150940000Y-91270000D01*
X148660000Y-99820000D02*
X148660000Y-100390000D01*
X163290000Y-106470000D02*
X162720000Y-106470000D01*
X150940000Y-106470000D02*
X150940000Y-98870000D01*
X151890000Y-107610000D02*
X151890000Y-107040000D01*
X163860000Y-106470000D02*
X163290000Y-106470000D01*
X163860000Y-107610000D02*
X163860000Y-107040000D01*
X174690000Y-107610000D02*
X169275000Y-107610000D01*
X176970000Y-102670000D02*
X176970000Y-105330000D01*
X176400000Y-100010000D02*
X176970000Y-100010000D01*
X175260000Y-106470000D02*
X174690000Y-106470000D01*
X172030000Y-97730000D02*
X172600000Y-97730000D01*
X148660000Y-100390000D02*
X148660000Y-100960000D01*
X151415000Y-106470000D02*
X150940000Y-106470000D01*
X144290000Y-100390000D02*
X144290000Y-99820000D01*
X163860000Y-107040000D02*
X163860000Y-106470000D01*
X175830000Y-95640000D02*
X175830000Y-97825000D01*
X148660000Y-102100000D02*
X148660000Y-101530000D01*
X147615000Y-99820000D02*
X148660000Y-99820000D01*
X151890000Y-106470000D02*
X151415000Y-106470000D01*
X175830000Y-106470000D02*
X175260000Y-106470000D01*
X151890000Y-90320000D02*
X161200000Y-90320000D01*
X161200000Y-90320000D02*
X170510000Y-90320000D01*
X144290000Y-99820000D02*
X143815000Y-99820000D01*
X151890000Y-90795000D02*
X151890000Y-90320000D01*
X173740000Y-96590000D02*
X173740000Y-96115000D01*
X144290000Y-100960000D02*
X144290000Y-100390000D01*
X146475000Y-100960000D02*
X144290000Y-100960000D01*
X148660000Y-100960000D02*
X146475000Y-100960000D01*
X151890000Y-91270000D02*
X151890000Y-90795000D01*
X146430245Y-107479979D02*
G75*
G02X146438859Y-107479212I4588J-2775D01*
G01*
X146035392Y-107760188D02*
G75*
G02X146077976Y-107753756I34241J-82518D01*
G01*
X146033725Y-107447870D02*
G75*
G02X146083420Y-107464790I-60849J-260144D01*
G01*
X146126489Y-107664370D02*
G75*
G02X146135411Y-107633869I29514J7922D01*
G01*
X140418750Y-107634740D02*
X139866774Y-107660942D01*
X146022925Y-107469642D02*
G75*
G02X146020548Y-107454194I10132J9466D01*
G01*
X146158586Y-107501373D02*
X146083420Y-107464790D01*
X146378018Y-107546296D02*
G75*
G02X146325031Y-107557384I-48430J99287D01*
G01*
X146366826Y-107613078D02*
G75*
G02X146307258Y-107629808I-79094J167196D01*
G01*
X146171802Y-107620258D02*
G75*
G02X146241860Y-107627397I-10682J-452172D01*
G01*
X146438859Y-107479211D02*
G75*
G02X146442688Y-107492616I-12205J-10736D01*
G01*
X146022758Y-107618145D02*
G75*
G02X145987543Y-107672510I-247023J121420D01*
G01*
X146325031Y-107557385D02*
G75*
G02X146252090Y-107542769I9846J238457D01*
G01*
X146135410Y-107633869D02*
G75*
G02X146171802Y-107620258I35160J-38550D01*
G01*
X142105000Y-107610000D02*
X141128680Y-107615763D01*
X143791250Y-107634740D02*
X143081319Y-107615763D01*
X144479624Y-107801803D02*
G75*
G02X144385000Y-107705000I2203J96802D01*
G01*
X145972891Y-107828616D02*
G75*
G02X145998437Y-107786546I128835J-49439D01*
G01*
X171460000Y-91270000D02*
X171460000Y-94500000D01*
X146307258Y-107629809D02*
G75*
G02X146241860Y-107627397I-24303J228920D01*
G01*
X159537500Y-86235000D02*
X139065000Y-86235000D01*
X139801150Y-107741777D02*
G75*
G02X139713375Y-107772094I-216517J484648D01*
G01*
X145998437Y-107786546D02*
G75*
G02X146035391Y-107760188I75734J-67096D01*
G01*
X159537500Y-113025000D02*
X180010000Y-113025000D01*
X139065000Y-110412500D02*
X139065000Y-113025000D01*
X139825000Y-107705001D02*
G75*
G02X139866774Y-107660942I44121J0D01*
G01*
X146041582Y-107560327D02*
G75*
G02X146022758Y-107618144I-211495J36887D01*
G01*
X143081319Y-107615763D02*
X142105000Y-107610000D01*
X146430244Y-107479978D02*
X146412711Y-107511866D01*
X170985000Y-91270000D02*
X171460000Y-91270000D01*
X146020549Y-107454194D02*
G75*
G02X146033725Y-107447870I10520J-5031D01*
G01*
X170510000Y-91270000D02*
X170985000Y-91270000D01*
X139065000Y-86235000D02*
X139065000Y-94072500D01*
X180010000Y-86235000D02*
X159537500Y-86235000D01*
X139065000Y-113025000D02*
X159537500Y-113025000D01*
X139445000Y-107800000D02*
X139065000Y-107800000D01*
X146434269Y-107536375D02*
G75*
G02X146411430Y-107580270I-92439J20208D01*
G01*
X146172697Y-107758897D02*
G75*
G02X146172436Y-107780732I-21968J-10657D01*
G01*
X146252090Y-107542768D02*
G75*
G02X146158586Y-107501373I283821J767398D01*
G01*
X145987543Y-107672510D02*
G75*
G02X145793357Y-107772384I-214216J177784D01*
G01*
X145138622Y-107802617D02*
X144479625Y-107801803D01*
X146022925Y-107469642D02*
G75*
G02X146041832Y-107508064I-53959J-50415D01*
G01*
X146412711Y-107511867D02*
G75*
G02X146378018Y-107546297I-67972J33797D01*
G01*
X139590630Y-107793123D02*
G75*
G02X139445000Y-107800000I-145631J1538520D01*
G01*
X139065000Y-107800000D02*
X139065000Y-110412500D01*
X139825000Y-107705000D02*
G75*
G02X139801149Y-107741778I-40281J0D01*
G01*
X144343224Y-107660941D02*
G75*
G02X144385000Y-107705000I-2346J-44060D01*
G01*
X145793357Y-107772384D02*
X145138622Y-107802617D01*
X146156816Y-107786539D02*
G75*
G02X146119632Y-107767724I91640J227256D01*
G01*
X146147645Y-107713325D02*
G75*
G02X146126489Y-107664370I156266J96578D01*
G01*
X146041831Y-107508064D02*
G75*
G02X146041582Y-107560327I-154298J-25395D01*
G01*
X146077975Y-107753756D02*
G75*
G02X146119632Y-107767724I-8996J-95928D01*
G01*
X146172435Y-107780731D02*
G75*
G02X146156816Y-107786539I-10994J5661D01*
G01*
X171460000Y-97730000D02*
X172030000Y-97730000D01*
X171460000Y-94500000D02*
X171460000Y-97730000D01*
X144343225Y-107660942D02*
X143791250Y-107634740D01*
X170510000Y-90795000D02*
X170510000Y-91270000D01*
X141128680Y-107615763D02*
X140418750Y-107634740D01*
X180010000Y-99630000D02*
X180010000Y-86235000D01*
X146434269Y-107536375D02*
X146442688Y-107492616D01*
X146147644Y-107713325D02*
G75*
G02X146172696Y-107758897I-434287J-268405D01*
G01*
X180010000Y-113025000D02*
X180010000Y-99630000D01*
X139713374Y-107772094D02*
G75*
G02X139590629Y-107793123I-200740J802960D01*
G01*
X146411430Y-107580270D02*
G75*
G02X146366826Y-107613077I-106548J98134D01*
G01*
X148660000Y-106470000D02*
X148149132Y-106470000D01*
X146410938Y-107838037D02*
G75*
G02X146450672Y-107858769I-15438J-78027D01*
G01*
X146342503Y-107878812D02*
G75*
G02X146247728Y-107951566I-143293J88559D01*
G01*
X146374709Y-107845329D02*
G75*
G02X146410938Y-107838036I26886J-39932D01*
G01*
X149230000Y-105330000D02*
X148660000Y-105330000D01*
X139065000Y-101910000D02*
X139445000Y-101910000D01*
X146450673Y-107858768D02*
G75*
G02X146493098Y-107908608I-229514J-238348D01*
G01*
X146535608Y-107965866D02*
X146493098Y-107908608D01*
X149800000Y-104285000D02*
X149800000Y-105330000D01*
X147707052Y-106723795D02*
X147691777Y-107047531D01*
X148660000Y-105330000D02*
X148660000Y-105900000D01*
X146550410Y-107964997D02*
G75*
G02X146535608Y-107965866I-7706J4766D01*
G01*
X146554449Y-107939971D02*
G75*
G02X146550410Y-107964997I-32125J-7655D01*
G01*
X147710000Y-102100000D02*
X147710000Y-102670000D01*
X146530891Y-107847501D02*
G75*
G02X146517884Y-107764291I370538J100542D01*
G01*
X146615285Y-107450398D02*
X146570714Y-107515000D01*
X147507882Y-106636250D02*
X147423656Y-106744350D01*
X146615285Y-107450398D02*
G75*
G02X146641383Y-107433803I34652J-25676D01*
G01*
X146778853Y-107585032D02*
G75*
G02X146694183Y-107551388I44883J236324D01*
G01*
X146694182Y-107551388D02*
G75*
G02X146663545Y-107496215I35766J55954D01*
G01*
X147691530Y-106628000D02*
G75*
G02X147707052Y-106723795I-230803J-86551D01*
G01*
X146641384Y-107433802D02*
G75*
G02X146658247Y-107445052I2835J-14014D01*
G01*
X147691777Y-107047531D02*
X147662500Y-107562500D01*
X144290000Y-101815000D02*
X144290000Y-102100000D01*
X149800000Y-105330000D02*
X149230000Y-105330000D01*
X139445000Y-101910000D02*
X139649329Y-101902893D01*
X146658247Y-107445052D02*
G75*
G02X146663545Y-107496215I-276397J-54476D01*
G01*
X147425084Y-106755064D02*
G75*
G02X147423656Y-106744350I4581J6063D01*
G01*
X140127812Y-101555772D02*
X140618813Y-101533663D01*
X144290000Y-102100000D02*
X146000000Y-102100000D01*
X140618813Y-101533663D02*
X142057500Y-101530000D01*
X139806400Y-101817051D02*
G75*
G02X139753750Y-101874375I-101508J40391D01*
G01*
X139825000Y-101720000D02*
G75*
G02X139900031Y-101609465I118935J0D01*
G01*
X139900031Y-101609465D02*
G75*
G02X140127812Y-101555772I295713J-744497D01*
G01*
X147507882Y-106636250D02*
G75*
G02X147597962Y-106558675I241648J-189515D01*
G01*
X146521322Y-107671454D02*
G75*
G02X146539455Y-107583409I532482J-63773D01*
G01*
X149800000Y-103240000D02*
X149800000Y-104285000D01*
X147163750Y-107591215D02*
X146927433Y-107598627D01*
X147597962Y-106558676D02*
G75*
G02X147724180Y-106507541I256795J-452516D01*
G01*
X148660000Y-105900000D02*
X148660000Y-106470000D01*
X148755000Y-103240000D02*
X149800000Y-103240000D01*
X146000000Y-102100000D02*
X147710000Y-102100000D01*
X139825000Y-101720000D02*
G75*
G02X139806400Y-101817051I-262503J0D01*
G01*
X139753750Y-101874376D02*
G75*
G02X139649329Y-101902893I-123631J247261D01*
G01*
X147710000Y-102670000D02*
X147710000Y-103240000D01*
X144290000Y-101530000D02*
X144290000Y-101815000D01*
X146927433Y-107598627D02*
G75*
G02X146778853Y-107585032I-4026J774720D01*
G01*
X147724180Y-106507541D02*
G75*
G02X147900476Y-106478736I244732J-943962D01*
G01*
X146530891Y-107847500D02*
X146554448Y-107939971D01*
X147710000Y-103240000D02*
X148755000Y-103240000D01*
X139065000Y-94072500D02*
X139065000Y-101910000D01*
X146539456Y-107583408D02*
G75*
G02X146570714Y-107515000I255589J-75443D01*
G01*
X147662500Y-107562500D02*
X147163750Y-107591215D01*
X148149132Y-106470000D02*
X147900476Y-106478736D01*
X142057500Y-101530000D02*
X144290000Y-101530000D01*
X147549276Y-106667531D02*
G75*
G02X147646133Y-106609036I285656J-363557D01*
G01*
X147646133Y-106609036D02*
G75*
G02X147691531Y-106628000I13786J-30818D01*
G01*
X146342504Y-107878813D02*
G75*
G02X146374708Y-107845328I93766J-57950D01*
G01*
X147437317Y-106754984D02*
X147549277Y-106667531D01*
X146517885Y-107764291D02*
G75*
G02X146521323Y-107671454I565301J25545D01*
G01*
X145994119Y-107913602D02*
G75*
G02X145972892Y-107828616I50034J57641D01*
G01*
X146103174Y-107962951D02*
G75*
G02X145994118Y-107913603I28172J207439D01*
G01*
X146247728Y-107951567D02*
G75*
G02X146103174Y-107962950I-98521J327569D01*
G01*
X147437317Y-106754983D02*
G75*
G02X147425084Y-106755064I-6169J7944D01*
G01*
X173170000Y-104190000D02*
X172600000Y-104190000D01*
X155310000Y-105520000D02*
X155310000Y-104950000D01*
X167090000Y-104190000D02*
X166615000Y-104190000D01*
X167090000Y-105330000D02*
X167090000Y-104760000D01*
X169370000Y-104190000D02*
X169370000Y-104760000D01*
X154170000Y-104950000D02*
X154170000Y-105520000D01*
X172600000Y-104190000D02*
X172600000Y-104760000D01*
X154170000Y-105520000D02*
X154740000Y-105520000D01*
X158540000Y-104380000D02*
X158540000Y-103810000D01*
X170320000Y-105330000D02*
X170320000Y-104760000D01*
X157400000Y-103240000D02*
X157400000Y-103810000D01*
X166140000Y-104190000D02*
X166140000Y-105330000D01*
X172600000Y-105330000D02*
X171460000Y-105330000D01*
X157970000Y-103240000D02*
X157400000Y-103240000D01*
X173740000Y-104190000D02*
X173170000Y-104190000D01*
X155310000Y-104950000D02*
X155310000Y-104380000D01*
X168230000Y-105330000D02*
X167090000Y-105330000D01*
X173740000Y-106470000D02*
X173740000Y-105330000D01*
X167090000Y-104760000D02*
X167090000Y-104190000D01*
X158540000Y-103810000D02*
X158540000Y-103240000D01*
X154740000Y-104380000D02*
X154170000Y-104380000D01*
X154170000Y-104380000D02*
X154170000Y-104950000D01*
X170320000Y-104190000D02*
X169845000Y-104190000D01*
X155310000Y-104380000D02*
X154740000Y-104380000D01*
X169845000Y-104190000D02*
X169370000Y-104190000D01*
X169370000Y-105330000D02*
X168230000Y-105330000D01*
X171460000Y-105330000D02*
X170320000Y-105330000D01*
X166140000Y-106470000D02*
X169940000Y-106470000D01*
X173740000Y-105330000D02*
X173740000Y-104190000D01*
X172600000Y-104760000D02*
X172600000Y-105330000D01*
X166140000Y-105330000D02*
X166140000Y-106470000D01*
X169940000Y-106470000D02*
X173740000Y-106470000D01*
X157400000Y-104380000D02*
X157970000Y-104380000D01*
X170320000Y-104760000D02*
X170320000Y-104190000D01*
X158540000Y-103240000D02*
X157970000Y-103240000D01*
X154740000Y-105520000D02*
X155310000Y-105520000D01*
X157970000Y-104380000D02*
X158540000Y-104380000D01*
X166615000Y-104190000D02*
X166140000Y-104190000D01*
X169370000Y-104760000D02*
X169370000Y-105330000D01*
D11*
X182320000Y-73790000D02*
X182320000Y-78870000D01*
X182320000Y-78870000D02*
X131520000Y-78870000D01*
X131520000Y-78870000D02*
X131520000Y-73790000D01*
X131520000Y-73790000D02*
X182320000Y-73790000D01*
D12*
X136459047Y-81717142D02*
X136506666Y-81764761D01*
X136649523Y-81812380D01*
X136744761Y-81812380D01*
X136887619Y-81764761D01*
X136982857Y-81669523D01*
X137030476Y-81574285D01*
X137078095Y-81383809D01*
X137078095Y-81240952D01*
X137030476Y-81050476D01*
X136982857Y-80955238D01*
X136887619Y-80860000D01*
X136744761Y-80812380D01*
X136649523Y-80812380D01*
X136506666Y-80860000D01*
X136459047Y-80907619D01*
X135840000Y-80812380D02*
X135649523Y-80812380D01*
X135554285Y-80860000D01*
X135459047Y-80955238D01*
X135411428Y-81145714D01*
X135411428Y-81479047D01*
X135459047Y-81669523D01*
X135554285Y-81764761D01*
X135649523Y-81812380D01*
X135840000Y-81812380D01*
X135935238Y-81764761D01*
X136030476Y-81669523D01*
X136078095Y-81479047D01*
X136078095Y-81145714D01*
X136030476Y-80955238D01*
X135935238Y-80860000D01*
X135840000Y-80812380D01*
X134982857Y-81812380D02*
X134982857Y-80812380D01*
X134411428Y-81812380D01*
X134411428Y-80812380D01*
X133935238Y-81812380D02*
X133935238Y-80812380D01*
X133363809Y-81812380D01*
X133363809Y-80812380D01*
X133125714Y-81907619D02*
X132363809Y-81907619D01*
X131601904Y-81812380D02*
X132173333Y-81812380D01*
X131887619Y-81812380D02*
X131887619Y-80812380D01*
X131982857Y-80955238D01*
X132078095Y-81050476D01*
X132173333Y-81098095D01*
M02*
