G04 #@! TF.GenerationSoftware,KiCad,Pcbnew,(5.1.2)-2*
G04 #@! TF.CreationDate,2020-02-14T14:24:33-05:00*
G04 #@! TF.ProjectId,rpi-power-supply,7270692d-706f-4776-9572-2d737570706c,rev?*
G04 #@! TF.SameCoordinates,Original*
G04 #@! TF.FileFunction,Legend,Top*
G04 #@! TF.FilePolarity,Positive*
%FSLAX46Y46*%
G04 Gerber Fmt 4.6, Leading zero omitted, Abs format (unit mm)*
G04 Created by KiCad (PCBNEW (5.1.2)-2) date 2020-02-14 14:24:33*
%MOMM*%
%LPD*%
G04 APERTURE LIST*
%ADD10C,0.010000*%
%ADD11C,0.150000*%
%ADD12C,0.120000*%
G04 APERTURE END LIST*
D10*
X182106983Y-107101930D02*
G75*
G02X181992479Y-107211375I-969507J899702D01*
G01*
D11*
X163877023Y-126387380D02*
X163543690Y-125911190D01*
X163305595Y-126387380D02*
X163305595Y-125387380D01*
X163686547Y-125387380D01*
X163781785Y-125435000D01*
X163829404Y-125482619D01*
X163877023Y-125577857D01*
X163877023Y-125720714D01*
X163829404Y-125815952D01*
X163781785Y-125863571D01*
X163686547Y-125911190D01*
X163305595Y-125911190D01*
X164305595Y-126387380D02*
X164305595Y-125387380D01*
X164686547Y-125387380D01*
X164781785Y-125435000D01*
X164829404Y-125482619D01*
X164877023Y-125577857D01*
X164877023Y-125720714D01*
X164829404Y-125815952D01*
X164781785Y-125863571D01*
X164686547Y-125911190D01*
X164305595Y-125911190D01*
X165305595Y-126387380D02*
X165305595Y-125720714D01*
X165305595Y-125387380D02*
X165257976Y-125435000D01*
X165305595Y-125482619D01*
X165353214Y-125435000D01*
X165305595Y-125387380D01*
X165305595Y-125482619D01*
X166543690Y-126387380D02*
X166543690Y-125387380D01*
X166924642Y-125387380D01*
X167019880Y-125435000D01*
X167067500Y-125482619D01*
X167115119Y-125577857D01*
X167115119Y-125720714D01*
X167067500Y-125815952D01*
X167019880Y-125863571D01*
X166924642Y-125911190D01*
X166543690Y-125911190D01*
X167734166Y-125387380D02*
X167924642Y-125387380D01*
X168019880Y-125435000D01*
X168115119Y-125530238D01*
X168162738Y-125720714D01*
X168162738Y-126054047D01*
X168115119Y-126244523D01*
X168019880Y-126339761D01*
X167924642Y-126387380D01*
X167734166Y-126387380D01*
X167638928Y-126339761D01*
X167543690Y-126244523D01*
X167496071Y-126054047D01*
X167496071Y-125720714D01*
X167543690Y-125530238D01*
X167638928Y-125435000D01*
X167734166Y-125387380D01*
X168496071Y-125387380D02*
X168734166Y-126387380D01*
X168924642Y-125673095D01*
X169115119Y-126387380D01*
X169353214Y-125387380D01*
X169734166Y-125863571D02*
X170067500Y-125863571D01*
X170210357Y-126387380D02*
X169734166Y-126387380D01*
X169734166Y-125387380D01*
X170210357Y-125387380D01*
X171210357Y-126387380D02*
X170877023Y-125911190D01*
X170638928Y-126387380D02*
X170638928Y-125387380D01*
X171019880Y-125387380D01*
X171115119Y-125435000D01*
X171162738Y-125482619D01*
X171210357Y-125577857D01*
X171210357Y-125720714D01*
X171162738Y-125815952D01*
X171115119Y-125863571D01*
X171019880Y-125911190D01*
X170638928Y-125911190D01*
X172353214Y-126339761D02*
X172496071Y-126387380D01*
X172734166Y-126387380D01*
X172829404Y-126339761D01*
X172877023Y-126292142D01*
X172924642Y-126196904D01*
X172924642Y-126101666D01*
X172877023Y-126006428D01*
X172829404Y-125958809D01*
X172734166Y-125911190D01*
X172543690Y-125863571D01*
X172448452Y-125815952D01*
X172400833Y-125768333D01*
X172353214Y-125673095D01*
X172353214Y-125577857D01*
X172400833Y-125482619D01*
X172448452Y-125435000D01*
X172543690Y-125387380D01*
X172781785Y-125387380D01*
X172924642Y-125435000D01*
X173353214Y-125387380D02*
X173353214Y-126196904D01*
X173400833Y-126292142D01*
X173448452Y-126339761D01*
X173543690Y-126387380D01*
X173734166Y-126387380D01*
X173829404Y-126339761D01*
X173877023Y-126292142D01*
X173924642Y-126196904D01*
X173924642Y-125387380D01*
X174400833Y-126387380D02*
X174400833Y-125387380D01*
X174781785Y-125387380D01*
X174877023Y-125435000D01*
X174924642Y-125482619D01*
X174972261Y-125577857D01*
X174972261Y-125720714D01*
X174924642Y-125815952D01*
X174877023Y-125863571D01*
X174781785Y-125911190D01*
X174400833Y-125911190D01*
X175400833Y-126387380D02*
X175400833Y-125387380D01*
X175781785Y-125387380D01*
X175877023Y-125435000D01*
X175924642Y-125482619D01*
X175972261Y-125577857D01*
X175972261Y-125720714D01*
X175924642Y-125815952D01*
X175877023Y-125863571D01*
X175781785Y-125911190D01*
X175400833Y-125911190D01*
X176877023Y-126387380D02*
X176400833Y-126387380D01*
X176400833Y-125387380D01*
X177400833Y-125911190D02*
X177400833Y-126387380D01*
X177067500Y-125387380D02*
X177400833Y-125911190D01*
X177734166Y-125387380D01*
X178115119Y-126339761D02*
X178115119Y-126387380D01*
X178067500Y-126482619D01*
X178019880Y-126530238D01*
X179210357Y-125720714D02*
X179448452Y-126387380D01*
X179686547Y-125720714D01*
X180591309Y-126387380D02*
X180019880Y-126387380D01*
X180305595Y-126387380D02*
X180305595Y-125387380D01*
X180210357Y-125530238D01*
X180115119Y-125625476D01*
X180019880Y-125673095D01*
X181019880Y-126292142D02*
X181067500Y-126339761D01*
X181019880Y-126387380D01*
X180972261Y-126339761D01*
X181019880Y-126292142D01*
X181019880Y-126387380D01*
X182019880Y-126387380D02*
X181448452Y-126387380D01*
X181734166Y-126387380D02*
X181734166Y-125387380D01*
X181638928Y-125530238D01*
X181543690Y-125625476D01*
X181448452Y-125673095D01*
X163257976Y-127132619D02*
X163305595Y-127085000D01*
X163400833Y-127037380D01*
X163638928Y-127037380D01*
X163734166Y-127085000D01*
X163781785Y-127132619D01*
X163829404Y-127227857D01*
X163829404Y-127323095D01*
X163781785Y-127465952D01*
X163210357Y-128037380D01*
X163829404Y-128037380D01*
X164972261Y-126989761D02*
X164115119Y-128275476D01*
X165257976Y-127132619D02*
X165305595Y-127085000D01*
X165400833Y-127037380D01*
X165638928Y-127037380D01*
X165734166Y-127085000D01*
X165781785Y-127132619D01*
X165829404Y-127227857D01*
X165829404Y-127323095D01*
X165781785Y-127465952D01*
X165210357Y-128037380D01*
X165829404Y-128037380D01*
X166448452Y-127037380D02*
X166543690Y-127037380D01*
X166638928Y-127085000D01*
X166686547Y-127132619D01*
X166734166Y-127227857D01*
X166781785Y-127418333D01*
X166781785Y-127656428D01*
X166734166Y-127846904D01*
X166686547Y-127942142D01*
X166638928Y-127989761D01*
X166543690Y-128037380D01*
X166448452Y-128037380D01*
X166353214Y-127989761D01*
X166305595Y-127942142D01*
X166257976Y-127846904D01*
X166210357Y-127656428D01*
X166210357Y-127418333D01*
X166257976Y-127227857D01*
X166305595Y-127132619D01*
X166353214Y-127085000D01*
X166448452Y-127037380D01*
D12*
X139540000Y-96770000D02*
X137540000Y-96770000D01*
X137540000Y-98810000D02*
X139540000Y-98810000D01*
X139540000Y-99470000D02*
X137540000Y-99470000D01*
X137540000Y-101510000D02*
X139540000Y-101510000D01*
X140040000Y-85140000D02*
X139040000Y-85140000D01*
X139040000Y-86840000D02*
X140040000Y-86840000D01*
X133130000Y-95900000D02*
X133130000Y-96900000D01*
X134830000Y-96900000D02*
X134830000Y-95900000D01*
X145040000Y-96510000D02*
X147040000Y-96510000D01*
X147040000Y-94470000D02*
X145040000Y-94470000D01*
D11*
X132300000Y-111350000D02*
X127300000Y-111350000D01*
D12*
X134520000Y-108670000D02*
X134520000Y-112130000D01*
X138280000Y-108670000D02*
X138280000Y-112130000D01*
D11*
X135320000Y-89834000D02*
X140400000Y-89834000D01*
X140400000Y-89834000D02*
X140400000Y-94406000D01*
X140400000Y-94406000D02*
X135320000Y-94406000D01*
X135320000Y-94406000D02*
X135320000Y-89834000D01*
X135320000Y-91358000D02*
X135828000Y-91358000D01*
X135828000Y-91358000D02*
X135828000Y-92628000D01*
X135828000Y-92628000D02*
X135320000Y-92628000D01*
X143215000Y-104115000D02*
X149865000Y-104115000D01*
X143215000Y-97465000D02*
X149865000Y-97465000D01*
D12*
X135040000Y-86920000D02*
X133840000Y-86920000D01*
X133840000Y-85160000D02*
X135040000Y-85160000D01*
X145140000Y-86920000D02*
X143940000Y-86920000D01*
X143940000Y-85160000D02*
X145140000Y-85160000D01*
X145140000Y-89920000D02*
X143940000Y-89920000D01*
X143940000Y-88160000D02*
X145140000Y-88160000D01*
X143940000Y-90910000D02*
X145140000Y-90910000D01*
X145140000Y-92670000D02*
X143940000Y-92670000D01*
D11*
X141753333Y-97897142D02*
X141705714Y-97944761D01*
X141562857Y-97992380D01*
X141467619Y-97992380D01*
X141324761Y-97944761D01*
X141229523Y-97849523D01*
X141181904Y-97754285D01*
X141134285Y-97563809D01*
X141134285Y-97420952D01*
X141181904Y-97230476D01*
X141229523Y-97135238D01*
X141324761Y-97040000D01*
X141467619Y-96992380D01*
X141562857Y-96992380D01*
X141705714Y-97040000D01*
X141753333Y-97087619D01*
X142086666Y-96992380D02*
X142705714Y-96992380D01*
X142372380Y-97373333D01*
X142515238Y-97373333D01*
X142610476Y-97420952D01*
X142658095Y-97468571D01*
X142705714Y-97563809D01*
X142705714Y-97801904D01*
X142658095Y-97897142D01*
X142610476Y-97944761D01*
X142515238Y-97992380D01*
X142229523Y-97992380D01*
X142134285Y-97944761D01*
X142086666Y-97897142D01*
X134823333Y-100907142D02*
X134775714Y-100954761D01*
X134632857Y-101002380D01*
X134537619Y-101002380D01*
X134394761Y-100954761D01*
X134299523Y-100859523D01*
X134251904Y-100764285D01*
X134204285Y-100573809D01*
X134204285Y-100430952D01*
X134251904Y-100240476D01*
X134299523Y-100145238D01*
X134394761Y-100050000D01*
X134537619Y-100002380D01*
X134632857Y-100002380D01*
X134775714Y-100050000D01*
X134823333Y-100097619D01*
X135680476Y-100335714D02*
X135680476Y-101002380D01*
X135442380Y-99954761D02*
X135204285Y-100669047D01*
X135823333Y-100669047D01*
X139373333Y-84847142D02*
X139325714Y-84894761D01*
X139182857Y-84942380D01*
X139087619Y-84942380D01*
X138944761Y-84894761D01*
X138849523Y-84799523D01*
X138801904Y-84704285D01*
X138754285Y-84513809D01*
X138754285Y-84370952D01*
X138801904Y-84180476D01*
X138849523Y-84085238D01*
X138944761Y-83990000D01*
X139087619Y-83942380D01*
X139182857Y-83942380D01*
X139325714Y-83990000D01*
X139373333Y-84037619D01*
X140278095Y-83942380D02*
X139801904Y-83942380D01*
X139754285Y-84418571D01*
X139801904Y-84370952D01*
X139897142Y-84323333D01*
X140135238Y-84323333D01*
X140230476Y-84370952D01*
X140278095Y-84418571D01*
X140325714Y-84513809D01*
X140325714Y-84751904D01*
X140278095Y-84847142D01*
X140230476Y-84894761D01*
X140135238Y-84942380D01*
X139897142Y-84942380D01*
X139801904Y-84894761D01*
X139754285Y-84847142D01*
X132837142Y-96566666D02*
X132884761Y-96614285D01*
X132932380Y-96757142D01*
X132932380Y-96852380D01*
X132884761Y-96995238D01*
X132789523Y-97090476D01*
X132694285Y-97138095D01*
X132503809Y-97185714D01*
X132360952Y-97185714D01*
X132170476Y-97138095D01*
X132075238Y-97090476D01*
X131980000Y-96995238D01*
X131932380Y-96852380D01*
X131932380Y-96757142D01*
X131980000Y-96614285D01*
X132027619Y-96566666D01*
X131932380Y-95709523D02*
X131932380Y-95900000D01*
X131980000Y-95995238D01*
X132027619Y-96042857D01*
X132170476Y-96138095D01*
X132360952Y-96185714D01*
X132741904Y-96185714D01*
X132837142Y-96138095D01*
X132884761Y-96090476D01*
X132932380Y-95995238D01*
X132932380Y-95804761D01*
X132884761Y-95709523D01*
X132837142Y-95661904D01*
X132741904Y-95614285D01*
X132503809Y-95614285D01*
X132408571Y-95661904D01*
X132360952Y-95709523D01*
X132313333Y-95804761D01*
X132313333Y-95995238D01*
X132360952Y-96090476D01*
X132408571Y-96138095D01*
X132503809Y-96185714D01*
X149313333Y-95747142D02*
X149265714Y-95794761D01*
X149122857Y-95842380D01*
X149027619Y-95842380D01*
X148884761Y-95794761D01*
X148789523Y-95699523D01*
X148741904Y-95604285D01*
X148694285Y-95413809D01*
X148694285Y-95270952D01*
X148741904Y-95080476D01*
X148789523Y-94985238D01*
X148884761Y-94890000D01*
X149027619Y-94842380D01*
X149122857Y-94842380D01*
X149265714Y-94890000D01*
X149313333Y-94937619D01*
X149646666Y-94842380D02*
X150313333Y-94842380D01*
X149884761Y-95842380D01*
X134152380Y-116738095D02*
X133152380Y-116738095D01*
X133152380Y-116500000D01*
X133200000Y-116357142D01*
X133295238Y-116261904D01*
X133390476Y-116214285D01*
X133580952Y-116166666D01*
X133723809Y-116166666D01*
X133914285Y-116214285D01*
X134009523Y-116261904D01*
X134104761Y-116357142D01*
X134152380Y-116500000D01*
X134152380Y-116738095D01*
X134152380Y-115214285D02*
X134152380Y-115785714D01*
X134152380Y-115500000D02*
X133152380Y-115500000D01*
X133295238Y-115595238D01*
X133390476Y-115690476D01*
X133438095Y-115785714D01*
X139048571Y-110733333D02*
X139048571Y-111066666D01*
X139572380Y-111066666D02*
X138572380Y-111066666D01*
X138572380Y-110590476D01*
X139572380Y-109685714D02*
X139572380Y-110257142D01*
X139572380Y-109971428D02*
X138572380Y-109971428D01*
X138715238Y-110066666D01*
X138810476Y-110161904D01*
X138858095Y-110257142D01*
X134982380Y-92916190D02*
X133982380Y-92916190D01*
X134887142Y-91868571D02*
X134934761Y-91916190D01*
X134982380Y-92059047D01*
X134982380Y-92154285D01*
X134934761Y-92297142D01*
X134839523Y-92392380D01*
X134744285Y-92440000D01*
X134553809Y-92487619D01*
X134410952Y-92487619D01*
X134220476Y-92440000D01*
X134125238Y-92392380D01*
X134030000Y-92297142D01*
X133982380Y-92154285D01*
X133982380Y-92059047D01*
X134030000Y-91916190D01*
X134077619Y-91868571D01*
X134077619Y-91487619D02*
X134030000Y-91440000D01*
X133982380Y-91344761D01*
X133982380Y-91106666D01*
X134030000Y-91011428D01*
X134077619Y-90963809D01*
X134172857Y-90916190D01*
X134268095Y-90916190D01*
X134410952Y-90963809D01*
X134982380Y-91535238D01*
X134982380Y-90916190D01*
X146623333Y-105742380D02*
X146147142Y-105742380D01*
X146147142Y-104742380D01*
X147480476Y-105742380D02*
X146909047Y-105742380D01*
X147194761Y-105742380D02*
X147194761Y-104742380D01*
X147099523Y-104885238D01*
X147004285Y-104980476D01*
X146909047Y-105028095D01*
X135733333Y-84922380D02*
X135400000Y-84446190D01*
X135161904Y-84922380D02*
X135161904Y-83922380D01*
X135542857Y-83922380D01*
X135638095Y-83970000D01*
X135685714Y-84017619D01*
X135733333Y-84112857D01*
X135733333Y-84255714D01*
X135685714Y-84350952D01*
X135638095Y-84398571D01*
X135542857Y-84446190D01*
X135161904Y-84446190D01*
X136590476Y-84255714D02*
X136590476Y-84922380D01*
X136352380Y-83874761D02*
X136114285Y-84589047D01*
X136733333Y-84589047D01*
X144373333Y-84842380D02*
X144040000Y-84366190D01*
X143801904Y-84842380D02*
X143801904Y-83842380D01*
X144182857Y-83842380D01*
X144278095Y-83890000D01*
X144325714Y-83937619D01*
X144373333Y-84032857D01*
X144373333Y-84175714D01*
X144325714Y-84270952D01*
X144278095Y-84318571D01*
X144182857Y-84366190D01*
X143801904Y-84366190D01*
X145278095Y-83842380D02*
X144801904Y-83842380D01*
X144754285Y-84318571D01*
X144801904Y-84270952D01*
X144897142Y-84223333D01*
X145135238Y-84223333D01*
X145230476Y-84270952D01*
X145278095Y-84318571D01*
X145325714Y-84413809D01*
X145325714Y-84651904D01*
X145278095Y-84747142D01*
X145230476Y-84794761D01*
X145135238Y-84842380D01*
X144897142Y-84842380D01*
X144801904Y-84794761D01*
X144754285Y-84747142D01*
X147093333Y-89602380D02*
X146760000Y-89126190D01*
X146521904Y-89602380D02*
X146521904Y-88602380D01*
X146902857Y-88602380D01*
X146998095Y-88650000D01*
X147045714Y-88697619D01*
X147093333Y-88792857D01*
X147093333Y-88935714D01*
X147045714Y-89030952D01*
X146998095Y-89078571D01*
X146902857Y-89126190D01*
X146521904Y-89126190D01*
X147426666Y-88602380D02*
X148093333Y-88602380D01*
X147664761Y-89602380D01*
X147053333Y-92232380D02*
X146720000Y-91756190D01*
X146481904Y-92232380D02*
X146481904Y-91232380D01*
X146862857Y-91232380D01*
X146958095Y-91280000D01*
X147005714Y-91327619D01*
X147053333Y-91422857D01*
X147053333Y-91565714D01*
X147005714Y-91660952D01*
X146958095Y-91708571D01*
X146862857Y-91756190D01*
X146481904Y-91756190D01*
X147624761Y-91660952D02*
X147529523Y-91613333D01*
X147481904Y-91565714D01*
X147434285Y-91470476D01*
X147434285Y-91422857D01*
X147481904Y-91327619D01*
X147529523Y-91280000D01*
X147624761Y-91232380D01*
X147815238Y-91232380D01*
X147910476Y-91280000D01*
X147958095Y-91327619D01*
X148005714Y-91422857D01*
X148005714Y-91470476D01*
X147958095Y-91565714D01*
X147910476Y-91613333D01*
X147815238Y-91660952D01*
X147624761Y-91660952D01*
X147529523Y-91708571D01*
X147481904Y-91756190D01*
X147434285Y-91851428D01*
X147434285Y-92041904D01*
X147481904Y-92137142D01*
X147529523Y-92184761D01*
X147624761Y-92232380D01*
X147815238Y-92232380D01*
X147910476Y-92184761D01*
X147958095Y-92137142D01*
X148005714Y-92041904D01*
X148005714Y-91851428D01*
X147958095Y-91756190D01*
X147910476Y-91708571D01*
X147815238Y-91660952D01*
X135952380Y-122780952D02*
X136952380Y-122447619D01*
X135952380Y-122114285D01*
X136428571Y-121447619D02*
X136476190Y-121304761D01*
X136523809Y-121257142D01*
X136619047Y-121209523D01*
X136761904Y-121209523D01*
X136857142Y-121257142D01*
X136904761Y-121304761D01*
X136952380Y-121400000D01*
X136952380Y-121780952D01*
X135952380Y-121780952D01*
X135952380Y-121447619D01*
X136000000Y-121352380D01*
X136047619Y-121304761D01*
X136142857Y-121257142D01*
X136238095Y-121257142D01*
X136333333Y-121304761D01*
X136380952Y-121352380D01*
X136428571Y-121447619D01*
X136428571Y-121780952D01*
X136666666Y-120828571D02*
X136666666Y-120352380D01*
X136952380Y-120923809D02*
X135952380Y-120590476D01*
X136952380Y-120257142D01*
X135952380Y-120066666D02*
X135952380Y-119495238D01*
X136952380Y-119780952D02*
X135952380Y-119780952D01*
X135952380Y-119304761D02*
X135952380Y-118733333D01*
X136952380Y-119019047D02*
X135952380Y-119019047D01*
X137047619Y-118638095D02*
X137047619Y-117876190D01*
X136952380Y-117114285D02*
X136952380Y-117685714D01*
X136952380Y-117400000D02*
X135952380Y-117400000D01*
X136095238Y-117495238D01*
X136190476Y-117590476D01*
X136238095Y-117685714D01*
X130740952Y-87590000D02*
X130645714Y-87542380D01*
X130502857Y-87542380D01*
X130360000Y-87590000D01*
X130264761Y-87685238D01*
X130217142Y-87780476D01*
X130169523Y-87970952D01*
X130169523Y-88113809D01*
X130217142Y-88304285D01*
X130264761Y-88399523D01*
X130360000Y-88494761D01*
X130502857Y-88542380D01*
X130598095Y-88542380D01*
X130740952Y-88494761D01*
X130788571Y-88447142D01*
X130788571Y-88113809D01*
X130598095Y-88113809D01*
X131217142Y-88542380D02*
X131217142Y-87542380D01*
X131788571Y-88542380D01*
X131788571Y-87542380D01*
X132264761Y-88542380D02*
X132264761Y-87542380D01*
X132502857Y-87542380D01*
X132645714Y-87590000D01*
X132740952Y-87685238D01*
X132788571Y-87780476D01*
X132836190Y-87970952D01*
X132836190Y-88113809D01*
X132788571Y-88304285D01*
X132740952Y-88399523D01*
X132645714Y-88494761D01*
X132502857Y-88542380D01*
X132264761Y-88542380D01*
X133026666Y-88637619D02*
X133788571Y-88637619D01*
X133979047Y-87637619D02*
X134026666Y-87590000D01*
X134121904Y-87542380D01*
X134360000Y-87542380D01*
X134455238Y-87590000D01*
X134502857Y-87637619D01*
X134550476Y-87732857D01*
X134550476Y-87828095D01*
X134502857Y-87970952D01*
X133931428Y-88542380D01*
X134550476Y-88542380D01*
X139600000Y-122319047D02*
X139552380Y-122414285D01*
X139552380Y-122557142D01*
X139600000Y-122700000D01*
X139695238Y-122795238D01*
X139790476Y-122842857D01*
X139980952Y-122890476D01*
X140123809Y-122890476D01*
X140314285Y-122842857D01*
X140409523Y-122795238D01*
X140504761Y-122700000D01*
X140552380Y-122557142D01*
X140552380Y-122461904D01*
X140504761Y-122319047D01*
X140457142Y-122271428D01*
X140123809Y-122271428D01*
X140123809Y-122461904D01*
X140552380Y-121842857D02*
X139552380Y-121842857D01*
X140552380Y-121271428D01*
X139552380Y-121271428D01*
X140552380Y-120795238D02*
X139552380Y-120795238D01*
X139552380Y-120557142D01*
X139600000Y-120414285D01*
X139695238Y-120319047D01*
X139790476Y-120271428D01*
X139980952Y-120223809D01*
X140123809Y-120223809D01*
X140314285Y-120271428D01*
X140409523Y-120319047D01*
X140504761Y-120414285D01*
X140552380Y-120557142D01*
X140552380Y-120795238D01*
X140647619Y-120033333D02*
X140647619Y-119271428D01*
X140552380Y-118509523D02*
X140552380Y-119080952D01*
X140552380Y-118795238D02*
X139552380Y-118795238D01*
X139695238Y-118890476D01*
X139790476Y-118985714D01*
X139838095Y-119080952D01*
X130792380Y-83802380D02*
X130316190Y-83802380D01*
X130268571Y-84278571D01*
X130316190Y-84230952D01*
X130411428Y-84183333D01*
X130649523Y-84183333D01*
X130744761Y-84230952D01*
X130792380Y-84278571D01*
X130840000Y-84373809D01*
X130840000Y-84611904D01*
X130792380Y-84707142D01*
X130744761Y-84754761D01*
X130649523Y-84802380D01*
X130411428Y-84802380D01*
X130316190Y-84754761D01*
X130268571Y-84707142D01*
X131125714Y-83802380D02*
X131459047Y-84802380D01*
X131792380Y-83802380D01*
X131887619Y-84897619D02*
X132649523Y-84897619D01*
X133411428Y-84802380D02*
X132840000Y-84802380D01*
X133125714Y-84802380D02*
X133125714Y-83802380D01*
X133030476Y-83945238D01*
X132935238Y-84040476D01*
X132840000Y-84088095D01*
M02*
