G04 #@! TF.GenerationSoftware,KiCad,Pcbnew,(5.1.2)-2*
G04 #@! TF.CreationDate,2020-02-14T14:24:33-05:00*
G04 #@! TF.ProjectId,rpi-power-supply,7270692d-706f-4776-9572-2d737570706c,rev?*
G04 #@! TF.SameCoordinates,Original*
G04 #@! TF.FileFunction,Copper,L1,Top*
G04 #@! TF.FilePolarity,Positive*
%FSLAX46Y46*%
G04 Gerber Fmt 4.6, Leading zero omitted, Abs format (unit mm)*
G04 Created by KiCad (PCBNEW (5.1.2)-2) date 2020-02-14 14:24:33*
%MOMM*%
%LPD*%
G04 APERTURE LIST*
%ADD10R,1.000000X1.600000*%
%ADD11R,1.000000X1.250000*%
%ADD12R,1.250000X1.000000*%
%ADD13R,3.390000X2.500000*%
%ADD14R,3.500000X1.600000*%
%ADD15R,3.510000X2.620000*%
%ADD16R,0.610000X1.600000*%
%ADD17R,2.350000X3.400000*%
%ADD18R,0.700000X1.300000*%
%ADD19R,3.000000X5.000000*%
%ADD20R,5.000000X3.000000*%
%ADD21C,1.500000*%
%ADD22C,1.000000*%
%ADD23C,0.800000*%
%ADD24C,0.254000*%
G04 APERTURE END LIST*
D10*
X137040000Y-97790000D03*
X140040000Y-97790000D03*
X137040000Y-100490000D03*
X140040000Y-100490000D03*
D11*
X138540000Y-85990000D03*
X140540000Y-85990000D03*
D12*
X133980000Y-97400000D03*
X133980000Y-95400000D03*
D10*
X147540000Y-95490000D03*
X144540000Y-95490000D03*
D13*
X129800000Y-119510000D03*
X129800000Y-112690000D03*
D14*
X136400000Y-107960000D03*
X136400000Y-112840000D03*
D15*
X137860000Y-92120000D03*
D16*
X135955000Y-89120000D03*
X137225000Y-89120000D03*
X138495000Y-89120000D03*
X139765000Y-89120000D03*
X139765000Y-95120000D03*
X138495000Y-95120000D03*
X137225000Y-95120000D03*
X135955000Y-95120000D03*
D17*
X149565000Y-100790000D03*
X143515000Y-100790000D03*
D18*
X133490000Y-86040000D03*
X135390000Y-86040000D03*
X143590000Y-86040000D03*
X145490000Y-86040000D03*
X143590000Y-89040000D03*
X145490000Y-89040000D03*
X145490000Y-91790000D03*
X143590000Y-91790000D03*
D19*
X136300000Y-126100000D03*
D20*
X127100000Y-88000000D03*
D19*
X140100000Y-126100000D03*
D20*
X127100000Y-84200000D03*
D21*
X130760000Y-91030000D03*
X183410000Y-79690000D03*
X139140000Y-102690000D03*
X131940000Y-97590000D03*
X130170000Y-80940000D03*
D22*
X127100000Y-88000000D02*
X127730000Y-88000000D01*
X127730000Y-88000000D02*
X130760000Y-91030000D01*
X138495000Y-89120000D02*
X138495000Y-86035000D01*
X138495000Y-86035000D02*
X138540000Y-85990000D01*
X140540000Y-85990000D02*
X143540000Y-85990000D01*
X143540000Y-85990000D02*
X143590000Y-86040000D01*
X143515000Y-100790000D02*
X143515000Y-102415000D01*
X143515000Y-102415000D02*
X142440000Y-103490000D01*
X142440000Y-103490000D02*
X139940000Y-103490000D01*
X139940000Y-103490000D02*
X139140000Y-102690000D01*
X133980000Y-97500000D02*
X132030000Y-97500000D01*
X131940000Y-97590000D02*
X132030000Y-97500000D01*
X138495000Y-95120000D02*
X138495000Y-102045000D01*
X138495000Y-102045000D02*
X139140000Y-102690000D01*
X135955000Y-95120000D02*
X134160000Y-95120000D01*
X134160000Y-95120000D02*
X133980000Y-95300000D01*
X129800000Y-112690000D02*
X136250000Y-112690000D01*
X136250000Y-112690000D02*
X136400000Y-112840000D01*
X136300000Y-126100000D02*
X135990000Y-126100000D01*
X135990000Y-126100000D02*
X129800000Y-119910000D01*
D23*
X147540000Y-95490000D02*
X150160000Y-92870000D01*
X148440000Y-82900000D02*
X128400000Y-82900000D01*
X150160000Y-84620000D02*
X148440000Y-82900000D01*
X150160000Y-92870000D02*
X150160000Y-84620000D01*
X128400000Y-82900000D02*
X127100000Y-84200000D01*
X127100000Y-84200000D02*
X127100000Y-84010000D01*
X127100000Y-84010000D02*
X130170000Y-80940000D01*
D22*
X147540000Y-95490000D02*
X147540000Y-93840000D01*
X147540000Y-93840000D02*
X145490000Y-91790000D01*
X136400000Y-107960000D02*
X136400000Y-104200000D01*
X136400000Y-104200000D02*
X135000000Y-102800000D01*
X130489999Y-93446003D02*
X130489999Y-101379999D01*
X133490000Y-86040000D02*
X133490000Y-90446002D01*
X133490000Y-90446002D02*
X130489999Y-93446003D01*
X131910000Y-102800000D02*
X135000000Y-102800000D01*
X130489999Y-101379999D02*
X131910000Y-102800000D01*
X137225000Y-87875000D02*
X137225000Y-89120000D01*
X135390000Y-86040000D02*
X137225000Y-87875000D01*
D24*
G36*
X150813000Y-102563000D02*
G01*
X146667000Y-102563000D01*
X146667000Y-94617000D01*
X150813000Y-94617000D01*
X150813000Y-102563000D01*
X150813000Y-102563000D01*
G37*
X150813000Y-102563000D02*
X146667000Y-102563000D01*
X146667000Y-94617000D01*
X150813000Y-94617000D01*
X150813000Y-102563000D01*
G36*
X137613000Y-104563262D02*
G01*
X133027000Y-104572737D01*
X133027000Y-99126520D01*
X135540481Y-99116999D01*
X135565248Y-99114465D01*
X135589045Y-99107148D01*
X135610957Y-99095329D01*
X135630142Y-99079462D01*
X135645863Y-99060157D01*
X135657516Y-99038156D01*
X135664653Y-99014304D01*
X135667000Y-98990000D01*
X135667000Y-96817000D01*
X136740000Y-96817000D01*
X136764776Y-96814560D01*
X136788601Y-96807333D01*
X136810557Y-96795597D01*
X136829803Y-96779803D01*
X136845597Y-96760557D01*
X136857333Y-96738601D01*
X136864560Y-96714776D01*
X136867000Y-96690000D01*
X136867000Y-94217000D01*
X137613000Y-94217000D01*
X137613000Y-104563262D01*
X137613000Y-104563262D01*
G37*
X137613000Y-104563262D02*
X133027000Y-104572737D01*
X133027000Y-99126520D01*
X135540481Y-99116999D01*
X135565248Y-99114465D01*
X135589045Y-99107148D01*
X135610957Y-99095329D01*
X135630142Y-99079462D01*
X135645863Y-99060157D01*
X135657516Y-99038156D01*
X135664653Y-99014304D01*
X135667000Y-98990000D01*
X135667000Y-96817000D01*
X136740000Y-96817000D01*
X136764776Y-96814560D01*
X136788601Y-96807333D01*
X136810557Y-96795597D01*
X136829803Y-96779803D01*
X136845597Y-96760557D01*
X136857333Y-96738601D01*
X136864560Y-96714776D01*
X136867000Y-96690000D01*
X136867000Y-94217000D01*
X137613000Y-94217000D01*
X137613000Y-104563262D01*
G36*
X144413000Y-92763000D02*
G01*
X141667000Y-92763000D01*
X141667000Y-90190000D01*
X141664560Y-90165224D01*
X141657333Y-90141399D01*
X141645597Y-90119443D01*
X141629803Y-90100197D01*
X141610557Y-90084403D01*
X141588601Y-90072667D01*
X141564776Y-90065440D01*
X141540000Y-90063000D01*
X139367000Y-90063000D01*
X139367000Y-88117000D01*
X144413000Y-88117000D01*
X144413000Y-92763000D01*
X144413000Y-92763000D01*
G37*
X144413000Y-92763000D02*
X141667000Y-92763000D01*
X141667000Y-90190000D01*
X141664560Y-90165224D01*
X141657333Y-90141399D01*
X141645597Y-90119443D01*
X141629803Y-90100197D01*
X141610557Y-90084403D01*
X141588601Y-90072667D01*
X141564776Y-90065440D01*
X141540000Y-90063000D01*
X139367000Y-90063000D01*
X139367000Y-88117000D01*
X144413000Y-88117000D01*
X144413000Y-92763000D01*
G36*
X187353463Y-72786491D02*
G01*
X188157018Y-73250630D01*
X188751757Y-73960228D01*
X189073390Y-74844813D01*
X189114100Y-75305808D01*
X189114100Y-75504856D01*
X189092988Y-75398719D01*
X188849730Y-74811442D01*
X188496575Y-74282907D01*
X188047093Y-73833425D01*
X187518558Y-73480270D01*
X186931281Y-73237012D01*
X186307832Y-73113000D01*
X185672168Y-73113000D01*
X185048719Y-73237012D01*
X184461442Y-73480270D01*
X183932907Y-73833425D01*
X183483425Y-74282907D01*
X183130270Y-74811442D01*
X182887012Y-75398719D01*
X182763000Y-76022168D01*
X182763000Y-76657832D01*
X182887012Y-77281281D01*
X183130270Y-77868558D01*
X183483425Y-78397093D01*
X183932907Y-78846575D01*
X184461442Y-79199730D01*
X185048719Y-79442988D01*
X185672168Y-79567000D01*
X186307832Y-79567000D01*
X186931281Y-79442988D01*
X187518558Y-79199730D01*
X188047093Y-78846575D01*
X188496575Y-78397093D01*
X188849730Y-77868558D01*
X189092988Y-77281281D01*
X189114100Y-77175144D01*
X189114101Y-124514861D01*
X189092988Y-124408719D01*
X188849730Y-123821442D01*
X188496575Y-123292907D01*
X188047093Y-122843425D01*
X187518558Y-122490270D01*
X186931281Y-122247012D01*
X186307832Y-122123000D01*
X185672168Y-122123000D01*
X185048719Y-122247012D01*
X184461442Y-122490270D01*
X183932907Y-122843425D01*
X183483425Y-123292907D01*
X183130270Y-123821442D01*
X182887012Y-124408719D01*
X182763000Y-125032168D01*
X182763000Y-125667832D01*
X182887012Y-126291281D01*
X183130270Y-126878558D01*
X183483425Y-127407093D01*
X183932907Y-127856575D01*
X184461442Y-128209730D01*
X185048719Y-128452988D01*
X185117151Y-128466600D01*
X142028930Y-128466600D01*
X142027000Y-126579750D01*
X141920250Y-126473000D01*
X140473000Y-126473000D01*
X140473000Y-126493000D01*
X139727000Y-126493000D01*
X139727000Y-126473000D01*
X138279750Y-126473000D01*
X138173000Y-126579750D01*
X138171070Y-128466600D01*
X138128582Y-128466600D01*
X138128582Y-123600000D01*
X138170934Y-123600000D01*
X138173000Y-125620250D01*
X138279750Y-125727000D01*
X139727000Y-125727000D01*
X139727000Y-123279750D01*
X140473000Y-123279750D01*
X140473000Y-125727000D01*
X141920250Y-125727000D01*
X142027000Y-125620250D01*
X142029066Y-123600000D01*
X142020822Y-123516293D01*
X141996405Y-123435804D01*
X141956755Y-123361624D01*
X141903395Y-123296605D01*
X141838376Y-123243245D01*
X141764196Y-123203595D01*
X141683707Y-123179178D01*
X141600000Y-123170934D01*
X140579750Y-123173000D01*
X140473000Y-123279750D01*
X139727000Y-123279750D01*
X139620250Y-123173000D01*
X138600000Y-123170934D01*
X138516293Y-123179178D01*
X138435804Y-123203595D01*
X138361624Y-123243245D01*
X138296605Y-123296605D01*
X138243245Y-123361624D01*
X138203595Y-123435804D01*
X138179178Y-123516293D01*
X138170934Y-123600000D01*
X138128582Y-123600000D01*
X138122268Y-123535897D01*
X138103570Y-123474257D01*
X138073206Y-123417450D01*
X138032343Y-123367657D01*
X137982550Y-123326794D01*
X137925743Y-123296430D01*
X137864103Y-123277732D01*
X137800000Y-123271418D01*
X134800000Y-123271418D01*
X134735897Y-123277732D01*
X134674257Y-123296430D01*
X134617450Y-123326794D01*
X134567657Y-123367657D01*
X134526794Y-123417450D01*
X134509451Y-123449897D01*
X131823221Y-120763668D01*
X131823582Y-120760000D01*
X131823582Y-118260000D01*
X131817268Y-118195897D01*
X131798570Y-118134257D01*
X131768206Y-118077450D01*
X131727343Y-118027657D01*
X131677550Y-117986794D01*
X131620743Y-117956430D01*
X131559103Y-117937732D01*
X131495000Y-117931418D01*
X128105000Y-117931418D01*
X128040897Y-117937732D01*
X127979257Y-117956430D01*
X127922450Y-117986794D01*
X127872657Y-118027657D01*
X127831794Y-118077450D01*
X127801430Y-118134257D01*
X127782732Y-118195897D01*
X127776418Y-118260000D01*
X127776418Y-120760000D01*
X127782732Y-120824103D01*
X127801430Y-120885743D01*
X127831794Y-120942550D01*
X127872657Y-120992343D01*
X127922450Y-121033206D01*
X127979257Y-121063570D01*
X128040897Y-121082268D01*
X128105000Y-121088582D01*
X129809029Y-121088582D01*
X134471418Y-125750972D01*
X134471418Y-128466600D01*
X128822576Y-128466600D01*
X128941281Y-128442988D01*
X129528558Y-128199730D01*
X130057093Y-127846575D01*
X130506575Y-127397093D01*
X130859730Y-126868558D01*
X131102988Y-126281281D01*
X131227000Y-125657832D01*
X131227000Y-125022168D01*
X131102988Y-124398719D01*
X130859730Y-123811442D01*
X130506575Y-123282907D01*
X130057093Y-122833425D01*
X129528558Y-122480270D01*
X128941281Y-122237012D01*
X128317832Y-122113000D01*
X127682168Y-122113000D01*
X127058719Y-122237012D01*
X126471442Y-122480270D01*
X125942907Y-122833425D01*
X125493425Y-123282907D01*
X125140270Y-123811442D01*
X124897012Y-124398719D01*
X124773000Y-125022168D01*
X124773000Y-125657832D01*
X124897012Y-126281281D01*
X125140270Y-126868558D01*
X125493425Y-127397093D01*
X125942907Y-127846575D01*
X126471442Y-128199730D01*
X126852334Y-128357501D01*
X126529002Y-128300460D01*
X125724959Y-127836041D01*
X125130516Y-127127400D01*
X124808748Y-126243283D01*
X124769906Y-125799487D01*
X124770323Y-125795204D01*
X124768527Y-125777162D01*
X124768554Y-125759032D01*
X124768100Y-125756731D01*
X124768100Y-111440000D01*
X127776418Y-111440000D01*
X127776418Y-113940000D01*
X127782732Y-114004103D01*
X127801430Y-114065743D01*
X127831794Y-114122550D01*
X127872657Y-114172343D01*
X127922450Y-114213206D01*
X127979257Y-114243570D01*
X128040897Y-114262268D01*
X128105000Y-114268582D01*
X131495000Y-114268582D01*
X131559103Y-114262268D01*
X131620743Y-114243570D01*
X131677550Y-114213206D01*
X131727343Y-114172343D01*
X131768206Y-114122550D01*
X131798570Y-114065743D01*
X131817268Y-114004103D01*
X131823582Y-113940000D01*
X131823582Y-113517000D01*
X134321418Y-113517000D01*
X134321418Y-113640000D01*
X134327732Y-113704103D01*
X134346430Y-113765743D01*
X134376794Y-113822550D01*
X134417657Y-113872343D01*
X134467450Y-113913206D01*
X134524257Y-113943570D01*
X134585897Y-113962268D01*
X134650000Y-113968582D01*
X138150000Y-113968582D01*
X138214103Y-113962268D01*
X138275743Y-113943570D01*
X138332550Y-113913206D01*
X138382343Y-113872343D01*
X138423206Y-113822550D01*
X138453570Y-113765743D01*
X138472268Y-113704103D01*
X138478582Y-113640000D01*
X138478582Y-112040000D01*
X138472268Y-111975897D01*
X138453570Y-111914257D01*
X138423206Y-111857450D01*
X138382343Y-111807657D01*
X138332550Y-111766794D01*
X138275743Y-111736430D01*
X138214103Y-111717732D01*
X138150000Y-111711418D01*
X134650000Y-111711418D01*
X134585897Y-111717732D01*
X134524257Y-111736430D01*
X134467450Y-111766794D01*
X134417657Y-111807657D01*
X134376794Y-111857450D01*
X134373827Y-111863000D01*
X131823582Y-111863000D01*
X131823582Y-111440000D01*
X131817268Y-111375897D01*
X131798570Y-111314257D01*
X131768206Y-111257450D01*
X131727343Y-111207657D01*
X131677550Y-111166794D01*
X131620743Y-111136430D01*
X131559103Y-111117732D01*
X131495000Y-111111418D01*
X128105000Y-111111418D01*
X128040897Y-111117732D01*
X127979257Y-111136430D01*
X127922450Y-111166794D01*
X127872657Y-111207657D01*
X127831794Y-111257450D01*
X127801430Y-111314257D01*
X127782732Y-111375897D01*
X127776418Y-111440000D01*
X124768100Y-111440000D01*
X124768100Y-110322415D01*
X124813470Y-110065089D01*
X124929492Y-109864173D01*
X125107238Y-109715083D01*
X125338441Y-109630854D01*
X125435184Y-109622403D01*
X125439496Y-109622823D01*
X125457538Y-109621027D01*
X125475668Y-109621054D01*
X125477969Y-109620600D01*
X128437066Y-109620600D01*
X128453428Y-109620782D01*
X128455513Y-109620600D01*
X128457619Y-109620600D01*
X128473999Y-109618987D01*
X128630739Y-109605308D01*
X128661665Y-109603624D01*
X128685671Y-109597476D01*
X128710027Y-109592912D01*
X128738763Y-109581382D01*
X129020032Y-109479061D01*
X129030390Y-109476872D01*
X129054866Y-109466389D01*
X129062385Y-109463654D01*
X129071864Y-109459109D01*
X129098655Y-109447635D01*
X129105305Y-109443076D01*
X129112569Y-109439593D01*
X129135868Y-109422122D01*
X129144557Y-109416165D01*
X129150692Y-109411006D01*
X129171983Y-109395041D01*
X129179048Y-109387162D01*
X129390024Y-109209759D01*
X129398582Y-109204442D01*
X129418383Y-109185912D01*
X129424905Y-109180428D01*
X129431909Y-109173255D01*
X129452805Y-109153700D01*
X129457797Y-109146739D01*
X129463785Y-109140607D01*
X129479414Y-109116601D01*
X129485242Y-109108476D01*
X129489493Y-109101121D01*
X129504303Y-109078373D01*
X129508050Y-109069011D01*
X129646163Y-108830035D01*
X129652614Y-108821814D01*
X129664696Y-108797968D01*
X129668775Y-108790910D01*
X129673076Y-108781428D01*
X129686178Y-108755569D01*
X129688382Y-108747687D01*
X129691766Y-108740226D01*
X129698367Y-108711970D01*
X129701163Y-108701971D01*
X129702574Y-108693965D01*
X129708661Y-108667911D01*
X129709008Y-108657460D01*
X129758444Y-108376954D01*
X129762645Y-108363105D01*
X129764875Y-108340466D01*
X129765592Y-108336396D01*
X129766688Y-108322056D01*
X129768100Y-108307719D01*
X129768100Y-108303580D01*
X129769833Y-108280904D01*
X129768100Y-108266541D01*
X129768100Y-101783780D01*
X129799047Y-101841678D01*
X129876497Y-101936050D01*
X129902394Y-101967605D01*
X129933946Y-101993499D01*
X131296503Y-103356058D01*
X131322394Y-103387606D01*
X131353941Y-103413496D01*
X131353948Y-103413503D01*
X131448320Y-103490952D01*
X131525113Y-103531998D01*
X131591990Y-103567745D01*
X131747880Y-103615034D01*
X131869376Y-103627000D01*
X131869386Y-103627000D01*
X131910000Y-103631000D01*
X131950614Y-103627000D01*
X132073000Y-103627000D01*
X132073000Y-105200000D01*
X132075440Y-105224776D01*
X132082667Y-105248601D01*
X132094403Y-105270557D01*
X132110197Y-105289803D01*
X132129443Y-105305597D01*
X132151399Y-105317333D01*
X132175224Y-105324560D01*
X132200000Y-105327000D01*
X135573001Y-105327000D01*
X135573000Y-106831418D01*
X134650000Y-106831418D01*
X134585897Y-106837732D01*
X134524257Y-106856430D01*
X134467450Y-106886794D01*
X134417657Y-106927657D01*
X134376794Y-106977450D01*
X134346430Y-107034257D01*
X134327732Y-107095897D01*
X134321418Y-107160000D01*
X134321418Y-108760000D01*
X134327732Y-108824103D01*
X134346430Y-108885743D01*
X134376794Y-108942550D01*
X134417657Y-108992343D01*
X134467450Y-109033206D01*
X134524257Y-109063570D01*
X134585897Y-109082268D01*
X134650000Y-109088582D01*
X138150000Y-109088582D01*
X138214103Y-109082268D01*
X138275743Y-109063570D01*
X138332550Y-109033206D01*
X138382343Y-108992343D01*
X138423206Y-108942550D01*
X138453570Y-108885743D01*
X138472268Y-108824103D01*
X138478582Y-108760000D01*
X138478582Y-107160000D01*
X138472268Y-107095897D01*
X138453570Y-107034257D01*
X138423206Y-106977450D01*
X138382343Y-106927657D01*
X138332550Y-106886794D01*
X138275743Y-106856430D01*
X138214103Y-106837732D01*
X138150000Y-106831418D01*
X137227000Y-106831418D01*
X137227000Y-105327000D01*
X139300000Y-105327000D01*
X139324776Y-105324560D01*
X139348601Y-105317333D01*
X139370557Y-105305597D01*
X139389803Y-105289803D01*
X139405597Y-105270557D01*
X139417333Y-105248601D01*
X139424560Y-105224776D01*
X139427000Y-105199888D01*
X139426067Y-104138069D01*
X139478320Y-104180952D01*
X139513957Y-104200000D01*
X139621990Y-104257745D01*
X139777880Y-104305034D01*
X139899376Y-104317000D01*
X139899386Y-104317000D01*
X139940000Y-104321000D01*
X139980614Y-104317000D01*
X142399386Y-104317000D01*
X142440000Y-104321000D01*
X142480614Y-104317000D01*
X142480624Y-104317000D01*
X142602120Y-104305034D01*
X142758010Y-104257745D01*
X142901679Y-104180952D01*
X143027606Y-104077606D01*
X143053505Y-104046048D01*
X144071058Y-103028497D01*
X144102606Y-103002606D01*
X144128496Y-102971059D01*
X144128503Y-102971052D01*
X144205952Y-102876680D01*
X144237006Y-102818582D01*
X144690000Y-102818582D01*
X144754103Y-102812268D01*
X144815743Y-102793570D01*
X144872550Y-102763206D01*
X144922343Y-102722343D01*
X144963206Y-102672550D01*
X144993570Y-102615743D01*
X145012268Y-102554103D01*
X145018582Y-102490000D01*
X145018582Y-99090000D01*
X145012268Y-99025897D01*
X144993570Y-98964257D01*
X144963206Y-98907450D01*
X144922343Y-98857657D01*
X144872550Y-98816794D01*
X144815743Y-98786430D01*
X144754103Y-98767732D01*
X144690000Y-98761418D01*
X142340000Y-98761418D01*
X142275897Y-98767732D01*
X142214257Y-98786430D01*
X142157450Y-98816794D01*
X142107657Y-98857657D01*
X142066794Y-98907450D01*
X142036430Y-98964257D01*
X142017732Y-99025897D01*
X142011418Y-99090000D01*
X142011418Y-102490000D01*
X142017732Y-102554103D01*
X142036430Y-102615743D01*
X142061689Y-102663000D01*
X140282554Y-102663000D01*
X140217000Y-102597446D01*
X140217000Y-102583925D01*
X140175611Y-102375851D01*
X140094425Y-102179849D01*
X139976560Y-102003453D01*
X139826547Y-101853440D01*
X139650151Y-101735575D01*
X139573447Y-101703803D01*
X139667000Y-101610250D01*
X139667000Y-100863000D01*
X140413000Y-100863000D01*
X140413000Y-101610250D01*
X140519750Y-101717000D01*
X140540000Y-101719066D01*
X140623707Y-101710822D01*
X140704196Y-101686405D01*
X140778376Y-101646755D01*
X140843395Y-101593395D01*
X140896755Y-101528376D01*
X140936405Y-101454196D01*
X140960822Y-101373707D01*
X140969066Y-101290000D01*
X140967000Y-100969750D01*
X140860250Y-100863000D01*
X140413000Y-100863000D01*
X139667000Y-100863000D01*
X139647000Y-100863000D01*
X139647000Y-100117000D01*
X139667000Y-100117000D01*
X139667000Y-99369750D01*
X140413000Y-99369750D01*
X140413000Y-100117000D01*
X140860250Y-100117000D01*
X140967000Y-100010250D01*
X140969066Y-99690000D01*
X140960822Y-99606293D01*
X140936405Y-99525804D01*
X140896755Y-99451624D01*
X140843395Y-99386605D01*
X140778376Y-99333245D01*
X140704196Y-99293595D01*
X140623707Y-99269178D01*
X140540000Y-99260934D01*
X140519750Y-99263000D01*
X140413000Y-99369750D01*
X139667000Y-99369750D01*
X139560250Y-99263000D01*
X139540000Y-99260934D01*
X139456293Y-99269178D01*
X139421798Y-99279642D01*
X139421552Y-99000283D01*
X139456293Y-99010822D01*
X139540000Y-99019066D01*
X139560250Y-99017000D01*
X139667000Y-98910250D01*
X139667000Y-98163000D01*
X140413000Y-98163000D01*
X140413000Y-98910250D01*
X140519750Y-99017000D01*
X140540000Y-99019066D01*
X140623707Y-99010822D01*
X140704196Y-98986405D01*
X140778376Y-98946755D01*
X140843395Y-98893395D01*
X140896755Y-98828376D01*
X140936405Y-98754196D01*
X140960822Y-98673707D01*
X140969066Y-98590000D01*
X140967000Y-98269750D01*
X140860250Y-98163000D01*
X140413000Y-98163000D01*
X139667000Y-98163000D01*
X139647000Y-98163000D01*
X139647000Y-97417000D01*
X139667000Y-97417000D01*
X139667000Y-96669750D01*
X140413000Y-96669750D01*
X140413000Y-97417000D01*
X140860250Y-97417000D01*
X140967000Y-97310250D01*
X140969066Y-96990000D01*
X140960822Y-96906293D01*
X140936405Y-96825804D01*
X140896755Y-96751624D01*
X140843395Y-96686605D01*
X140778376Y-96633245D01*
X140704196Y-96593595D01*
X140623707Y-96569178D01*
X140540000Y-96560934D01*
X140519750Y-96563000D01*
X140413000Y-96669750D01*
X139667000Y-96669750D01*
X139560250Y-96563000D01*
X139540000Y-96560934D01*
X139456293Y-96569178D01*
X139419426Y-96580362D01*
X139419219Y-96345050D01*
X139460000Y-96349066D01*
X139480250Y-96347000D01*
X139587000Y-96240250D01*
X139587000Y-95493000D01*
X139943000Y-95493000D01*
X139943000Y-96240250D01*
X140049750Y-96347000D01*
X140070000Y-96349066D01*
X140153707Y-96340822D01*
X140234196Y-96316405D01*
X140283596Y-96290000D01*
X143610934Y-96290000D01*
X143619178Y-96373707D01*
X143643595Y-96454196D01*
X143683245Y-96528376D01*
X143736605Y-96593395D01*
X143801624Y-96646755D01*
X143875804Y-96686405D01*
X143956293Y-96710822D01*
X144040000Y-96719066D01*
X144060250Y-96717000D01*
X144167000Y-96610250D01*
X144167000Y-95863000D01*
X144913000Y-95863000D01*
X144913000Y-96610250D01*
X145019750Y-96717000D01*
X145040000Y-96719066D01*
X145123707Y-96710822D01*
X145204196Y-96686405D01*
X145278376Y-96646755D01*
X145343395Y-96593395D01*
X145396755Y-96528376D01*
X145436405Y-96454196D01*
X145460822Y-96373707D01*
X145469066Y-96290000D01*
X145467000Y-95969750D01*
X145360250Y-95863000D01*
X144913000Y-95863000D01*
X144167000Y-95863000D01*
X143719750Y-95863000D01*
X143613000Y-95969750D01*
X143610934Y-96290000D01*
X140283596Y-96290000D01*
X140308376Y-96276755D01*
X140373395Y-96223395D01*
X140426755Y-96158376D01*
X140466405Y-96084196D01*
X140490822Y-96003707D01*
X140499066Y-95920000D01*
X140497000Y-95599750D01*
X140390250Y-95493000D01*
X139943000Y-95493000D01*
X139587000Y-95493000D01*
X139460000Y-95493000D01*
X139460000Y-94747000D01*
X139587000Y-94747000D01*
X139587000Y-93999750D01*
X139943000Y-93999750D01*
X139943000Y-94747000D01*
X140390250Y-94747000D01*
X140447250Y-94690000D01*
X143610934Y-94690000D01*
X143613000Y-95010250D01*
X143719750Y-95117000D01*
X144167000Y-95117000D01*
X144167000Y-94369750D01*
X144913000Y-94369750D01*
X144913000Y-95117000D01*
X145360250Y-95117000D01*
X145467000Y-95010250D01*
X145469066Y-94690000D01*
X145460822Y-94606293D01*
X145436405Y-94525804D01*
X145396755Y-94451624D01*
X145343395Y-94386605D01*
X145278376Y-94333245D01*
X145204196Y-94293595D01*
X145123707Y-94269178D01*
X145040000Y-94260934D01*
X145019750Y-94263000D01*
X144913000Y-94369750D01*
X144167000Y-94369750D01*
X144060250Y-94263000D01*
X144040000Y-94260934D01*
X143956293Y-94269178D01*
X143875804Y-94293595D01*
X143801624Y-94333245D01*
X143736605Y-94386605D01*
X143683245Y-94451624D01*
X143643595Y-94525804D01*
X143619178Y-94606293D01*
X143610934Y-94690000D01*
X140447250Y-94690000D01*
X140497000Y-94640250D01*
X140499066Y-94320000D01*
X140490822Y-94236293D01*
X140466405Y-94155804D01*
X140426755Y-94081624D01*
X140373395Y-94016605D01*
X140308376Y-93963245D01*
X140234196Y-93923595D01*
X140153707Y-93899178D01*
X140070000Y-93890934D01*
X140049750Y-93893000D01*
X139943000Y-93999750D01*
X139587000Y-93999750D01*
X139480250Y-93893000D01*
X139460000Y-93890934D01*
X139417066Y-93895162D01*
X139417034Y-93858745D01*
X139615000Y-93859066D01*
X139698707Y-93850822D01*
X139779196Y-93826405D01*
X139853376Y-93786755D01*
X139918395Y-93733395D01*
X139971755Y-93668376D01*
X140011405Y-93594196D01*
X140035822Y-93513707D01*
X140044066Y-93430000D01*
X140042000Y-92599750D01*
X139935250Y-92493000D01*
X138233000Y-92493000D01*
X138233000Y-92513000D01*
X137487000Y-92513000D01*
X137487000Y-92493000D01*
X135784750Y-92493000D01*
X135678000Y-92599750D01*
X135675934Y-93430000D01*
X135684178Y-93513707D01*
X135708595Y-93594196D01*
X135748245Y-93668376D01*
X135762599Y-93685866D01*
X132200257Y-93678662D01*
X132175475Y-93681052D01*
X132151637Y-93688231D01*
X132129656Y-93699923D01*
X132110379Y-93715678D01*
X132094546Y-93734891D01*
X132082766Y-93756824D01*
X132075491Y-93780634D01*
X132073000Y-93805662D01*
X132073000Y-96518356D01*
X132046075Y-96513000D01*
X131833925Y-96513000D01*
X131625851Y-96554389D01*
X131429849Y-96635575D01*
X131316999Y-96710980D01*
X131316999Y-93788556D01*
X134046053Y-91059503D01*
X134077606Y-91033608D01*
X134125732Y-90974967D01*
X134180952Y-90907682D01*
X134257744Y-90764013D01*
X134257745Y-90764012D01*
X134305034Y-90608122D01*
X134313409Y-90523085D01*
X134320761Y-90527066D01*
X134344546Y-90534423D01*
X134370186Y-90537000D01*
X135778352Y-90534938D01*
X135748245Y-90571624D01*
X135708595Y-90645804D01*
X135684178Y-90726293D01*
X135675934Y-90810000D01*
X135678000Y-91640250D01*
X135784750Y-91747000D01*
X137487000Y-91747000D01*
X137487000Y-91727000D01*
X138233000Y-91727000D01*
X138233000Y-91747000D01*
X139935250Y-91747000D01*
X140042000Y-91640250D01*
X140044066Y-90810000D01*
X140035822Y-90726293D01*
X140011405Y-90645804D01*
X139971755Y-90571624D01*
X139936651Y-90528850D01*
X141073000Y-90527186D01*
X141073000Y-93500000D01*
X141075440Y-93524776D01*
X141082667Y-93548601D01*
X141094403Y-93570557D01*
X141110197Y-93589803D01*
X141129443Y-93605597D01*
X141151399Y-93617333D01*
X141175224Y-93624560D01*
X141200262Y-93627000D01*
X145913000Y-93617263D01*
X145913000Y-103190000D01*
X145915440Y-103214776D01*
X145922667Y-103238601D01*
X145934403Y-103260557D01*
X145950197Y-103279803D01*
X145969443Y-103295597D01*
X145991399Y-103307333D01*
X146015224Y-103314560D01*
X146040000Y-103317000D01*
X151340000Y-103317000D01*
X151364776Y-103314560D01*
X151388601Y-103307333D01*
X151410557Y-103295597D01*
X151429803Y-103279803D01*
X151445597Y-103260557D01*
X151457333Y-103238601D01*
X151464560Y-103214776D01*
X151467000Y-103190000D01*
X151467000Y-90490000D01*
X151464560Y-90465224D01*
X151457333Y-90441399D01*
X151445597Y-90419443D01*
X151429803Y-90400197D01*
X151410557Y-90384403D01*
X151388601Y-90372667D01*
X151364776Y-90365440D01*
X151340000Y-90363000D01*
X150887000Y-90363000D01*
X150887000Y-84655705D01*
X150890517Y-84619999D01*
X150881313Y-84526553D01*
X150876480Y-84477483D01*
X150834910Y-84340443D01*
X150767403Y-84214147D01*
X150676554Y-84103446D01*
X150648812Y-84080679D01*
X148979326Y-82411194D01*
X148956554Y-82383446D01*
X148845853Y-82292597D01*
X148719557Y-82225090D01*
X148582517Y-82183520D01*
X148475708Y-82173000D01*
X148440000Y-82169483D01*
X148404292Y-82173000D01*
X129965134Y-82173000D01*
X130121134Y-82017000D01*
X130276075Y-82017000D01*
X130484149Y-81975611D01*
X130680151Y-81894425D01*
X130856547Y-81776560D01*
X131006560Y-81626547D01*
X131124425Y-81450151D01*
X131205611Y-81254149D01*
X131247000Y-81046075D01*
X131247000Y-80833925D01*
X131205611Y-80625851D01*
X131124425Y-80429849D01*
X131006560Y-80253453D01*
X130856547Y-80103440D01*
X130680151Y-79985575D01*
X130484149Y-79904389D01*
X130276075Y-79863000D01*
X130063925Y-79863000D01*
X129855851Y-79904389D01*
X129659849Y-79985575D01*
X129483453Y-80103440D01*
X129333440Y-80253453D01*
X129215575Y-80429849D01*
X129134389Y-80625851D01*
X129093000Y-80833925D01*
X129093000Y-80988866D01*
X127710449Y-82371418D01*
X124768100Y-82371418D01*
X124768100Y-76743745D01*
X124877012Y-77291281D01*
X125120270Y-77878558D01*
X125473425Y-78407093D01*
X125922907Y-78856575D01*
X126451442Y-79209730D01*
X127038719Y-79452988D01*
X127662168Y-79577000D01*
X128297832Y-79577000D01*
X128921281Y-79452988D01*
X129508558Y-79209730D01*
X130037093Y-78856575D01*
X130486575Y-78407093D01*
X130839730Y-77878558D01*
X131082988Y-77291281D01*
X131207000Y-76667832D01*
X131207000Y-76032168D01*
X131082988Y-75408719D01*
X130905515Y-74980261D01*
X131980400Y-74980261D01*
X131980400Y-75139739D01*
X132011513Y-75296152D01*
X132072542Y-75443489D01*
X132161143Y-75576090D01*
X132273910Y-75688857D01*
X132406511Y-75777458D01*
X132553848Y-75838487D01*
X132710261Y-75869600D01*
X132869739Y-75869600D01*
X132940331Y-75855558D01*
X132890730Y-75975306D01*
X132844000Y-76210234D01*
X132844000Y-76449766D01*
X132890730Y-76684694D01*
X132940331Y-76804442D01*
X132869739Y-76790400D01*
X132710261Y-76790400D01*
X132553848Y-76821513D01*
X132406511Y-76882542D01*
X132273910Y-76971143D01*
X132161143Y-77083910D01*
X132072542Y-77216511D01*
X132011513Y-77363848D01*
X131980400Y-77520261D01*
X131980400Y-77679739D01*
X132011513Y-77836152D01*
X132072542Y-77983489D01*
X132161143Y-78116090D01*
X132273910Y-78228857D01*
X132406511Y-78317458D01*
X132553848Y-78378487D01*
X132710261Y-78409600D01*
X132869739Y-78409600D01*
X133026152Y-78378487D01*
X133173489Y-78317458D01*
X133306090Y-78228857D01*
X133418857Y-78116090D01*
X133507458Y-77983489D01*
X133568487Y-77836152D01*
X133599600Y-77679739D01*
X133599600Y-77520261D01*
X133585558Y-77449669D01*
X133705306Y-77499270D01*
X133940234Y-77546000D01*
X134179766Y-77546000D01*
X134414694Y-77499270D01*
X134534442Y-77449669D01*
X134520400Y-77520261D01*
X134520400Y-77679739D01*
X134551513Y-77836152D01*
X134612542Y-77983489D01*
X134701143Y-78116090D01*
X134813910Y-78228857D01*
X134946511Y-78317458D01*
X135093848Y-78378487D01*
X135250261Y-78409600D01*
X135409739Y-78409600D01*
X135566152Y-78378487D01*
X135713489Y-78317458D01*
X135846090Y-78228857D01*
X135958857Y-78116090D01*
X136047458Y-77983489D01*
X136108487Y-77836152D01*
X136139600Y-77679739D01*
X136139600Y-77520261D01*
X137060400Y-77520261D01*
X137060400Y-77679739D01*
X137091513Y-77836152D01*
X137152542Y-77983489D01*
X137241143Y-78116090D01*
X137353910Y-78228857D01*
X137486511Y-78317458D01*
X137633848Y-78378487D01*
X137790261Y-78409600D01*
X137949739Y-78409600D01*
X138106152Y-78378487D01*
X138253489Y-78317458D01*
X138386090Y-78228857D01*
X138498857Y-78116090D01*
X138587458Y-77983489D01*
X138648487Y-77836152D01*
X138679600Y-77679739D01*
X138679600Y-77520261D01*
X139600400Y-77520261D01*
X139600400Y-77679739D01*
X139631513Y-77836152D01*
X139692542Y-77983489D01*
X139781143Y-78116090D01*
X139893910Y-78228857D01*
X140026511Y-78317458D01*
X140173848Y-78378487D01*
X140330261Y-78409600D01*
X140489739Y-78409600D01*
X140646152Y-78378487D01*
X140793489Y-78317458D01*
X140926090Y-78228857D01*
X141038857Y-78116090D01*
X141127458Y-77983489D01*
X141188487Y-77836152D01*
X141219600Y-77679739D01*
X141219600Y-77520261D01*
X142140400Y-77520261D01*
X142140400Y-77679739D01*
X142171513Y-77836152D01*
X142232542Y-77983489D01*
X142321143Y-78116090D01*
X142433910Y-78228857D01*
X142566511Y-78317458D01*
X142713848Y-78378487D01*
X142870261Y-78409600D01*
X143029739Y-78409600D01*
X143186152Y-78378487D01*
X143333489Y-78317458D01*
X143466090Y-78228857D01*
X143578857Y-78116090D01*
X143667458Y-77983489D01*
X143728487Y-77836152D01*
X143759600Y-77679739D01*
X143759600Y-77520261D01*
X144680400Y-77520261D01*
X144680400Y-77679739D01*
X144711513Y-77836152D01*
X144772542Y-77983489D01*
X144861143Y-78116090D01*
X144973910Y-78228857D01*
X145106511Y-78317458D01*
X145253848Y-78378487D01*
X145410261Y-78409600D01*
X145569739Y-78409600D01*
X145726152Y-78378487D01*
X145873489Y-78317458D01*
X146006090Y-78228857D01*
X146118857Y-78116090D01*
X146207458Y-77983489D01*
X146268487Y-77836152D01*
X146299600Y-77679739D01*
X146299600Y-77520261D01*
X147220400Y-77520261D01*
X147220400Y-77679739D01*
X147251513Y-77836152D01*
X147312542Y-77983489D01*
X147401143Y-78116090D01*
X147513910Y-78228857D01*
X147646511Y-78317458D01*
X147793848Y-78378487D01*
X147950261Y-78409600D01*
X148109739Y-78409600D01*
X148266152Y-78378487D01*
X148413489Y-78317458D01*
X148546090Y-78228857D01*
X148658857Y-78116090D01*
X148747458Y-77983489D01*
X148808487Y-77836152D01*
X148839600Y-77679739D01*
X148839600Y-77520261D01*
X149760400Y-77520261D01*
X149760400Y-77679739D01*
X149791513Y-77836152D01*
X149852542Y-77983489D01*
X149941143Y-78116090D01*
X150053910Y-78228857D01*
X150186511Y-78317458D01*
X150333848Y-78378487D01*
X150490261Y-78409600D01*
X150649739Y-78409600D01*
X150806152Y-78378487D01*
X150953489Y-78317458D01*
X151086090Y-78228857D01*
X151198857Y-78116090D01*
X151287458Y-77983489D01*
X151348487Y-77836152D01*
X151379600Y-77679739D01*
X151379600Y-77520261D01*
X152300400Y-77520261D01*
X152300400Y-77679739D01*
X152331513Y-77836152D01*
X152392542Y-77983489D01*
X152481143Y-78116090D01*
X152593910Y-78228857D01*
X152726511Y-78317458D01*
X152873848Y-78378487D01*
X153030261Y-78409600D01*
X153189739Y-78409600D01*
X153346152Y-78378487D01*
X153493489Y-78317458D01*
X153626090Y-78228857D01*
X153738857Y-78116090D01*
X153827458Y-77983489D01*
X153888487Y-77836152D01*
X153919600Y-77679739D01*
X153919600Y-77520261D01*
X154840400Y-77520261D01*
X154840400Y-77679739D01*
X154871513Y-77836152D01*
X154932542Y-77983489D01*
X155021143Y-78116090D01*
X155133910Y-78228857D01*
X155266511Y-78317458D01*
X155413848Y-78378487D01*
X155570261Y-78409600D01*
X155729739Y-78409600D01*
X155886152Y-78378487D01*
X156033489Y-78317458D01*
X156166090Y-78228857D01*
X156278857Y-78116090D01*
X156367458Y-77983489D01*
X156428487Y-77836152D01*
X156459600Y-77679739D01*
X156459600Y-77520261D01*
X157380400Y-77520261D01*
X157380400Y-77679739D01*
X157411513Y-77836152D01*
X157472542Y-77983489D01*
X157561143Y-78116090D01*
X157673910Y-78228857D01*
X157806511Y-78317458D01*
X157953848Y-78378487D01*
X158110261Y-78409600D01*
X158269739Y-78409600D01*
X158426152Y-78378487D01*
X158573489Y-78317458D01*
X158706090Y-78228857D01*
X158818857Y-78116090D01*
X158907458Y-77983489D01*
X158968487Y-77836152D01*
X158999600Y-77679739D01*
X158999600Y-77520261D01*
X159920400Y-77520261D01*
X159920400Y-77679739D01*
X159951513Y-77836152D01*
X160012542Y-77983489D01*
X160101143Y-78116090D01*
X160213910Y-78228857D01*
X160346511Y-78317458D01*
X160493848Y-78378487D01*
X160650261Y-78409600D01*
X160809739Y-78409600D01*
X160966152Y-78378487D01*
X161113489Y-78317458D01*
X161246090Y-78228857D01*
X161358857Y-78116090D01*
X161447458Y-77983489D01*
X161508487Y-77836152D01*
X161539600Y-77679739D01*
X161539600Y-77520261D01*
X162460400Y-77520261D01*
X162460400Y-77679739D01*
X162491513Y-77836152D01*
X162552542Y-77983489D01*
X162641143Y-78116090D01*
X162753910Y-78228857D01*
X162886511Y-78317458D01*
X163033848Y-78378487D01*
X163190261Y-78409600D01*
X163349739Y-78409600D01*
X163506152Y-78378487D01*
X163653489Y-78317458D01*
X163786090Y-78228857D01*
X163898857Y-78116090D01*
X163987458Y-77983489D01*
X164048487Y-77836152D01*
X164079600Y-77679739D01*
X164079600Y-77520261D01*
X165000400Y-77520261D01*
X165000400Y-77679739D01*
X165031513Y-77836152D01*
X165092542Y-77983489D01*
X165181143Y-78116090D01*
X165293910Y-78228857D01*
X165426511Y-78317458D01*
X165573848Y-78378487D01*
X165730261Y-78409600D01*
X165889739Y-78409600D01*
X166046152Y-78378487D01*
X166193489Y-78317458D01*
X166326090Y-78228857D01*
X166438857Y-78116090D01*
X166527458Y-77983489D01*
X166588487Y-77836152D01*
X166619600Y-77679739D01*
X166619600Y-77520261D01*
X167540400Y-77520261D01*
X167540400Y-77679739D01*
X167571513Y-77836152D01*
X167632542Y-77983489D01*
X167721143Y-78116090D01*
X167833910Y-78228857D01*
X167966511Y-78317458D01*
X168113848Y-78378487D01*
X168270261Y-78409600D01*
X168429739Y-78409600D01*
X168586152Y-78378487D01*
X168733489Y-78317458D01*
X168866090Y-78228857D01*
X168978857Y-78116090D01*
X169067458Y-77983489D01*
X169128487Y-77836152D01*
X169159600Y-77679739D01*
X169159600Y-77520261D01*
X170080400Y-77520261D01*
X170080400Y-77679739D01*
X170111513Y-77836152D01*
X170172542Y-77983489D01*
X170261143Y-78116090D01*
X170373910Y-78228857D01*
X170506511Y-78317458D01*
X170653848Y-78378487D01*
X170810261Y-78409600D01*
X170969739Y-78409600D01*
X171126152Y-78378487D01*
X171273489Y-78317458D01*
X171406090Y-78228857D01*
X171518857Y-78116090D01*
X171607458Y-77983489D01*
X171668487Y-77836152D01*
X171699600Y-77679739D01*
X171699600Y-77520261D01*
X172620400Y-77520261D01*
X172620400Y-77679739D01*
X172651513Y-77836152D01*
X172712542Y-77983489D01*
X172801143Y-78116090D01*
X172913910Y-78228857D01*
X173046511Y-78317458D01*
X173193848Y-78378487D01*
X173350261Y-78409600D01*
X173509739Y-78409600D01*
X173666152Y-78378487D01*
X173813489Y-78317458D01*
X173946090Y-78228857D01*
X174058857Y-78116090D01*
X174147458Y-77983489D01*
X174208487Y-77836152D01*
X174239600Y-77679739D01*
X174239600Y-77520261D01*
X175160400Y-77520261D01*
X175160400Y-77679739D01*
X175191513Y-77836152D01*
X175252542Y-77983489D01*
X175341143Y-78116090D01*
X175453910Y-78228857D01*
X175586511Y-78317458D01*
X175733848Y-78378487D01*
X175890261Y-78409600D01*
X176049739Y-78409600D01*
X176206152Y-78378487D01*
X176353489Y-78317458D01*
X176486090Y-78228857D01*
X176598857Y-78116090D01*
X176687458Y-77983489D01*
X176748487Y-77836152D01*
X176779600Y-77679739D01*
X176779600Y-77520261D01*
X176748487Y-77363848D01*
X176687458Y-77216511D01*
X176598857Y-77083910D01*
X176486090Y-76971143D01*
X176353489Y-76882542D01*
X176206152Y-76821513D01*
X176049739Y-76790400D01*
X175890261Y-76790400D01*
X175733848Y-76821513D01*
X175586511Y-76882542D01*
X175453910Y-76971143D01*
X175341143Y-77083910D01*
X175252542Y-77216511D01*
X175191513Y-77363848D01*
X175160400Y-77520261D01*
X174239600Y-77520261D01*
X174208487Y-77363848D01*
X174147458Y-77216511D01*
X174058857Y-77083910D01*
X173946090Y-76971143D01*
X173813489Y-76882542D01*
X173666152Y-76821513D01*
X173509739Y-76790400D01*
X173350261Y-76790400D01*
X173193848Y-76821513D01*
X173046511Y-76882542D01*
X172913910Y-76971143D01*
X172801143Y-77083910D01*
X172712542Y-77216511D01*
X172651513Y-77363848D01*
X172620400Y-77520261D01*
X171699600Y-77520261D01*
X171668487Y-77363848D01*
X171607458Y-77216511D01*
X171518857Y-77083910D01*
X171406090Y-76971143D01*
X171273489Y-76882542D01*
X171126152Y-76821513D01*
X170969739Y-76790400D01*
X170810261Y-76790400D01*
X170653848Y-76821513D01*
X170506511Y-76882542D01*
X170373910Y-76971143D01*
X170261143Y-77083910D01*
X170172542Y-77216511D01*
X170111513Y-77363848D01*
X170080400Y-77520261D01*
X169159600Y-77520261D01*
X169128487Y-77363848D01*
X169067458Y-77216511D01*
X168978857Y-77083910D01*
X168866090Y-76971143D01*
X168733489Y-76882542D01*
X168586152Y-76821513D01*
X168429739Y-76790400D01*
X168270261Y-76790400D01*
X168113848Y-76821513D01*
X167966511Y-76882542D01*
X167833910Y-76971143D01*
X167721143Y-77083910D01*
X167632542Y-77216511D01*
X167571513Y-77363848D01*
X167540400Y-77520261D01*
X166619600Y-77520261D01*
X166588487Y-77363848D01*
X166527458Y-77216511D01*
X166438857Y-77083910D01*
X166326090Y-76971143D01*
X166193489Y-76882542D01*
X166046152Y-76821513D01*
X165889739Y-76790400D01*
X165730261Y-76790400D01*
X165573848Y-76821513D01*
X165426511Y-76882542D01*
X165293910Y-76971143D01*
X165181143Y-77083910D01*
X165092542Y-77216511D01*
X165031513Y-77363848D01*
X165000400Y-77520261D01*
X164079600Y-77520261D01*
X164048487Y-77363848D01*
X163987458Y-77216511D01*
X163898857Y-77083910D01*
X163786090Y-76971143D01*
X163653489Y-76882542D01*
X163506152Y-76821513D01*
X163349739Y-76790400D01*
X163190261Y-76790400D01*
X163033848Y-76821513D01*
X162886511Y-76882542D01*
X162753910Y-76971143D01*
X162641143Y-77083910D01*
X162552542Y-77216511D01*
X162491513Y-77363848D01*
X162460400Y-77520261D01*
X161539600Y-77520261D01*
X161508487Y-77363848D01*
X161447458Y-77216511D01*
X161358857Y-77083910D01*
X161246090Y-76971143D01*
X161113489Y-76882542D01*
X160966152Y-76821513D01*
X160809739Y-76790400D01*
X160650261Y-76790400D01*
X160493848Y-76821513D01*
X160346511Y-76882542D01*
X160213910Y-76971143D01*
X160101143Y-77083910D01*
X160012542Y-77216511D01*
X159951513Y-77363848D01*
X159920400Y-77520261D01*
X158999600Y-77520261D01*
X158968487Y-77363848D01*
X158907458Y-77216511D01*
X158818857Y-77083910D01*
X158706090Y-76971143D01*
X158573489Y-76882542D01*
X158426152Y-76821513D01*
X158269739Y-76790400D01*
X158110261Y-76790400D01*
X157953848Y-76821513D01*
X157806511Y-76882542D01*
X157673910Y-76971143D01*
X157561143Y-77083910D01*
X157472542Y-77216511D01*
X157411513Y-77363848D01*
X157380400Y-77520261D01*
X156459600Y-77520261D01*
X156428487Y-77363848D01*
X156367458Y-77216511D01*
X156278857Y-77083910D01*
X156166090Y-76971143D01*
X156033489Y-76882542D01*
X155886152Y-76821513D01*
X155729739Y-76790400D01*
X155570261Y-76790400D01*
X155413848Y-76821513D01*
X155266511Y-76882542D01*
X155133910Y-76971143D01*
X155021143Y-77083910D01*
X154932542Y-77216511D01*
X154871513Y-77363848D01*
X154840400Y-77520261D01*
X153919600Y-77520261D01*
X153888487Y-77363848D01*
X153827458Y-77216511D01*
X153738857Y-77083910D01*
X153626090Y-76971143D01*
X153493489Y-76882542D01*
X153346152Y-76821513D01*
X153189739Y-76790400D01*
X153030261Y-76790400D01*
X152873848Y-76821513D01*
X152726511Y-76882542D01*
X152593910Y-76971143D01*
X152481143Y-77083910D01*
X152392542Y-77216511D01*
X152331513Y-77363848D01*
X152300400Y-77520261D01*
X151379600Y-77520261D01*
X151348487Y-77363848D01*
X151287458Y-77216511D01*
X151198857Y-77083910D01*
X151086090Y-76971143D01*
X150953489Y-76882542D01*
X150806152Y-76821513D01*
X150649739Y-76790400D01*
X150490261Y-76790400D01*
X150333848Y-76821513D01*
X150186511Y-76882542D01*
X150053910Y-76971143D01*
X149941143Y-77083910D01*
X149852542Y-77216511D01*
X149791513Y-77363848D01*
X149760400Y-77520261D01*
X148839600Y-77520261D01*
X148808487Y-77363848D01*
X148747458Y-77216511D01*
X148658857Y-77083910D01*
X148546090Y-76971143D01*
X148413489Y-76882542D01*
X148266152Y-76821513D01*
X148109739Y-76790400D01*
X147950261Y-76790400D01*
X147793848Y-76821513D01*
X147646511Y-76882542D01*
X147513910Y-76971143D01*
X147401143Y-77083910D01*
X147312542Y-77216511D01*
X147251513Y-77363848D01*
X147220400Y-77520261D01*
X146299600Y-77520261D01*
X146268487Y-77363848D01*
X146207458Y-77216511D01*
X146118857Y-77083910D01*
X146006090Y-76971143D01*
X145873489Y-76882542D01*
X145726152Y-76821513D01*
X145569739Y-76790400D01*
X145410261Y-76790400D01*
X145253848Y-76821513D01*
X145106511Y-76882542D01*
X144973910Y-76971143D01*
X144861143Y-77083910D01*
X144772542Y-77216511D01*
X144711513Y-77363848D01*
X144680400Y-77520261D01*
X143759600Y-77520261D01*
X143728487Y-77363848D01*
X143667458Y-77216511D01*
X143578857Y-77083910D01*
X143466090Y-76971143D01*
X143333489Y-76882542D01*
X143186152Y-76821513D01*
X143029739Y-76790400D01*
X142870261Y-76790400D01*
X142713848Y-76821513D01*
X142566511Y-76882542D01*
X142433910Y-76971143D01*
X142321143Y-77083910D01*
X142232542Y-77216511D01*
X142171513Y-77363848D01*
X142140400Y-77520261D01*
X141219600Y-77520261D01*
X141188487Y-77363848D01*
X141127458Y-77216511D01*
X141038857Y-77083910D01*
X140926090Y-76971143D01*
X140793489Y-76882542D01*
X140646152Y-76821513D01*
X140489739Y-76790400D01*
X140330261Y-76790400D01*
X140173848Y-76821513D01*
X140026511Y-76882542D01*
X139893910Y-76971143D01*
X139781143Y-77083910D01*
X139692542Y-77216511D01*
X139631513Y-77363848D01*
X139600400Y-77520261D01*
X138679600Y-77520261D01*
X138648487Y-77363848D01*
X138587458Y-77216511D01*
X138498857Y-77083910D01*
X138386090Y-76971143D01*
X138253489Y-76882542D01*
X138106152Y-76821513D01*
X137949739Y-76790400D01*
X137790261Y-76790400D01*
X137633848Y-76821513D01*
X137486511Y-76882542D01*
X137353910Y-76971143D01*
X137241143Y-77083910D01*
X137152542Y-77216511D01*
X137091513Y-77363848D01*
X137060400Y-77520261D01*
X136139600Y-77520261D01*
X136108487Y-77363848D01*
X136047458Y-77216511D01*
X135958857Y-77083910D01*
X135846090Y-76971143D01*
X135713489Y-76882542D01*
X135566152Y-76821513D01*
X135409739Y-76790400D01*
X135250261Y-76790400D01*
X135179669Y-76804442D01*
X135229270Y-76684694D01*
X135276000Y-76449766D01*
X135276000Y-76210234D01*
X135229270Y-75975306D01*
X135179669Y-75855558D01*
X135250261Y-75869600D01*
X135409739Y-75869600D01*
X135566152Y-75838487D01*
X135713489Y-75777458D01*
X135846090Y-75688857D01*
X135958857Y-75576090D01*
X136047458Y-75443489D01*
X136108487Y-75296152D01*
X136139600Y-75139739D01*
X136139600Y-74980261D01*
X137060400Y-74980261D01*
X137060400Y-75139739D01*
X137091513Y-75296152D01*
X137152542Y-75443489D01*
X137241143Y-75576090D01*
X137353910Y-75688857D01*
X137486511Y-75777458D01*
X137633848Y-75838487D01*
X137790261Y-75869600D01*
X137949739Y-75869600D01*
X138106152Y-75838487D01*
X138253489Y-75777458D01*
X138386090Y-75688857D01*
X138498857Y-75576090D01*
X138587458Y-75443489D01*
X138648487Y-75296152D01*
X138679600Y-75139739D01*
X138679600Y-74980261D01*
X139600400Y-74980261D01*
X139600400Y-75139739D01*
X139631513Y-75296152D01*
X139692542Y-75443489D01*
X139781143Y-75576090D01*
X139893910Y-75688857D01*
X140026511Y-75777458D01*
X140173848Y-75838487D01*
X140330261Y-75869600D01*
X140489739Y-75869600D01*
X140646152Y-75838487D01*
X140793489Y-75777458D01*
X140926090Y-75688857D01*
X141038857Y-75576090D01*
X141127458Y-75443489D01*
X141188487Y-75296152D01*
X141219600Y-75139739D01*
X141219600Y-74980261D01*
X142140400Y-74980261D01*
X142140400Y-75139739D01*
X142171513Y-75296152D01*
X142232542Y-75443489D01*
X142321143Y-75576090D01*
X142433910Y-75688857D01*
X142566511Y-75777458D01*
X142713848Y-75838487D01*
X142870261Y-75869600D01*
X143029739Y-75869600D01*
X143186152Y-75838487D01*
X143333489Y-75777458D01*
X143466090Y-75688857D01*
X143578857Y-75576090D01*
X143667458Y-75443489D01*
X143728487Y-75296152D01*
X143759600Y-75139739D01*
X143759600Y-74980261D01*
X144680400Y-74980261D01*
X144680400Y-75139739D01*
X144711513Y-75296152D01*
X144772542Y-75443489D01*
X144861143Y-75576090D01*
X144973910Y-75688857D01*
X145106511Y-75777458D01*
X145253848Y-75838487D01*
X145410261Y-75869600D01*
X145569739Y-75869600D01*
X145726152Y-75838487D01*
X145873489Y-75777458D01*
X146006090Y-75688857D01*
X146118857Y-75576090D01*
X146207458Y-75443489D01*
X146268487Y-75296152D01*
X146299600Y-75139739D01*
X146299600Y-74980261D01*
X147220400Y-74980261D01*
X147220400Y-75139739D01*
X147251513Y-75296152D01*
X147312542Y-75443489D01*
X147401143Y-75576090D01*
X147513910Y-75688857D01*
X147646511Y-75777458D01*
X147793848Y-75838487D01*
X147950261Y-75869600D01*
X148109739Y-75869600D01*
X148266152Y-75838487D01*
X148413489Y-75777458D01*
X148546090Y-75688857D01*
X148658857Y-75576090D01*
X148747458Y-75443489D01*
X148808487Y-75296152D01*
X148839600Y-75139739D01*
X148839600Y-74980261D01*
X149760400Y-74980261D01*
X149760400Y-75139739D01*
X149791513Y-75296152D01*
X149852542Y-75443489D01*
X149941143Y-75576090D01*
X150053910Y-75688857D01*
X150186511Y-75777458D01*
X150333848Y-75838487D01*
X150490261Y-75869600D01*
X150649739Y-75869600D01*
X150806152Y-75838487D01*
X150953489Y-75777458D01*
X151086090Y-75688857D01*
X151198857Y-75576090D01*
X151287458Y-75443489D01*
X151348487Y-75296152D01*
X151379600Y-75139739D01*
X151379600Y-74980261D01*
X152300400Y-74980261D01*
X152300400Y-75139739D01*
X152331513Y-75296152D01*
X152392542Y-75443489D01*
X152481143Y-75576090D01*
X152593910Y-75688857D01*
X152726511Y-75777458D01*
X152873848Y-75838487D01*
X153030261Y-75869600D01*
X153189739Y-75869600D01*
X153346152Y-75838487D01*
X153493489Y-75777458D01*
X153626090Y-75688857D01*
X153738857Y-75576090D01*
X153827458Y-75443489D01*
X153888487Y-75296152D01*
X153919600Y-75139739D01*
X153919600Y-74980261D01*
X154840400Y-74980261D01*
X154840400Y-75139739D01*
X154871513Y-75296152D01*
X154932542Y-75443489D01*
X155021143Y-75576090D01*
X155133910Y-75688857D01*
X155266511Y-75777458D01*
X155413848Y-75838487D01*
X155570261Y-75869600D01*
X155729739Y-75869600D01*
X155886152Y-75838487D01*
X156033489Y-75777458D01*
X156166090Y-75688857D01*
X156278857Y-75576090D01*
X156367458Y-75443489D01*
X156428487Y-75296152D01*
X156459600Y-75139739D01*
X156459600Y-74980261D01*
X157380400Y-74980261D01*
X157380400Y-75139739D01*
X157411513Y-75296152D01*
X157472542Y-75443489D01*
X157561143Y-75576090D01*
X157673910Y-75688857D01*
X157806511Y-75777458D01*
X157953848Y-75838487D01*
X158110261Y-75869600D01*
X158269739Y-75869600D01*
X158426152Y-75838487D01*
X158573489Y-75777458D01*
X158706090Y-75688857D01*
X158818857Y-75576090D01*
X158907458Y-75443489D01*
X158968487Y-75296152D01*
X158999600Y-75139739D01*
X158999600Y-74980261D01*
X159920400Y-74980261D01*
X159920400Y-75139739D01*
X159951513Y-75296152D01*
X160012542Y-75443489D01*
X160101143Y-75576090D01*
X160213910Y-75688857D01*
X160346511Y-75777458D01*
X160493848Y-75838487D01*
X160650261Y-75869600D01*
X160809739Y-75869600D01*
X160966152Y-75838487D01*
X161113489Y-75777458D01*
X161246090Y-75688857D01*
X161358857Y-75576090D01*
X161447458Y-75443489D01*
X161508487Y-75296152D01*
X161539600Y-75139739D01*
X161539600Y-74980261D01*
X162460400Y-74980261D01*
X162460400Y-75139739D01*
X162491513Y-75296152D01*
X162552542Y-75443489D01*
X162641143Y-75576090D01*
X162753910Y-75688857D01*
X162886511Y-75777458D01*
X163033848Y-75838487D01*
X163190261Y-75869600D01*
X163349739Y-75869600D01*
X163506152Y-75838487D01*
X163653489Y-75777458D01*
X163786090Y-75688857D01*
X163898857Y-75576090D01*
X163987458Y-75443489D01*
X164048487Y-75296152D01*
X164079600Y-75139739D01*
X164079600Y-74980261D01*
X165000400Y-74980261D01*
X165000400Y-75139739D01*
X165031513Y-75296152D01*
X165092542Y-75443489D01*
X165181143Y-75576090D01*
X165293910Y-75688857D01*
X165426511Y-75777458D01*
X165573848Y-75838487D01*
X165730261Y-75869600D01*
X165889739Y-75869600D01*
X166046152Y-75838487D01*
X166193489Y-75777458D01*
X166326090Y-75688857D01*
X166438857Y-75576090D01*
X166527458Y-75443489D01*
X166588487Y-75296152D01*
X166619600Y-75139739D01*
X166619600Y-74980261D01*
X167540400Y-74980261D01*
X167540400Y-75139739D01*
X167571513Y-75296152D01*
X167632542Y-75443489D01*
X167721143Y-75576090D01*
X167833910Y-75688857D01*
X167966511Y-75777458D01*
X168113848Y-75838487D01*
X168270261Y-75869600D01*
X168429739Y-75869600D01*
X168586152Y-75838487D01*
X168733489Y-75777458D01*
X168866090Y-75688857D01*
X168978857Y-75576090D01*
X169067458Y-75443489D01*
X169128487Y-75296152D01*
X169159600Y-75139739D01*
X169159600Y-74980261D01*
X170080400Y-74980261D01*
X170080400Y-75139739D01*
X170111513Y-75296152D01*
X170172542Y-75443489D01*
X170261143Y-75576090D01*
X170373910Y-75688857D01*
X170506511Y-75777458D01*
X170653848Y-75838487D01*
X170810261Y-75869600D01*
X170969739Y-75869600D01*
X171126152Y-75838487D01*
X171273489Y-75777458D01*
X171406090Y-75688857D01*
X171518857Y-75576090D01*
X171607458Y-75443489D01*
X171668487Y-75296152D01*
X171699600Y-75139739D01*
X171699600Y-74980261D01*
X172620400Y-74980261D01*
X172620400Y-75139739D01*
X172651513Y-75296152D01*
X172712542Y-75443489D01*
X172801143Y-75576090D01*
X172913910Y-75688857D01*
X173046511Y-75777458D01*
X173193848Y-75838487D01*
X173350261Y-75869600D01*
X173509739Y-75869600D01*
X173666152Y-75838487D01*
X173813489Y-75777458D01*
X173946090Y-75688857D01*
X174058857Y-75576090D01*
X174147458Y-75443489D01*
X174208487Y-75296152D01*
X174239600Y-75139739D01*
X174239600Y-74980261D01*
X175160400Y-74980261D01*
X175160400Y-75139739D01*
X175191513Y-75296152D01*
X175252542Y-75443489D01*
X175341143Y-75576090D01*
X175453910Y-75688857D01*
X175586511Y-75777458D01*
X175733848Y-75838487D01*
X175890261Y-75869600D01*
X176049739Y-75869600D01*
X176206152Y-75838487D01*
X176353489Y-75777458D01*
X176486090Y-75688857D01*
X176598857Y-75576090D01*
X176687458Y-75443489D01*
X176748487Y-75296152D01*
X176779600Y-75139739D01*
X176779600Y-74980261D01*
X177700400Y-74980261D01*
X177700400Y-75139739D01*
X177731513Y-75296152D01*
X177792542Y-75443489D01*
X177881143Y-75576090D01*
X177993910Y-75688857D01*
X178126511Y-75777458D01*
X178273848Y-75838487D01*
X178430261Y-75869600D01*
X178589739Y-75869600D01*
X178660331Y-75855558D01*
X178610730Y-75975306D01*
X178564000Y-76210234D01*
X178564000Y-76449766D01*
X178610730Y-76684694D01*
X178660331Y-76804442D01*
X178589739Y-76790400D01*
X178430261Y-76790400D01*
X178273848Y-76821513D01*
X178126511Y-76882542D01*
X177993910Y-76971143D01*
X177881143Y-77083910D01*
X177792542Y-77216511D01*
X177731513Y-77363848D01*
X177700400Y-77520261D01*
X177700400Y-77679739D01*
X177731513Y-77836152D01*
X177792542Y-77983489D01*
X177881143Y-78116090D01*
X177993910Y-78228857D01*
X178126511Y-78317458D01*
X178273848Y-78378487D01*
X178430261Y-78409600D01*
X178589739Y-78409600D01*
X178746152Y-78378487D01*
X178893489Y-78317458D01*
X179026090Y-78228857D01*
X179138857Y-78116090D01*
X179227458Y-77983489D01*
X179288487Y-77836152D01*
X179319600Y-77679739D01*
X179319600Y-77520261D01*
X179305558Y-77449669D01*
X179425306Y-77499270D01*
X179660234Y-77546000D01*
X179899766Y-77546000D01*
X180134694Y-77499270D01*
X180254442Y-77449669D01*
X180240400Y-77520261D01*
X180240400Y-77679739D01*
X180271513Y-77836152D01*
X180332542Y-77983489D01*
X180421143Y-78116090D01*
X180533910Y-78228857D01*
X180666511Y-78317458D01*
X180813848Y-78378487D01*
X180970261Y-78409600D01*
X181129739Y-78409600D01*
X181286152Y-78378487D01*
X181433489Y-78317458D01*
X181566090Y-78228857D01*
X181678857Y-78116090D01*
X181767458Y-77983489D01*
X181828487Y-77836152D01*
X181859600Y-77679739D01*
X181859600Y-77520261D01*
X181828487Y-77363848D01*
X181767458Y-77216511D01*
X181678857Y-77083910D01*
X181566090Y-76971143D01*
X181433489Y-76882542D01*
X181286152Y-76821513D01*
X181129739Y-76790400D01*
X180970261Y-76790400D01*
X180899669Y-76804442D01*
X180949270Y-76684694D01*
X180996000Y-76449766D01*
X180996000Y-76210234D01*
X180949270Y-75975306D01*
X180899669Y-75855558D01*
X180970261Y-75869600D01*
X181129739Y-75869600D01*
X181286152Y-75838487D01*
X181433489Y-75777458D01*
X181566090Y-75688857D01*
X181678857Y-75576090D01*
X181767458Y-75443489D01*
X181828487Y-75296152D01*
X181859600Y-75139739D01*
X181859600Y-74980261D01*
X181828487Y-74823848D01*
X181767458Y-74676511D01*
X181678857Y-74543910D01*
X181566090Y-74431143D01*
X181433489Y-74342542D01*
X181286152Y-74281513D01*
X181129739Y-74250400D01*
X180970261Y-74250400D01*
X180813848Y-74281513D01*
X180666511Y-74342542D01*
X180533910Y-74431143D01*
X180421143Y-74543910D01*
X180332542Y-74676511D01*
X180271513Y-74823848D01*
X180240400Y-74980261D01*
X180240400Y-75139739D01*
X180254442Y-75210331D01*
X180134694Y-75160730D01*
X179899766Y-75114000D01*
X179660234Y-75114000D01*
X179425306Y-75160730D01*
X179305558Y-75210331D01*
X179319600Y-75139739D01*
X179319600Y-74980261D01*
X179288487Y-74823848D01*
X179227458Y-74676511D01*
X179138857Y-74543910D01*
X179026090Y-74431143D01*
X178893489Y-74342542D01*
X178746152Y-74281513D01*
X178589739Y-74250400D01*
X178430261Y-74250400D01*
X178273848Y-74281513D01*
X178126511Y-74342542D01*
X177993910Y-74431143D01*
X177881143Y-74543910D01*
X177792542Y-74676511D01*
X177731513Y-74823848D01*
X177700400Y-74980261D01*
X176779600Y-74980261D01*
X176748487Y-74823848D01*
X176687458Y-74676511D01*
X176598857Y-74543910D01*
X176486090Y-74431143D01*
X176353489Y-74342542D01*
X176206152Y-74281513D01*
X176049739Y-74250400D01*
X175890261Y-74250400D01*
X175733848Y-74281513D01*
X175586511Y-74342542D01*
X175453910Y-74431143D01*
X175341143Y-74543910D01*
X175252542Y-74676511D01*
X175191513Y-74823848D01*
X175160400Y-74980261D01*
X174239600Y-74980261D01*
X174208487Y-74823848D01*
X174147458Y-74676511D01*
X174058857Y-74543910D01*
X173946090Y-74431143D01*
X173813489Y-74342542D01*
X173666152Y-74281513D01*
X173509739Y-74250400D01*
X173350261Y-74250400D01*
X173193848Y-74281513D01*
X173046511Y-74342542D01*
X172913910Y-74431143D01*
X172801143Y-74543910D01*
X172712542Y-74676511D01*
X172651513Y-74823848D01*
X172620400Y-74980261D01*
X171699600Y-74980261D01*
X171668487Y-74823848D01*
X171607458Y-74676511D01*
X171518857Y-74543910D01*
X171406090Y-74431143D01*
X171273489Y-74342542D01*
X171126152Y-74281513D01*
X170969739Y-74250400D01*
X170810261Y-74250400D01*
X170653848Y-74281513D01*
X170506511Y-74342542D01*
X170373910Y-74431143D01*
X170261143Y-74543910D01*
X170172542Y-74676511D01*
X170111513Y-74823848D01*
X170080400Y-74980261D01*
X169159600Y-74980261D01*
X169128487Y-74823848D01*
X169067458Y-74676511D01*
X168978857Y-74543910D01*
X168866090Y-74431143D01*
X168733489Y-74342542D01*
X168586152Y-74281513D01*
X168429739Y-74250400D01*
X168270261Y-74250400D01*
X168113848Y-74281513D01*
X167966511Y-74342542D01*
X167833910Y-74431143D01*
X167721143Y-74543910D01*
X167632542Y-74676511D01*
X167571513Y-74823848D01*
X167540400Y-74980261D01*
X166619600Y-74980261D01*
X166588487Y-74823848D01*
X166527458Y-74676511D01*
X166438857Y-74543910D01*
X166326090Y-74431143D01*
X166193489Y-74342542D01*
X166046152Y-74281513D01*
X165889739Y-74250400D01*
X165730261Y-74250400D01*
X165573848Y-74281513D01*
X165426511Y-74342542D01*
X165293910Y-74431143D01*
X165181143Y-74543910D01*
X165092542Y-74676511D01*
X165031513Y-74823848D01*
X165000400Y-74980261D01*
X164079600Y-74980261D01*
X164048487Y-74823848D01*
X163987458Y-74676511D01*
X163898857Y-74543910D01*
X163786090Y-74431143D01*
X163653489Y-74342542D01*
X163506152Y-74281513D01*
X163349739Y-74250400D01*
X163190261Y-74250400D01*
X163033848Y-74281513D01*
X162886511Y-74342542D01*
X162753910Y-74431143D01*
X162641143Y-74543910D01*
X162552542Y-74676511D01*
X162491513Y-74823848D01*
X162460400Y-74980261D01*
X161539600Y-74980261D01*
X161508487Y-74823848D01*
X161447458Y-74676511D01*
X161358857Y-74543910D01*
X161246090Y-74431143D01*
X161113489Y-74342542D01*
X160966152Y-74281513D01*
X160809739Y-74250400D01*
X160650261Y-74250400D01*
X160493848Y-74281513D01*
X160346511Y-74342542D01*
X160213910Y-74431143D01*
X160101143Y-74543910D01*
X160012542Y-74676511D01*
X159951513Y-74823848D01*
X159920400Y-74980261D01*
X158999600Y-74980261D01*
X158968487Y-74823848D01*
X158907458Y-74676511D01*
X158818857Y-74543910D01*
X158706090Y-74431143D01*
X158573489Y-74342542D01*
X158426152Y-74281513D01*
X158269739Y-74250400D01*
X158110261Y-74250400D01*
X157953848Y-74281513D01*
X157806511Y-74342542D01*
X157673910Y-74431143D01*
X157561143Y-74543910D01*
X157472542Y-74676511D01*
X157411513Y-74823848D01*
X157380400Y-74980261D01*
X156459600Y-74980261D01*
X156428487Y-74823848D01*
X156367458Y-74676511D01*
X156278857Y-74543910D01*
X156166090Y-74431143D01*
X156033489Y-74342542D01*
X155886152Y-74281513D01*
X155729739Y-74250400D01*
X155570261Y-74250400D01*
X155413848Y-74281513D01*
X155266511Y-74342542D01*
X155133910Y-74431143D01*
X155021143Y-74543910D01*
X154932542Y-74676511D01*
X154871513Y-74823848D01*
X154840400Y-74980261D01*
X153919600Y-74980261D01*
X153888487Y-74823848D01*
X153827458Y-74676511D01*
X153738857Y-74543910D01*
X153626090Y-74431143D01*
X153493489Y-74342542D01*
X153346152Y-74281513D01*
X153189739Y-74250400D01*
X153030261Y-74250400D01*
X152873848Y-74281513D01*
X152726511Y-74342542D01*
X152593910Y-74431143D01*
X152481143Y-74543910D01*
X152392542Y-74676511D01*
X152331513Y-74823848D01*
X152300400Y-74980261D01*
X151379600Y-74980261D01*
X151348487Y-74823848D01*
X151287458Y-74676511D01*
X151198857Y-74543910D01*
X151086090Y-74431143D01*
X150953489Y-74342542D01*
X150806152Y-74281513D01*
X150649739Y-74250400D01*
X150490261Y-74250400D01*
X150333848Y-74281513D01*
X150186511Y-74342542D01*
X150053910Y-74431143D01*
X149941143Y-74543910D01*
X149852542Y-74676511D01*
X149791513Y-74823848D01*
X149760400Y-74980261D01*
X148839600Y-74980261D01*
X148808487Y-74823848D01*
X148747458Y-74676511D01*
X148658857Y-74543910D01*
X148546090Y-74431143D01*
X148413489Y-74342542D01*
X148266152Y-74281513D01*
X148109739Y-74250400D01*
X147950261Y-74250400D01*
X147793848Y-74281513D01*
X147646511Y-74342542D01*
X147513910Y-74431143D01*
X147401143Y-74543910D01*
X147312542Y-74676511D01*
X147251513Y-74823848D01*
X147220400Y-74980261D01*
X146299600Y-74980261D01*
X146268487Y-74823848D01*
X146207458Y-74676511D01*
X146118857Y-74543910D01*
X146006090Y-74431143D01*
X145873489Y-74342542D01*
X145726152Y-74281513D01*
X145569739Y-74250400D01*
X145410261Y-74250400D01*
X145253848Y-74281513D01*
X145106511Y-74342542D01*
X144973910Y-74431143D01*
X144861143Y-74543910D01*
X144772542Y-74676511D01*
X144711513Y-74823848D01*
X144680400Y-74980261D01*
X143759600Y-74980261D01*
X143728487Y-74823848D01*
X143667458Y-74676511D01*
X143578857Y-74543910D01*
X143466090Y-74431143D01*
X143333489Y-74342542D01*
X143186152Y-74281513D01*
X143029739Y-74250400D01*
X142870261Y-74250400D01*
X142713848Y-74281513D01*
X142566511Y-74342542D01*
X142433910Y-74431143D01*
X142321143Y-74543910D01*
X142232542Y-74676511D01*
X142171513Y-74823848D01*
X142140400Y-74980261D01*
X141219600Y-74980261D01*
X141188487Y-74823848D01*
X141127458Y-74676511D01*
X141038857Y-74543910D01*
X140926090Y-74431143D01*
X140793489Y-74342542D01*
X140646152Y-74281513D01*
X140489739Y-74250400D01*
X140330261Y-74250400D01*
X140173848Y-74281513D01*
X140026511Y-74342542D01*
X139893910Y-74431143D01*
X139781143Y-74543910D01*
X139692542Y-74676511D01*
X139631513Y-74823848D01*
X139600400Y-74980261D01*
X138679600Y-74980261D01*
X138648487Y-74823848D01*
X138587458Y-74676511D01*
X138498857Y-74543910D01*
X138386090Y-74431143D01*
X138253489Y-74342542D01*
X138106152Y-74281513D01*
X137949739Y-74250400D01*
X137790261Y-74250400D01*
X137633848Y-74281513D01*
X137486511Y-74342542D01*
X137353910Y-74431143D01*
X137241143Y-74543910D01*
X137152542Y-74676511D01*
X137091513Y-74823848D01*
X137060400Y-74980261D01*
X136139600Y-74980261D01*
X136108487Y-74823848D01*
X136047458Y-74676511D01*
X135958857Y-74543910D01*
X135846090Y-74431143D01*
X135713489Y-74342542D01*
X135566152Y-74281513D01*
X135409739Y-74250400D01*
X135250261Y-74250400D01*
X135093848Y-74281513D01*
X134946511Y-74342542D01*
X134813910Y-74431143D01*
X134701143Y-74543910D01*
X134612542Y-74676511D01*
X134551513Y-74823848D01*
X134520400Y-74980261D01*
X134520400Y-75139739D01*
X134534442Y-75210331D01*
X134414694Y-75160730D01*
X134179766Y-75114000D01*
X133940234Y-75114000D01*
X133705306Y-75160730D01*
X133585558Y-75210331D01*
X133599600Y-75139739D01*
X133599600Y-74980261D01*
X133568487Y-74823848D01*
X133507458Y-74676511D01*
X133418857Y-74543910D01*
X133306090Y-74431143D01*
X133173489Y-74342542D01*
X133026152Y-74281513D01*
X132869739Y-74250400D01*
X132710261Y-74250400D01*
X132553848Y-74281513D01*
X132406511Y-74342542D01*
X132273910Y-74431143D01*
X132161143Y-74543910D01*
X132072542Y-74676511D01*
X132011513Y-74823848D01*
X131980400Y-74980261D01*
X130905515Y-74980261D01*
X130839730Y-74821442D01*
X130486575Y-74292907D01*
X130037093Y-73843425D01*
X129508558Y-73490270D01*
X128921281Y-73247012D01*
X128297832Y-73123000D01*
X127662168Y-73123000D01*
X127038719Y-73247012D01*
X126451442Y-73490270D01*
X125922907Y-73843425D01*
X125473425Y-74292907D01*
X125120270Y-74821442D01*
X124877012Y-75408719D01*
X124768100Y-75956255D01*
X124768100Y-75322415D01*
X124934087Y-74380994D01*
X125397869Y-73578405D01*
X126107339Y-72983002D01*
X126991420Y-72661248D01*
X127435213Y-72622406D01*
X127439496Y-72622823D01*
X127457538Y-72621027D01*
X127475668Y-72621054D01*
X127477969Y-72620600D01*
X186412585Y-72620600D01*
X187353463Y-72786491D01*
X187353463Y-72786491D01*
G37*
X187353463Y-72786491D02*
X188157018Y-73250630D01*
X188751757Y-73960228D01*
X189073390Y-74844813D01*
X189114100Y-75305808D01*
X189114100Y-75504856D01*
X189092988Y-75398719D01*
X188849730Y-74811442D01*
X188496575Y-74282907D01*
X188047093Y-73833425D01*
X187518558Y-73480270D01*
X186931281Y-73237012D01*
X186307832Y-73113000D01*
X185672168Y-73113000D01*
X185048719Y-73237012D01*
X184461442Y-73480270D01*
X183932907Y-73833425D01*
X183483425Y-74282907D01*
X183130270Y-74811442D01*
X182887012Y-75398719D01*
X182763000Y-76022168D01*
X182763000Y-76657832D01*
X182887012Y-77281281D01*
X183130270Y-77868558D01*
X183483425Y-78397093D01*
X183932907Y-78846575D01*
X184461442Y-79199730D01*
X185048719Y-79442988D01*
X185672168Y-79567000D01*
X186307832Y-79567000D01*
X186931281Y-79442988D01*
X187518558Y-79199730D01*
X188047093Y-78846575D01*
X188496575Y-78397093D01*
X188849730Y-77868558D01*
X189092988Y-77281281D01*
X189114100Y-77175144D01*
X189114101Y-124514861D01*
X189092988Y-124408719D01*
X188849730Y-123821442D01*
X188496575Y-123292907D01*
X188047093Y-122843425D01*
X187518558Y-122490270D01*
X186931281Y-122247012D01*
X186307832Y-122123000D01*
X185672168Y-122123000D01*
X185048719Y-122247012D01*
X184461442Y-122490270D01*
X183932907Y-122843425D01*
X183483425Y-123292907D01*
X183130270Y-123821442D01*
X182887012Y-124408719D01*
X182763000Y-125032168D01*
X182763000Y-125667832D01*
X182887012Y-126291281D01*
X183130270Y-126878558D01*
X183483425Y-127407093D01*
X183932907Y-127856575D01*
X184461442Y-128209730D01*
X185048719Y-128452988D01*
X185117151Y-128466600D01*
X142028930Y-128466600D01*
X142027000Y-126579750D01*
X141920250Y-126473000D01*
X140473000Y-126473000D01*
X140473000Y-126493000D01*
X139727000Y-126493000D01*
X139727000Y-126473000D01*
X138279750Y-126473000D01*
X138173000Y-126579750D01*
X138171070Y-128466600D01*
X138128582Y-128466600D01*
X138128582Y-123600000D01*
X138170934Y-123600000D01*
X138173000Y-125620250D01*
X138279750Y-125727000D01*
X139727000Y-125727000D01*
X139727000Y-123279750D01*
X140473000Y-123279750D01*
X140473000Y-125727000D01*
X141920250Y-125727000D01*
X142027000Y-125620250D01*
X142029066Y-123600000D01*
X142020822Y-123516293D01*
X141996405Y-123435804D01*
X141956755Y-123361624D01*
X141903395Y-123296605D01*
X141838376Y-123243245D01*
X141764196Y-123203595D01*
X141683707Y-123179178D01*
X141600000Y-123170934D01*
X140579750Y-123173000D01*
X140473000Y-123279750D01*
X139727000Y-123279750D01*
X139620250Y-123173000D01*
X138600000Y-123170934D01*
X138516293Y-123179178D01*
X138435804Y-123203595D01*
X138361624Y-123243245D01*
X138296605Y-123296605D01*
X138243245Y-123361624D01*
X138203595Y-123435804D01*
X138179178Y-123516293D01*
X138170934Y-123600000D01*
X138128582Y-123600000D01*
X138122268Y-123535897D01*
X138103570Y-123474257D01*
X138073206Y-123417450D01*
X138032343Y-123367657D01*
X137982550Y-123326794D01*
X137925743Y-123296430D01*
X137864103Y-123277732D01*
X137800000Y-123271418D01*
X134800000Y-123271418D01*
X134735897Y-123277732D01*
X134674257Y-123296430D01*
X134617450Y-123326794D01*
X134567657Y-123367657D01*
X134526794Y-123417450D01*
X134509451Y-123449897D01*
X131823221Y-120763668D01*
X131823582Y-120760000D01*
X131823582Y-118260000D01*
X131817268Y-118195897D01*
X131798570Y-118134257D01*
X131768206Y-118077450D01*
X131727343Y-118027657D01*
X131677550Y-117986794D01*
X131620743Y-117956430D01*
X131559103Y-117937732D01*
X131495000Y-117931418D01*
X128105000Y-117931418D01*
X128040897Y-117937732D01*
X127979257Y-117956430D01*
X127922450Y-117986794D01*
X127872657Y-118027657D01*
X127831794Y-118077450D01*
X127801430Y-118134257D01*
X127782732Y-118195897D01*
X127776418Y-118260000D01*
X127776418Y-120760000D01*
X127782732Y-120824103D01*
X127801430Y-120885743D01*
X127831794Y-120942550D01*
X127872657Y-120992343D01*
X127922450Y-121033206D01*
X127979257Y-121063570D01*
X128040897Y-121082268D01*
X128105000Y-121088582D01*
X129809029Y-121088582D01*
X134471418Y-125750972D01*
X134471418Y-128466600D01*
X128822576Y-128466600D01*
X128941281Y-128442988D01*
X129528558Y-128199730D01*
X130057093Y-127846575D01*
X130506575Y-127397093D01*
X130859730Y-126868558D01*
X131102988Y-126281281D01*
X131227000Y-125657832D01*
X131227000Y-125022168D01*
X131102988Y-124398719D01*
X130859730Y-123811442D01*
X130506575Y-123282907D01*
X130057093Y-122833425D01*
X129528558Y-122480270D01*
X128941281Y-122237012D01*
X128317832Y-122113000D01*
X127682168Y-122113000D01*
X127058719Y-122237012D01*
X126471442Y-122480270D01*
X125942907Y-122833425D01*
X125493425Y-123282907D01*
X125140270Y-123811442D01*
X124897012Y-124398719D01*
X124773000Y-125022168D01*
X124773000Y-125657832D01*
X124897012Y-126281281D01*
X125140270Y-126868558D01*
X125493425Y-127397093D01*
X125942907Y-127846575D01*
X126471442Y-128199730D01*
X126852334Y-128357501D01*
X126529002Y-128300460D01*
X125724959Y-127836041D01*
X125130516Y-127127400D01*
X124808748Y-126243283D01*
X124769906Y-125799487D01*
X124770323Y-125795204D01*
X124768527Y-125777162D01*
X124768554Y-125759032D01*
X124768100Y-125756731D01*
X124768100Y-111440000D01*
X127776418Y-111440000D01*
X127776418Y-113940000D01*
X127782732Y-114004103D01*
X127801430Y-114065743D01*
X127831794Y-114122550D01*
X127872657Y-114172343D01*
X127922450Y-114213206D01*
X127979257Y-114243570D01*
X128040897Y-114262268D01*
X128105000Y-114268582D01*
X131495000Y-114268582D01*
X131559103Y-114262268D01*
X131620743Y-114243570D01*
X131677550Y-114213206D01*
X131727343Y-114172343D01*
X131768206Y-114122550D01*
X131798570Y-114065743D01*
X131817268Y-114004103D01*
X131823582Y-113940000D01*
X131823582Y-113517000D01*
X134321418Y-113517000D01*
X134321418Y-113640000D01*
X134327732Y-113704103D01*
X134346430Y-113765743D01*
X134376794Y-113822550D01*
X134417657Y-113872343D01*
X134467450Y-113913206D01*
X134524257Y-113943570D01*
X134585897Y-113962268D01*
X134650000Y-113968582D01*
X138150000Y-113968582D01*
X138214103Y-113962268D01*
X138275743Y-113943570D01*
X138332550Y-113913206D01*
X138382343Y-113872343D01*
X138423206Y-113822550D01*
X138453570Y-113765743D01*
X138472268Y-113704103D01*
X138478582Y-113640000D01*
X138478582Y-112040000D01*
X138472268Y-111975897D01*
X138453570Y-111914257D01*
X138423206Y-111857450D01*
X138382343Y-111807657D01*
X138332550Y-111766794D01*
X138275743Y-111736430D01*
X138214103Y-111717732D01*
X138150000Y-111711418D01*
X134650000Y-111711418D01*
X134585897Y-111717732D01*
X134524257Y-111736430D01*
X134467450Y-111766794D01*
X134417657Y-111807657D01*
X134376794Y-111857450D01*
X134373827Y-111863000D01*
X131823582Y-111863000D01*
X131823582Y-111440000D01*
X131817268Y-111375897D01*
X131798570Y-111314257D01*
X131768206Y-111257450D01*
X131727343Y-111207657D01*
X131677550Y-111166794D01*
X131620743Y-111136430D01*
X131559103Y-111117732D01*
X131495000Y-111111418D01*
X128105000Y-111111418D01*
X128040897Y-111117732D01*
X127979257Y-111136430D01*
X127922450Y-111166794D01*
X127872657Y-111207657D01*
X127831794Y-111257450D01*
X127801430Y-111314257D01*
X127782732Y-111375897D01*
X127776418Y-111440000D01*
X124768100Y-111440000D01*
X124768100Y-110322415D01*
X124813470Y-110065089D01*
X124929492Y-109864173D01*
X125107238Y-109715083D01*
X125338441Y-109630854D01*
X125435184Y-109622403D01*
X125439496Y-109622823D01*
X125457538Y-109621027D01*
X125475668Y-109621054D01*
X125477969Y-109620600D01*
X128437066Y-109620600D01*
X128453428Y-109620782D01*
X128455513Y-109620600D01*
X128457619Y-109620600D01*
X128473999Y-109618987D01*
X128630739Y-109605308D01*
X128661665Y-109603624D01*
X128685671Y-109597476D01*
X128710027Y-109592912D01*
X128738763Y-109581382D01*
X129020032Y-109479061D01*
X129030390Y-109476872D01*
X129054866Y-109466389D01*
X129062385Y-109463654D01*
X129071864Y-109459109D01*
X129098655Y-109447635D01*
X129105305Y-109443076D01*
X129112569Y-109439593D01*
X129135868Y-109422122D01*
X129144557Y-109416165D01*
X129150692Y-109411006D01*
X129171983Y-109395041D01*
X129179048Y-109387162D01*
X129390024Y-109209759D01*
X129398582Y-109204442D01*
X129418383Y-109185912D01*
X129424905Y-109180428D01*
X129431909Y-109173255D01*
X129452805Y-109153700D01*
X129457797Y-109146739D01*
X129463785Y-109140607D01*
X129479414Y-109116601D01*
X129485242Y-109108476D01*
X129489493Y-109101121D01*
X129504303Y-109078373D01*
X129508050Y-109069011D01*
X129646163Y-108830035D01*
X129652614Y-108821814D01*
X129664696Y-108797968D01*
X129668775Y-108790910D01*
X129673076Y-108781428D01*
X129686178Y-108755569D01*
X129688382Y-108747687D01*
X129691766Y-108740226D01*
X129698367Y-108711970D01*
X129701163Y-108701971D01*
X129702574Y-108693965D01*
X129708661Y-108667911D01*
X129709008Y-108657460D01*
X129758444Y-108376954D01*
X129762645Y-108363105D01*
X129764875Y-108340466D01*
X129765592Y-108336396D01*
X129766688Y-108322056D01*
X129768100Y-108307719D01*
X129768100Y-108303580D01*
X129769833Y-108280904D01*
X129768100Y-108266541D01*
X129768100Y-101783780D01*
X129799047Y-101841678D01*
X129876497Y-101936050D01*
X129902394Y-101967605D01*
X129933946Y-101993499D01*
X131296503Y-103356058D01*
X131322394Y-103387606D01*
X131353941Y-103413496D01*
X131353948Y-103413503D01*
X131448320Y-103490952D01*
X131525113Y-103531998D01*
X131591990Y-103567745D01*
X131747880Y-103615034D01*
X131869376Y-103627000D01*
X131869386Y-103627000D01*
X131910000Y-103631000D01*
X131950614Y-103627000D01*
X132073000Y-103627000D01*
X132073000Y-105200000D01*
X132075440Y-105224776D01*
X132082667Y-105248601D01*
X132094403Y-105270557D01*
X132110197Y-105289803D01*
X132129443Y-105305597D01*
X132151399Y-105317333D01*
X132175224Y-105324560D01*
X132200000Y-105327000D01*
X135573001Y-105327000D01*
X135573000Y-106831418D01*
X134650000Y-106831418D01*
X134585897Y-106837732D01*
X134524257Y-106856430D01*
X134467450Y-106886794D01*
X134417657Y-106927657D01*
X134376794Y-106977450D01*
X134346430Y-107034257D01*
X134327732Y-107095897D01*
X134321418Y-107160000D01*
X134321418Y-108760000D01*
X134327732Y-108824103D01*
X134346430Y-108885743D01*
X134376794Y-108942550D01*
X134417657Y-108992343D01*
X134467450Y-109033206D01*
X134524257Y-109063570D01*
X134585897Y-109082268D01*
X134650000Y-109088582D01*
X138150000Y-109088582D01*
X138214103Y-109082268D01*
X138275743Y-109063570D01*
X138332550Y-109033206D01*
X138382343Y-108992343D01*
X138423206Y-108942550D01*
X138453570Y-108885743D01*
X138472268Y-108824103D01*
X138478582Y-108760000D01*
X138478582Y-107160000D01*
X138472268Y-107095897D01*
X138453570Y-107034257D01*
X138423206Y-106977450D01*
X138382343Y-106927657D01*
X138332550Y-106886794D01*
X138275743Y-106856430D01*
X138214103Y-106837732D01*
X138150000Y-106831418D01*
X137227000Y-106831418D01*
X137227000Y-105327000D01*
X139300000Y-105327000D01*
X139324776Y-105324560D01*
X139348601Y-105317333D01*
X139370557Y-105305597D01*
X139389803Y-105289803D01*
X139405597Y-105270557D01*
X139417333Y-105248601D01*
X139424560Y-105224776D01*
X139427000Y-105199888D01*
X139426067Y-104138069D01*
X139478320Y-104180952D01*
X139513957Y-104200000D01*
X139621990Y-104257745D01*
X139777880Y-104305034D01*
X139899376Y-104317000D01*
X139899386Y-104317000D01*
X139940000Y-104321000D01*
X139980614Y-104317000D01*
X142399386Y-104317000D01*
X142440000Y-104321000D01*
X142480614Y-104317000D01*
X142480624Y-104317000D01*
X142602120Y-104305034D01*
X142758010Y-104257745D01*
X142901679Y-104180952D01*
X143027606Y-104077606D01*
X143053505Y-104046048D01*
X144071058Y-103028497D01*
X144102606Y-103002606D01*
X144128496Y-102971059D01*
X144128503Y-102971052D01*
X144205952Y-102876680D01*
X144237006Y-102818582D01*
X144690000Y-102818582D01*
X144754103Y-102812268D01*
X144815743Y-102793570D01*
X144872550Y-102763206D01*
X144922343Y-102722343D01*
X144963206Y-102672550D01*
X144993570Y-102615743D01*
X145012268Y-102554103D01*
X145018582Y-102490000D01*
X145018582Y-99090000D01*
X145012268Y-99025897D01*
X144993570Y-98964257D01*
X144963206Y-98907450D01*
X144922343Y-98857657D01*
X144872550Y-98816794D01*
X144815743Y-98786430D01*
X144754103Y-98767732D01*
X144690000Y-98761418D01*
X142340000Y-98761418D01*
X142275897Y-98767732D01*
X142214257Y-98786430D01*
X142157450Y-98816794D01*
X142107657Y-98857657D01*
X142066794Y-98907450D01*
X142036430Y-98964257D01*
X142017732Y-99025897D01*
X142011418Y-99090000D01*
X142011418Y-102490000D01*
X142017732Y-102554103D01*
X142036430Y-102615743D01*
X142061689Y-102663000D01*
X140282554Y-102663000D01*
X140217000Y-102597446D01*
X140217000Y-102583925D01*
X140175611Y-102375851D01*
X140094425Y-102179849D01*
X139976560Y-102003453D01*
X139826547Y-101853440D01*
X139650151Y-101735575D01*
X139573447Y-101703803D01*
X139667000Y-101610250D01*
X139667000Y-100863000D01*
X140413000Y-100863000D01*
X140413000Y-101610250D01*
X140519750Y-101717000D01*
X140540000Y-101719066D01*
X140623707Y-101710822D01*
X140704196Y-101686405D01*
X140778376Y-101646755D01*
X140843395Y-101593395D01*
X140896755Y-101528376D01*
X140936405Y-101454196D01*
X140960822Y-101373707D01*
X140969066Y-101290000D01*
X140967000Y-100969750D01*
X140860250Y-100863000D01*
X140413000Y-100863000D01*
X139667000Y-100863000D01*
X139647000Y-100863000D01*
X139647000Y-100117000D01*
X139667000Y-100117000D01*
X139667000Y-99369750D01*
X140413000Y-99369750D01*
X140413000Y-100117000D01*
X140860250Y-100117000D01*
X140967000Y-100010250D01*
X140969066Y-99690000D01*
X140960822Y-99606293D01*
X140936405Y-99525804D01*
X140896755Y-99451624D01*
X140843395Y-99386605D01*
X140778376Y-99333245D01*
X140704196Y-99293595D01*
X140623707Y-99269178D01*
X140540000Y-99260934D01*
X140519750Y-99263000D01*
X140413000Y-99369750D01*
X139667000Y-99369750D01*
X139560250Y-99263000D01*
X139540000Y-99260934D01*
X139456293Y-99269178D01*
X139421798Y-99279642D01*
X139421552Y-99000283D01*
X139456293Y-99010822D01*
X139540000Y-99019066D01*
X139560250Y-99017000D01*
X139667000Y-98910250D01*
X139667000Y-98163000D01*
X140413000Y-98163000D01*
X140413000Y-98910250D01*
X140519750Y-99017000D01*
X140540000Y-99019066D01*
X140623707Y-99010822D01*
X140704196Y-98986405D01*
X140778376Y-98946755D01*
X140843395Y-98893395D01*
X140896755Y-98828376D01*
X140936405Y-98754196D01*
X140960822Y-98673707D01*
X140969066Y-98590000D01*
X140967000Y-98269750D01*
X140860250Y-98163000D01*
X140413000Y-98163000D01*
X139667000Y-98163000D01*
X139647000Y-98163000D01*
X139647000Y-97417000D01*
X139667000Y-97417000D01*
X139667000Y-96669750D01*
X140413000Y-96669750D01*
X140413000Y-97417000D01*
X140860250Y-97417000D01*
X140967000Y-97310250D01*
X140969066Y-96990000D01*
X140960822Y-96906293D01*
X140936405Y-96825804D01*
X140896755Y-96751624D01*
X140843395Y-96686605D01*
X140778376Y-96633245D01*
X140704196Y-96593595D01*
X140623707Y-96569178D01*
X140540000Y-96560934D01*
X140519750Y-96563000D01*
X140413000Y-96669750D01*
X139667000Y-96669750D01*
X139560250Y-96563000D01*
X139540000Y-96560934D01*
X139456293Y-96569178D01*
X139419426Y-96580362D01*
X139419219Y-96345050D01*
X139460000Y-96349066D01*
X139480250Y-96347000D01*
X139587000Y-96240250D01*
X139587000Y-95493000D01*
X139943000Y-95493000D01*
X139943000Y-96240250D01*
X140049750Y-96347000D01*
X140070000Y-96349066D01*
X140153707Y-96340822D01*
X140234196Y-96316405D01*
X140283596Y-96290000D01*
X143610934Y-96290000D01*
X143619178Y-96373707D01*
X143643595Y-96454196D01*
X143683245Y-96528376D01*
X143736605Y-96593395D01*
X143801624Y-96646755D01*
X143875804Y-96686405D01*
X143956293Y-96710822D01*
X144040000Y-96719066D01*
X144060250Y-96717000D01*
X144167000Y-96610250D01*
X144167000Y-95863000D01*
X144913000Y-95863000D01*
X144913000Y-96610250D01*
X145019750Y-96717000D01*
X145040000Y-96719066D01*
X145123707Y-96710822D01*
X145204196Y-96686405D01*
X145278376Y-96646755D01*
X145343395Y-96593395D01*
X145396755Y-96528376D01*
X145436405Y-96454196D01*
X145460822Y-96373707D01*
X145469066Y-96290000D01*
X145467000Y-95969750D01*
X145360250Y-95863000D01*
X144913000Y-95863000D01*
X144167000Y-95863000D01*
X143719750Y-95863000D01*
X143613000Y-95969750D01*
X143610934Y-96290000D01*
X140283596Y-96290000D01*
X140308376Y-96276755D01*
X140373395Y-96223395D01*
X140426755Y-96158376D01*
X140466405Y-96084196D01*
X140490822Y-96003707D01*
X140499066Y-95920000D01*
X140497000Y-95599750D01*
X140390250Y-95493000D01*
X139943000Y-95493000D01*
X139587000Y-95493000D01*
X139460000Y-95493000D01*
X139460000Y-94747000D01*
X139587000Y-94747000D01*
X139587000Y-93999750D01*
X139943000Y-93999750D01*
X139943000Y-94747000D01*
X140390250Y-94747000D01*
X140447250Y-94690000D01*
X143610934Y-94690000D01*
X143613000Y-95010250D01*
X143719750Y-95117000D01*
X144167000Y-95117000D01*
X144167000Y-94369750D01*
X144913000Y-94369750D01*
X144913000Y-95117000D01*
X145360250Y-95117000D01*
X145467000Y-95010250D01*
X145469066Y-94690000D01*
X145460822Y-94606293D01*
X145436405Y-94525804D01*
X145396755Y-94451624D01*
X145343395Y-94386605D01*
X145278376Y-94333245D01*
X145204196Y-94293595D01*
X145123707Y-94269178D01*
X145040000Y-94260934D01*
X145019750Y-94263000D01*
X144913000Y-94369750D01*
X144167000Y-94369750D01*
X144060250Y-94263000D01*
X144040000Y-94260934D01*
X143956293Y-94269178D01*
X143875804Y-94293595D01*
X143801624Y-94333245D01*
X143736605Y-94386605D01*
X143683245Y-94451624D01*
X143643595Y-94525804D01*
X143619178Y-94606293D01*
X143610934Y-94690000D01*
X140447250Y-94690000D01*
X140497000Y-94640250D01*
X140499066Y-94320000D01*
X140490822Y-94236293D01*
X140466405Y-94155804D01*
X140426755Y-94081624D01*
X140373395Y-94016605D01*
X140308376Y-93963245D01*
X140234196Y-93923595D01*
X140153707Y-93899178D01*
X140070000Y-93890934D01*
X140049750Y-93893000D01*
X139943000Y-93999750D01*
X139587000Y-93999750D01*
X139480250Y-93893000D01*
X139460000Y-93890934D01*
X139417066Y-93895162D01*
X139417034Y-93858745D01*
X139615000Y-93859066D01*
X139698707Y-93850822D01*
X139779196Y-93826405D01*
X139853376Y-93786755D01*
X139918395Y-93733395D01*
X139971755Y-93668376D01*
X140011405Y-93594196D01*
X140035822Y-93513707D01*
X140044066Y-93430000D01*
X140042000Y-92599750D01*
X139935250Y-92493000D01*
X138233000Y-92493000D01*
X138233000Y-92513000D01*
X137487000Y-92513000D01*
X137487000Y-92493000D01*
X135784750Y-92493000D01*
X135678000Y-92599750D01*
X135675934Y-93430000D01*
X135684178Y-93513707D01*
X135708595Y-93594196D01*
X135748245Y-93668376D01*
X135762599Y-93685866D01*
X132200257Y-93678662D01*
X132175475Y-93681052D01*
X132151637Y-93688231D01*
X132129656Y-93699923D01*
X132110379Y-93715678D01*
X132094546Y-93734891D01*
X132082766Y-93756824D01*
X132075491Y-93780634D01*
X132073000Y-93805662D01*
X132073000Y-96518356D01*
X132046075Y-96513000D01*
X131833925Y-96513000D01*
X131625851Y-96554389D01*
X131429849Y-96635575D01*
X131316999Y-96710980D01*
X131316999Y-93788556D01*
X134046053Y-91059503D01*
X134077606Y-91033608D01*
X134125732Y-90974967D01*
X134180952Y-90907682D01*
X134257744Y-90764013D01*
X134257745Y-90764012D01*
X134305034Y-90608122D01*
X134313409Y-90523085D01*
X134320761Y-90527066D01*
X134344546Y-90534423D01*
X134370186Y-90537000D01*
X135778352Y-90534938D01*
X135748245Y-90571624D01*
X135708595Y-90645804D01*
X135684178Y-90726293D01*
X135675934Y-90810000D01*
X135678000Y-91640250D01*
X135784750Y-91747000D01*
X137487000Y-91747000D01*
X137487000Y-91727000D01*
X138233000Y-91727000D01*
X138233000Y-91747000D01*
X139935250Y-91747000D01*
X140042000Y-91640250D01*
X140044066Y-90810000D01*
X140035822Y-90726293D01*
X140011405Y-90645804D01*
X139971755Y-90571624D01*
X139936651Y-90528850D01*
X141073000Y-90527186D01*
X141073000Y-93500000D01*
X141075440Y-93524776D01*
X141082667Y-93548601D01*
X141094403Y-93570557D01*
X141110197Y-93589803D01*
X141129443Y-93605597D01*
X141151399Y-93617333D01*
X141175224Y-93624560D01*
X141200262Y-93627000D01*
X145913000Y-93617263D01*
X145913000Y-103190000D01*
X145915440Y-103214776D01*
X145922667Y-103238601D01*
X145934403Y-103260557D01*
X145950197Y-103279803D01*
X145969443Y-103295597D01*
X145991399Y-103307333D01*
X146015224Y-103314560D01*
X146040000Y-103317000D01*
X151340000Y-103317000D01*
X151364776Y-103314560D01*
X151388601Y-103307333D01*
X151410557Y-103295597D01*
X151429803Y-103279803D01*
X151445597Y-103260557D01*
X151457333Y-103238601D01*
X151464560Y-103214776D01*
X151467000Y-103190000D01*
X151467000Y-90490000D01*
X151464560Y-90465224D01*
X151457333Y-90441399D01*
X151445597Y-90419443D01*
X151429803Y-90400197D01*
X151410557Y-90384403D01*
X151388601Y-90372667D01*
X151364776Y-90365440D01*
X151340000Y-90363000D01*
X150887000Y-90363000D01*
X150887000Y-84655705D01*
X150890517Y-84619999D01*
X150881313Y-84526553D01*
X150876480Y-84477483D01*
X150834910Y-84340443D01*
X150767403Y-84214147D01*
X150676554Y-84103446D01*
X150648812Y-84080679D01*
X148979326Y-82411194D01*
X148956554Y-82383446D01*
X148845853Y-82292597D01*
X148719557Y-82225090D01*
X148582517Y-82183520D01*
X148475708Y-82173000D01*
X148440000Y-82169483D01*
X148404292Y-82173000D01*
X129965134Y-82173000D01*
X130121134Y-82017000D01*
X130276075Y-82017000D01*
X130484149Y-81975611D01*
X130680151Y-81894425D01*
X130856547Y-81776560D01*
X131006560Y-81626547D01*
X131124425Y-81450151D01*
X131205611Y-81254149D01*
X131247000Y-81046075D01*
X131247000Y-80833925D01*
X131205611Y-80625851D01*
X131124425Y-80429849D01*
X131006560Y-80253453D01*
X130856547Y-80103440D01*
X130680151Y-79985575D01*
X130484149Y-79904389D01*
X130276075Y-79863000D01*
X130063925Y-79863000D01*
X129855851Y-79904389D01*
X129659849Y-79985575D01*
X129483453Y-80103440D01*
X129333440Y-80253453D01*
X129215575Y-80429849D01*
X129134389Y-80625851D01*
X129093000Y-80833925D01*
X129093000Y-80988866D01*
X127710449Y-82371418D01*
X124768100Y-82371418D01*
X124768100Y-76743745D01*
X124877012Y-77291281D01*
X125120270Y-77878558D01*
X125473425Y-78407093D01*
X125922907Y-78856575D01*
X126451442Y-79209730D01*
X127038719Y-79452988D01*
X127662168Y-79577000D01*
X128297832Y-79577000D01*
X128921281Y-79452988D01*
X129508558Y-79209730D01*
X130037093Y-78856575D01*
X130486575Y-78407093D01*
X130839730Y-77878558D01*
X131082988Y-77291281D01*
X131207000Y-76667832D01*
X131207000Y-76032168D01*
X131082988Y-75408719D01*
X130905515Y-74980261D01*
X131980400Y-74980261D01*
X131980400Y-75139739D01*
X132011513Y-75296152D01*
X132072542Y-75443489D01*
X132161143Y-75576090D01*
X132273910Y-75688857D01*
X132406511Y-75777458D01*
X132553848Y-75838487D01*
X132710261Y-75869600D01*
X132869739Y-75869600D01*
X132940331Y-75855558D01*
X132890730Y-75975306D01*
X132844000Y-76210234D01*
X132844000Y-76449766D01*
X132890730Y-76684694D01*
X132940331Y-76804442D01*
X132869739Y-76790400D01*
X132710261Y-76790400D01*
X132553848Y-76821513D01*
X132406511Y-76882542D01*
X132273910Y-76971143D01*
X132161143Y-77083910D01*
X132072542Y-77216511D01*
X132011513Y-77363848D01*
X131980400Y-77520261D01*
X131980400Y-77679739D01*
X132011513Y-77836152D01*
X132072542Y-77983489D01*
X132161143Y-78116090D01*
X132273910Y-78228857D01*
X132406511Y-78317458D01*
X132553848Y-78378487D01*
X132710261Y-78409600D01*
X132869739Y-78409600D01*
X133026152Y-78378487D01*
X133173489Y-78317458D01*
X133306090Y-78228857D01*
X133418857Y-78116090D01*
X133507458Y-77983489D01*
X133568487Y-77836152D01*
X133599600Y-77679739D01*
X133599600Y-77520261D01*
X133585558Y-77449669D01*
X133705306Y-77499270D01*
X133940234Y-77546000D01*
X134179766Y-77546000D01*
X134414694Y-77499270D01*
X134534442Y-77449669D01*
X134520400Y-77520261D01*
X134520400Y-77679739D01*
X134551513Y-77836152D01*
X134612542Y-77983489D01*
X134701143Y-78116090D01*
X134813910Y-78228857D01*
X134946511Y-78317458D01*
X135093848Y-78378487D01*
X135250261Y-78409600D01*
X135409739Y-78409600D01*
X135566152Y-78378487D01*
X135713489Y-78317458D01*
X135846090Y-78228857D01*
X135958857Y-78116090D01*
X136047458Y-77983489D01*
X136108487Y-77836152D01*
X136139600Y-77679739D01*
X136139600Y-77520261D01*
X137060400Y-77520261D01*
X137060400Y-77679739D01*
X137091513Y-77836152D01*
X137152542Y-77983489D01*
X137241143Y-78116090D01*
X137353910Y-78228857D01*
X137486511Y-78317458D01*
X137633848Y-78378487D01*
X137790261Y-78409600D01*
X137949739Y-78409600D01*
X138106152Y-78378487D01*
X138253489Y-78317458D01*
X138386090Y-78228857D01*
X138498857Y-78116090D01*
X138587458Y-77983489D01*
X138648487Y-77836152D01*
X138679600Y-77679739D01*
X138679600Y-77520261D01*
X139600400Y-77520261D01*
X139600400Y-77679739D01*
X139631513Y-77836152D01*
X139692542Y-77983489D01*
X139781143Y-78116090D01*
X139893910Y-78228857D01*
X140026511Y-78317458D01*
X140173848Y-78378487D01*
X140330261Y-78409600D01*
X140489739Y-78409600D01*
X140646152Y-78378487D01*
X140793489Y-78317458D01*
X140926090Y-78228857D01*
X141038857Y-78116090D01*
X141127458Y-77983489D01*
X141188487Y-77836152D01*
X141219600Y-77679739D01*
X141219600Y-77520261D01*
X142140400Y-77520261D01*
X142140400Y-77679739D01*
X142171513Y-77836152D01*
X142232542Y-77983489D01*
X142321143Y-78116090D01*
X142433910Y-78228857D01*
X142566511Y-78317458D01*
X142713848Y-78378487D01*
X142870261Y-78409600D01*
X143029739Y-78409600D01*
X143186152Y-78378487D01*
X143333489Y-78317458D01*
X143466090Y-78228857D01*
X143578857Y-78116090D01*
X143667458Y-77983489D01*
X143728487Y-77836152D01*
X143759600Y-77679739D01*
X143759600Y-77520261D01*
X144680400Y-77520261D01*
X144680400Y-77679739D01*
X144711513Y-77836152D01*
X144772542Y-77983489D01*
X144861143Y-78116090D01*
X144973910Y-78228857D01*
X145106511Y-78317458D01*
X145253848Y-78378487D01*
X145410261Y-78409600D01*
X145569739Y-78409600D01*
X145726152Y-78378487D01*
X145873489Y-78317458D01*
X146006090Y-78228857D01*
X146118857Y-78116090D01*
X146207458Y-77983489D01*
X146268487Y-77836152D01*
X146299600Y-77679739D01*
X146299600Y-77520261D01*
X147220400Y-77520261D01*
X147220400Y-77679739D01*
X147251513Y-77836152D01*
X147312542Y-77983489D01*
X147401143Y-78116090D01*
X147513910Y-78228857D01*
X147646511Y-78317458D01*
X147793848Y-78378487D01*
X147950261Y-78409600D01*
X148109739Y-78409600D01*
X148266152Y-78378487D01*
X148413489Y-78317458D01*
X148546090Y-78228857D01*
X148658857Y-78116090D01*
X148747458Y-77983489D01*
X148808487Y-77836152D01*
X148839600Y-77679739D01*
X148839600Y-77520261D01*
X149760400Y-77520261D01*
X149760400Y-77679739D01*
X149791513Y-77836152D01*
X149852542Y-77983489D01*
X149941143Y-78116090D01*
X150053910Y-78228857D01*
X150186511Y-78317458D01*
X150333848Y-78378487D01*
X150490261Y-78409600D01*
X150649739Y-78409600D01*
X150806152Y-78378487D01*
X150953489Y-78317458D01*
X151086090Y-78228857D01*
X151198857Y-78116090D01*
X151287458Y-77983489D01*
X151348487Y-77836152D01*
X151379600Y-77679739D01*
X151379600Y-77520261D01*
X152300400Y-77520261D01*
X152300400Y-77679739D01*
X152331513Y-77836152D01*
X152392542Y-77983489D01*
X152481143Y-78116090D01*
X152593910Y-78228857D01*
X152726511Y-78317458D01*
X152873848Y-78378487D01*
X153030261Y-78409600D01*
X153189739Y-78409600D01*
X153346152Y-78378487D01*
X153493489Y-78317458D01*
X153626090Y-78228857D01*
X153738857Y-78116090D01*
X153827458Y-77983489D01*
X153888487Y-77836152D01*
X153919600Y-77679739D01*
X153919600Y-77520261D01*
X154840400Y-77520261D01*
X154840400Y-77679739D01*
X154871513Y-77836152D01*
X154932542Y-77983489D01*
X155021143Y-78116090D01*
X155133910Y-78228857D01*
X155266511Y-78317458D01*
X155413848Y-78378487D01*
X155570261Y-78409600D01*
X155729739Y-78409600D01*
X155886152Y-78378487D01*
X156033489Y-78317458D01*
X156166090Y-78228857D01*
X156278857Y-78116090D01*
X156367458Y-77983489D01*
X156428487Y-77836152D01*
X156459600Y-77679739D01*
X156459600Y-77520261D01*
X157380400Y-77520261D01*
X157380400Y-77679739D01*
X157411513Y-77836152D01*
X157472542Y-77983489D01*
X157561143Y-78116090D01*
X157673910Y-78228857D01*
X157806511Y-78317458D01*
X157953848Y-78378487D01*
X158110261Y-78409600D01*
X158269739Y-78409600D01*
X158426152Y-78378487D01*
X158573489Y-78317458D01*
X158706090Y-78228857D01*
X158818857Y-78116090D01*
X158907458Y-77983489D01*
X158968487Y-77836152D01*
X158999600Y-77679739D01*
X158999600Y-77520261D01*
X159920400Y-77520261D01*
X159920400Y-77679739D01*
X159951513Y-77836152D01*
X160012542Y-77983489D01*
X160101143Y-78116090D01*
X160213910Y-78228857D01*
X160346511Y-78317458D01*
X160493848Y-78378487D01*
X160650261Y-78409600D01*
X160809739Y-78409600D01*
X160966152Y-78378487D01*
X161113489Y-78317458D01*
X161246090Y-78228857D01*
X161358857Y-78116090D01*
X161447458Y-77983489D01*
X161508487Y-77836152D01*
X161539600Y-77679739D01*
X161539600Y-77520261D01*
X162460400Y-77520261D01*
X162460400Y-77679739D01*
X162491513Y-77836152D01*
X162552542Y-77983489D01*
X162641143Y-78116090D01*
X162753910Y-78228857D01*
X162886511Y-78317458D01*
X163033848Y-78378487D01*
X163190261Y-78409600D01*
X163349739Y-78409600D01*
X163506152Y-78378487D01*
X163653489Y-78317458D01*
X163786090Y-78228857D01*
X163898857Y-78116090D01*
X163987458Y-77983489D01*
X164048487Y-77836152D01*
X164079600Y-77679739D01*
X164079600Y-77520261D01*
X165000400Y-77520261D01*
X165000400Y-77679739D01*
X165031513Y-77836152D01*
X165092542Y-77983489D01*
X165181143Y-78116090D01*
X165293910Y-78228857D01*
X165426511Y-78317458D01*
X165573848Y-78378487D01*
X165730261Y-78409600D01*
X165889739Y-78409600D01*
X166046152Y-78378487D01*
X166193489Y-78317458D01*
X166326090Y-78228857D01*
X166438857Y-78116090D01*
X166527458Y-77983489D01*
X166588487Y-77836152D01*
X166619600Y-77679739D01*
X166619600Y-77520261D01*
X167540400Y-77520261D01*
X167540400Y-77679739D01*
X167571513Y-77836152D01*
X167632542Y-77983489D01*
X167721143Y-78116090D01*
X167833910Y-78228857D01*
X167966511Y-78317458D01*
X168113848Y-78378487D01*
X168270261Y-78409600D01*
X168429739Y-78409600D01*
X168586152Y-78378487D01*
X168733489Y-78317458D01*
X168866090Y-78228857D01*
X168978857Y-78116090D01*
X169067458Y-77983489D01*
X169128487Y-77836152D01*
X169159600Y-77679739D01*
X169159600Y-77520261D01*
X170080400Y-77520261D01*
X170080400Y-77679739D01*
X170111513Y-77836152D01*
X170172542Y-77983489D01*
X170261143Y-78116090D01*
X170373910Y-78228857D01*
X170506511Y-78317458D01*
X170653848Y-78378487D01*
X170810261Y-78409600D01*
X170969739Y-78409600D01*
X171126152Y-78378487D01*
X171273489Y-78317458D01*
X171406090Y-78228857D01*
X171518857Y-78116090D01*
X171607458Y-77983489D01*
X171668487Y-77836152D01*
X171699600Y-77679739D01*
X171699600Y-77520261D01*
X172620400Y-77520261D01*
X172620400Y-77679739D01*
X172651513Y-77836152D01*
X172712542Y-77983489D01*
X172801143Y-78116090D01*
X172913910Y-78228857D01*
X173046511Y-78317458D01*
X173193848Y-78378487D01*
X173350261Y-78409600D01*
X173509739Y-78409600D01*
X173666152Y-78378487D01*
X173813489Y-78317458D01*
X173946090Y-78228857D01*
X174058857Y-78116090D01*
X174147458Y-77983489D01*
X174208487Y-77836152D01*
X174239600Y-77679739D01*
X174239600Y-77520261D01*
X175160400Y-77520261D01*
X175160400Y-77679739D01*
X175191513Y-77836152D01*
X175252542Y-77983489D01*
X175341143Y-78116090D01*
X175453910Y-78228857D01*
X175586511Y-78317458D01*
X175733848Y-78378487D01*
X175890261Y-78409600D01*
X176049739Y-78409600D01*
X176206152Y-78378487D01*
X176353489Y-78317458D01*
X176486090Y-78228857D01*
X176598857Y-78116090D01*
X176687458Y-77983489D01*
X176748487Y-77836152D01*
X176779600Y-77679739D01*
X176779600Y-77520261D01*
X176748487Y-77363848D01*
X176687458Y-77216511D01*
X176598857Y-77083910D01*
X176486090Y-76971143D01*
X176353489Y-76882542D01*
X176206152Y-76821513D01*
X176049739Y-76790400D01*
X175890261Y-76790400D01*
X175733848Y-76821513D01*
X175586511Y-76882542D01*
X175453910Y-76971143D01*
X175341143Y-77083910D01*
X175252542Y-77216511D01*
X175191513Y-77363848D01*
X175160400Y-77520261D01*
X174239600Y-77520261D01*
X174208487Y-77363848D01*
X174147458Y-77216511D01*
X174058857Y-77083910D01*
X173946090Y-76971143D01*
X173813489Y-76882542D01*
X173666152Y-76821513D01*
X173509739Y-76790400D01*
X173350261Y-76790400D01*
X173193848Y-76821513D01*
X173046511Y-76882542D01*
X172913910Y-76971143D01*
X172801143Y-77083910D01*
X172712542Y-77216511D01*
X172651513Y-77363848D01*
X172620400Y-77520261D01*
X171699600Y-77520261D01*
X171668487Y-77363848D01*
X171607458Y-77216511D01*
X171518857Y-77083910D01*
X171406090Y-76971143D01*
X171273489Y-76882542D01*
X171126152Y-76821513D01*
X170969739Y-76790400D01*
X170810261Y-76790400D01*
X170653848Y-76821513D01*
X170506511Y-76882542D01*
X170373910Y-76971143D01*
X170261143Y-77083910D01*
X170172542Y-77216511D01*
X170111513Y-77363848D01*
X170080400Y-77520261D01*
X169159600Y-77520261D01*
X169128487Y-77363848D01*
X169067458Y-77216511D01*
X168978857Y-77083910D01*
X168866090Y-76971143D01*
X168733489Y-76882542D01*
X168586152Y-76821513D01*
X168429739Y-76790400D01*
X168270261Y-76790400D01*
X168113848Y-76821513D01*
X167966511Y-76882542D01*
X167833910Y-76971143D01*
X167721143Y-77083910D01*
X167632542Y-77216511D01*
X167571513Y-77363848D01*
X167540400Y-77520261D01*
X166619600Y-77520261D01*
X166588487Y-77363848D01*
X166527458Y-77216511D01*
X166438857Y-77083910D01*
X166326090Y-76971143D01*
X166193489Y-76882542D01*
X166046152Y-76821513D01*
X165889739Y-76790400D01*
X165730261Y-76790400D01*
X165573848Y-76821513D01*
X165426511Y-76882542D01*
X165293910Y-76971143D01*
X165181143Y-77083910D01*
X165092542Y-77216511D01*
X165031513Y-77363848D01*
X165000400Y-77520261D01*
X164079600Y-77520261D01*
X164048487Y-77363848D01*
X163987458Y-77216511D01*
X163898857Y-77083910D01*
X163786090Y-76971143D01*
X163653489Y-76882542D01*
X163506152Y-76821513D01*
X163349739Y-76790400D01*
X163190261Y-76790400D01*
X163033848Y-76821513D01*
X162886511Y-76882542D01*
X162753910Y-76971143D01*
X162641143Y-77083910D01*
X162552542Y-77216511D01*
X162491513Y-77363848D01*
X162460400Y-77520261D01*
X161539600Y-77520261D01*
X161508487Y-77363848D01*
X161447458Y-77216511D01*
X161358857Y-77083910D01*
X161246090Y-76971143D01*
X161113489Y-76882542D01*
X160966152Y-76821513D01*
X160809739Y-76790400D01*
X160650261Y-76790400D01*
X160493848Y-76821513D01*
X160346511Y-76882542D01*
X160213910Y-76971143D01*
X160101143Y-77083910D01*
X160012542Y-77216511D01*
X159951513Y-77363848D01*
X159920400Y-77520261D01*
X158999600Y-77520261D01*
X158968487Y-77363848D01*
X158907458Y-77216511D01*
X158818857Y-77083910D01*
X158706090Y-76971143D01*
X158573489Y-76882542D01*
X158426152Y-76821513D01*
X158269739Y-76790400D01*
X158110261Y-76790400D01*
X157953848Y-76821513D01*
X157806511Y-76882542D01*
X157673910Y-76971143D01*
X157561143Y-77083910D01*
X157472542Y-77216511D01*
X157411513Y-77363848D01*
X157380400Y-77520261D01*
X156459600Y-77520261D01*
X156428487Y-77363848D01*
X156367458Y-77216511D01*
X156278857Y-77083910D01*
X156166090Y-76971143D01*
X156033489Y-76882542D01*
X155886152Y-76821513D01*
X155729739Y-76790400D01*
X155570261Y-76790400D01*
X155413848Y-76821513D01*
X155266511Y-76882542D01*
X155133910Y-76971143D01*
X155021143Y-77083910D01*
X154932542Y-77216511D01*
X154871513Y-77363848D01*
X154840400Y-77520261D01*
X153919600Y-77520261D01*
X153888487Y-77363848D01*
X153827458Y-77216511D01*
X153738857Y-77083910D01*
X153626090Y-76971143D01*
X153493489Y-76882542D01*
X153346152Y-76821513D01*
X153189739Y-76790400D01*
X153030261Y-76790400D01*
X152873848Y-76821513D01*
X152726511Y-76882542D01*
X152593910Y-76971143D01*
X152481143Y-77083910D01*
X152392542Y-77216511D01*
X152331513Y-77363848D01*
X152300400Y-77520261D01*
X151379600Y-77520261D01*
X151348487Y-77363848D01*
X151287458Y-77216511D01*
X151198857Y-77083910D01*
X151086090Y-76971143D01*
X150953489Y-76882542D01*
X150806152Y-76821513D01*
X150649739Y-76790400D01*
X150490261Y-76790400D01*
X150333848Y-76821513D01*
X150186511Y-76882542D01*
X150053910Y-76971143D01*
X149941143Y-77083910D01*
X149852542Y-77216511D01*
X149791513Y-77363848D01*
X149760400Y-77520261D01*
X148839600Y-77520261D01*
X148808487Y-77363848D01*
X148747458Y-77216511D01*
X148658857Y-77083910D01*
X148546090Y-76971143D01*
X148413489Y-76882542D01*
X148266152Y-76821513D01*
X148109739Y-76790400D01*
X147950261Y-76790400D01*
X147793848Y-76821513D01*
X147646511Y-76882542D01*
X147513910Y-76971143D01*
X147401143Y-77083910D01*
X147312542Y-77216511D01*
X147251513Y-77363848D01*
X147220400Y-77520261D01*
X146299600Y-77520261D01*
X146268487Y-77363848D01*
X146207458Y-77216511D01*
X146118857Y-77083910D01*
X146006090Y-76971143D01*
X145873489Y-76882542D01*
X145726152Y-76821513D01*
X145569739Y-76790400D01*
X145410261Y-76790400D01*
X145253848Y-76821513D01*
X145106511Y-76882542D01*
X144973910Y-76971143D01*
X144861143Y-77083910D01*
X144772542Y-77216511D01*
X144711513Y-77363848D01*
X144680400Y-77520261D01*
X143759600Y-77520261D01*
X143728487Y-77363848D01*
X143667458Y-77216511D01*
X143578857Y-77083910D01*
X143466090Y-76971143D01*
X143333489Y-76882542D01*
X143186152Y-76821513D01*
X143029739Y-76790400D01*
X142870261Y-76790400D01*
X142713848Y-76821513D01*
X142566511Y-76882542D01*
X142433910Y-76971143D01*
X142321143Y-77083910D01*
X142232542Y-77216511D01*
X142171513Y-77363848D01*
X142140400Y-77520261D01*
X141219600Y-77520261D01*
X141188487Y-77363848D01*
X141127458Y-77216511D01*
X141038857Y-77083910D01*
X140926090Y-76971143D01*
X140793489Y-76882542D01*
X140646152Y-76821513D01*
X140489739Y-76790400D01*
X140330261Y-76790400D01*
X140173848Y-76821513D01*
X140026511Y-76882542D01*
X139893910Y-76971143D01*
X139781143Y-77083910D01*
X139692542Y-77216511D01*
X139631513Y-77363848D01*
X139600400Y-77520261D01*
X138679600Y-77520261D01*
X138648487Y-77363848D01*
X138587458Y-77216511D01*
X138498857Y-77083910D01*
X138386090Y-76971143D01*
X138253489Y-76882542D01*
X138106152Y-76821513D01*
X137949739Y-76790400D01*
X137790261Y-76790400D01*
X137633848Y-76821513D01*
X137486511Y-76882542D01*
X137353910Y-76971143D01*
X137241143Y-77083910D01*
X137152542Y-77216511D01*
X137091513Y-77363848D01*
X137060400Y-77520261D01*
X136139600Y-77520261D01*
X136108487Y-77363848D01*
X136047458Y-77216511D01*
X135958857Y-77083910D01*
X135846090Y-76971143D01*
X135713489Y-76882542D01*
X135566152Y-76821513D01*
X135409739Y-76790400D01*
X135250261Y-76790400D01*
X135179669Y-76804442D01*
X135229270Y-76684694D01*
X135276000Y-76449766D01*
X135276000Y-76210234D01*
X135229270Y-75975306D01*
X135179669Y-75855558D01*
X135250261Y-75869600D01*
X135409739Y-75869600D01*
X135566152Y-75838487D01*
X135713489Y-75777458D01*
X135846090Y-75688857D01*
X135958857Y-75576090D01*
X136047458Y-75443489D01*
X136108487Y-75296152D01*
X136139600Y-75139739D01*
X136139600Y-74980261D01*
X137060400Y-74980261D01*
X137060400Y-75139739D01*
X137091513Y-75296152D01*
X137152542Y-75443489D01*
X137241143Y-75576090D01*
X137353910Y-75688857D01*
X137486511Y-75777458D01*
X137633848Y-75838487D01*
X137790261Y-75869600D01*
X137949739Y-75869600D01*
X138106152Y-75838487D01*
X138253489Y-75777458D01*
X138386090Y-75688857D01*
X138498857Y-75576090D01*
X138587458Y-75443489D01*
X138648487Y-75296152D01*
X138679600Y-75139739D01*
X138679600Y-74980261D01*
X139600400Y-74980261D01*
X139600400Y-75139739D01*
X139631513Y-75296152D01*
X139692542Y-75443489D01*
X139781143Y-75576090D01*
X139893910Y-75688857D01*
X140026511Y-75777458D01*
X140173848Y-75838487D01*
X140330261Y-75869600D01*
X140489739Y-75869600D01*
X140646152Y-75838487D01*
X140793489Y-75777458D01*
X140926090Y-75688857D01*
X141038857Y-75576090D01*
X141127458Y-75443489D01*
X141188487Y-75296152D01*
X141219600Y-75139739D01*
X141219600Y-74980261D01*
X142140400Y-74980261D01*
X142140400Y-75139739D01*
X142171513Y-75296152D01*
X142232542Y-75443489D01*
X142321143Y-75576090D01*
X142433910Y-75688857D01*
X142566511Y-75777458D01*
X142713848Y-75838487D01*
X142870261Y-75869600D01*
X143029739Y-75869600D01*
X143186152Y-75838487D01*
X143333489Y-75777458D01*
X143466090Y-75688857D01*
X143578857Y-75576090D01*
X143667458Y-75443489D01*
X143728487Y-75296152D01*
X143759600Y-75139739D01*
X143759600Y-74980261D01*
X144680400Y-74980261D01*
X144680400Y-75139739D01*
X144711513Y-75296152D01*
X144772542Y-75443489D01*
X144861143Y-75576090D01*
X144973910Y-75688857D01*
X145106511Y-75777458D01*
X145253848Y-75838487D01*
X145410261Y-75869600D01*
X145569739Y-75869600D01*
X145726152Y-75838487D01*
X145873489Y-75777458D01*
X146006090Y-75688857D01*
X146118857Y-75576090D01*
X146207458Y-75443489D01*
X146268487Y-75296152D01*
X146299600Y-75139739D01*
X146299600Y-74980261D01*
X147220400Y-74980261D01*
X147220400Y-75139739D01*
X147251513Y-75296152D01*
X147312542Y-75443489D01*
X147401143Y-75576090D01*
X147513910Y-75688857D01*
X147646511Y-75777458D01*
X147793848Y-75838487D01*
X147950261Y-75869600D01*
X148109739Y-75869600D01*
X148266152Y-75838487D01*
X148413489Y-75777458D01*
X148546090Y-75688857D01*
X148658857Y-75576090D01*
X148747458Y-75443489D01*
X148808487Y-75296152D01*
X148839600Y-75139739D01*
X148839600Y-74980261D01*
X149760400Y-74980261D01*
X149760400Y-75139739D01*
X149791513Y-75296152D01*
X149852542Y-75443489D01*
X149941143Y-75576090D01*
X150053910Y-75688857D01*
X150186511Y-75777458D01*
X150333848Y-75838487D01*
X150490261Y-75869600D01*
X150649739Y-75869600D01*
X150806152Y-75838487D01*
X150953489Y-75777458D01*
X151086090Y-75688857D01*
X151198857Y-75576090D01*
X151287458Y-75443489D01*
X151348487Y-75296152D01*
X151379600Y-75139739D01*
X151379600Y-74980261D01*
X152300400Y-74980261D01*
X152300400Y-75139739D01*
X152331513Y-75296152D01*
X152392542Y-75443489D01*
X152481143Y-75576090D01*
X152593910Y-75688857D01*
X152726511Y-75777458D01*
X152873848Y-75838487D01*
X153030261Y-75869600D01*
X153189739Y-75869600D01*
X153346152Y-75838487D01*
X153493489Y-75777458D01*
X153626090Y-75688857D01*
X153738857Y-75576090D01*
X153827458Y-75443489D01*
X153888487Y-75296152D01*
X153919600Y-75139739D01*
X153919600Y-74980261D01*
X154840400Y-74980261D01*
X154840400Y-75139739D01*
X154871513Y-75296152D01*
X154932542Y-75443489D01*
X155021143Y-75576090D01*
X155133910Y-75688857D01*
X155266511Y-75777458D01*
X155413848Y-75838487D01*
X155570261Y-75869600D01*
X155729739Y-75869600D01*
X155886152Y-75838487D01*
X156033489Y-75777458D01*
X156166090Y-75688857D01*
X156278857Y-75576090D01*
X156367458Y-75443489D01*
X156428487Y-75296152D01*
X156459600Y-75139739D01*
X156459600Y-74980261D01*
X157380400Y-74980261D01*
X157380400Y-75139739D01*
X157411513Y-75296152D01*
X157472542Y-75443489D01*
X157561143Y-75576090D01*
X157673910Y-75688857D01*
X157806511Y-75777458D01*
X157953848Y-75838487D01*
X158110261Y-75869600D01*
X158269739Y-75869600D01*
X158426152Y-75838487D01*
X158573489Y-75777458D01*
X158706090Y-75688857D01*
X158818857Y-75576090D01*
X158907458Y-75443489D01*
X158968487Y-75296152D01*
X158999600Y-75139739D01*
X158999600Y-74980261D01*
X159920400Y-74980261D01*
X159920400Y-75139739D01*
X159951513Y-75296152D01*
X160012542Y-75443489D01*
X160101143Y-75576090D01*
X160213910Y-75688857D01*
X160346511Y-75777458D01*
X160493848Y-75838487D01*
X160650261Y-75869600D01*
X160809739Y-75869600D01*
X160966152Y-75838487D01*
X161113489Y-75777458D01*
X161246090Y-75688857D01*
X161358857Y-75576090D01*
X161447458Y-75443489D01*
X161508487Y-75296152D01*
X161539600Y-75139739D01*
X161539600Y-74980261D01*
X162460400Y-74980261D01*
X162460400Y-75139739D01*
X162491513Y-75296152D01*
X162552542Y-75443489D01*
X162641143Y-75576090D01*
X162753910Y-75688857D01*
X162886511Y-75777458D01*
X163033848Y-75838487D01*
X163190261Y-75869600D01*
X163349739Y-75869600D01*
X163506152Y-75838487D01*
X163653489Y-75777458D01*
X163786090Y-75688857D01*
X163898857Y-75576090D01*
X163987458Y-75443489D01*
X164048487Y-75296152D01*
X164079600Y-75139739D01*
X164079600Y-74980261D01*
X165000400Y-74980261D01*
X165000400Y-75139739D01*
X165031513Y-75296152D01*
X165092542Y-75443489D01*
X165181143Y-75576090D01*
X165293910Y-75688857D01*
X165426511Y-75777458D01*
X165573848Y-75838487D01*
X165730261Y-75869600D01*
X165889739Y-75869600D01*
X166046152Y-75838487D01*
X166193489Y-75777458D01*
X166326090Y-75688857D01*
X166438857Y-75576090D01*
X166527458Y-75443489D01*
X166588487Y-75296152D01*
X166619600Y-75139739D01*
X166619600Y-74980261D01*
X167540400Y-74980261D01*
X167540400Y-75139739D01*
X167571513Y-75296152D01*
X167632542Y-75443489D01*
X167721143Y-75576090D01*
X167833910Y-75688857D01*
X167966511Y-75777458D01*
X168113848Y-75838487D01*
X168270261Y-75869600D01*
X168429739Y-75869600D01*
X168586152Y-75838487D01*
X168733489Y-75777458D01*
X168866090Y-75688857D01*
X168978857Y-75576090D01*
X169067458Y-75443489D01*
X169128487Y-75296152D01*
X169159600Y-75139739D01*
X169159600Y-74980261D01*
X170080400Y-74980261D01*
X170080400Y-75139739D01*
X170111513Y-75296152D01*
X170172542Y-75443489D01*
X170261143Y-75576090D01*
X170373910Y-75688857D01*
X170506511Y-75777458D01*
X170653848Y-75838487D01*
X170810261Y-75869600D01*
X170969739Y-75869600D01*
X171126152Y-75838487D01*
X171273489Y-75777458D01*
X171406090Y-75688857D01*
X171518857Y-75576090D01*
X171607458Y-75443489D01*
X171668487Y-75296152D01*
X171699600Y-75139739D01*
X171699600Y-74980261D01*
X172620400Y-74980261D01*
X172620400Y-75139739D01*
X172651513Y-75296152D01*
X172712542Y-75443489D01*
X172801143Y-75576090D01*
X172913910Y-75688857D01*
X173046511Y-75777458D01*
X173193848Y-75838487D01*
X173350261Y-75869600D01*
X173509739Y-75869600D01*
X173666152Y-75838487D01*
X173813489Y-75777458D01*
X173946090Y-75688857D01*
X174058857Y-75576090D01*
X174147458Y-75443489D01*
X174208487Y-75296152D01*
X174239600Y-75139739D01*
X174239600Y-74980261D01*
X175160400Y-74980261D01*
X175160400Y-75139739D01*
X175191513Y-75296152D01*
X175252542Y-75443489D01*
X175341143Y-75576090D01*
X175453910Y-75688857D01*
X175586511Y-75777458D01*
X175733848Y-75838487D01*
X175890261Y-75869600D01*
X176049739Y-75869600D01*
X176206152Y-75838487D01*
X176353489Y-75777458D01*
X176486090Y-75688857D01*
X176598857Y-75576090D01*
X176687458Y-75443489D01*
X176748487Y-75296152D01*
X176779600Y-75139739D01*
X176779600Y-74980261D01*
X177700400Y-74980261D01*
X177700400Y-75139739D01*
X177731513Y-75296152D01*
X177792542Y-75443489D01*
X177881143Y-75576090D01*
X177993910Y-75688857D01*
X178126511Y-75777458D01*
X178273848Y-75838487D01*
X178430261Y-75869600D01*
X178589739Y-75869600D01*
X178660331Y-75855558D01*
X178610730Y-75975306D01*
X178564000Y-76210234D01*
X178564000Y-76449766D01*
X178610730Y-76684694D01*
X178660331Y-76804442D01*
X178589739Y-76790400D01*
X178430261Y-76790400D01*
X178273848Y-76821513D01*
X178126511Y-76882542D01*
X177993910Y-76971143D01*
X177881143Y-77083910D01*
X177792542Y-77216511D01*
X177731513Y-77363848D01*
X177700400Y-77520261D01*
X177700400Y-77679739D01*
X177731513Y-77836152D01*
X177792542Y-77983489D01*
X177881143Y-78116090D01*
X177993910Y-78228857D01*
X178126511Y-78317458D01*
X178273848Y-78378487D01*
X178430261Y-78409600D01*
X178589739Y-78409600D01*
X178746152Y-78378487D01*
X178893489Y-78317458D01*
X179026090Y-78228857D01*
X179138857Y-78116090D01*
X179227458Y-77983489D01*
X179288487Y-77836152D01*
X179319600Y-77679739D01*
X179319600Y-77520261D01*
X179305558Y-77449669D01*
X179425306Y-77499270D01*
X179660234Y-77546000D01*
X179899766Y-77546000D01*
X180134694Y-77499270D01*
X180254442Y-77449669D01*
X180240400Y-77520261D01*
X180240400Y-77679739D01*
X180271513Y-77836152D01*
X180332542Y-77983489D01*
X180421143Y-78116090D01*
X180533910Y-78228857D01*
X180666511Y-78317458D01*
X180813848Y-78378487D01*
X180970261Y-78409600D01*
X181129739Y-78409600D01*
X181286152Y-78378487D01*
X181433489Y-78317458D01*
X181566090Y-78228857D01*
X181678857Y-78116090D01*
X181767458Y-77983489D01*
X181828487Y-77836152D01*
X181859600Y-77679739D01*
X181859600Y-77520261D01*
X181828487Y-77363848D01*
X181767458Y-77216511D01*
X181678857Y-77083910D01*
X181566090Y-76971143D01*
X181433489Y-76882542D01*
X181286152Y-76821513D01*
X181129739Y-76790400D01*
X180970261Y-76790400D01*
X180899669Y-76804442D01*
X180949270Y-76684694D01*
X180996000Y-76449766D01*
X180996000Y-76210234D01*
X180949270Y-75975306D01*
X180899669Y-75855558D01*
X180970261Y-75869600D01*
X181129739Y-75869600D01*
X181286152Y-75838487D01*
X181433489Y-75777458D01*
X181566090Y-75688857D01*
X181678857Y-75576090D01*
X181767458Y-75443489D01*
X181828487Y-75296152D01*
X181859600Y-75139739D01*
X181859600Y-74980261D01*
X181828487Y-74823848D01*
X181767458Y-74676511D01*
X181678857Y-74543910D01*
X181566090Y-74431143D01*
X181433489Y-74342542D01*
X181286152Y-74281513D01*
X181129739Y-74250400D01*
X180970261Y-74250400D01*
X180813848Y-74281513D01*
X180666511Y-74342542D01*
X180533910Y-74431143D01*
X180421143Y-74543910D01*
X180332542Y-74676511D01*
X180271513Y-74823848D01*
X180240400Y-74980261D01*
X180240400Y-75139739D01*
X180254442Y-75210331D01*
X180134694Y-75160730D01*
X179899766Y-75114000D01*
X179660234Y-75114000D01*
X179425306Y-75160730D01*
X179305558Y-75210331D01*
X179319600Y-75139739D01*
X179319600Y-74980261D01*
X179288487Y-74823848D01*
X179227458Y-74676511D01*
X179138857Y-74543910D01*
X179026090Y-74431143D01*
X178893489Y-74342542D01*
X178746152Y-74281513D01*
X178589739Y-74250400D01*
X178430261Y-74250400D01*
X178273848Y-74281513D01*
X178126511Y-74342542D01*
X177993910Y-74431143D01*
X177881143Y-74543910D01*
X177792542Y-74676511D01*
X177731513Y-74823848D01*
X177700400Y-74980261D01*
X176779600Y-74980261D01*
X176748487Y-74823848D01*
X176687458Y-74676511D01*
X176598857Y-74543910D01*
X176486090Y-74431143D01*
X176353489Y-74342542D01*
X176206152Y-74281513D01*
X176049739Y-74250400D01*
X175890261Y-74250400D01*
X175733848Y-74281513D01*
X175586511Y-74342542D01*
X175453910Y-74431143D01*
X175341143Y-74543910D01*
X175252542Y-74676511D01*
X175191513Y-74823848D01*
X175160400Y-74980261D01*
X174239600Y-74980261D01*
X174208487Y-74823848D01*
X174147458Y-74676511D01*
X174058857Y-74543910D01*
X173946090Y-74431143D01*
X173813489Y-74342542D01*
X173666152Y-74281513D01*
X173509739Y-74250400D01*
X173350261Y-74250400D01*
X173193848Y-74281513D01*
X173046511Y-74342542D01*
X172913910Y-74431143D01*
X172801143Y-74543910D01*
X172712542Y-74676511D01*
X172651513Y-74823848D01*
X172620400Y-74980261D01*
X171699600Y-74980261D01*
X171668487Y-74823848D01*
X171607458Y-74676511D01*
X171518857Y-74543910D01*
X171406090Y-74431143D01*
X171273489Y-74342542D01*
X171126152Y-74281513D01*
X170969739Y-74250400D01*
X170810261Y-74250400D01*
X170653848Y-74281513D01*
X170506511Y-74342542D01*
X170373910Y-74431143D01*
X170261143Y-74543910D01*
X170172542Y-74676511D01*
X170111513Y-74823848D01*
X170080400Y-74980261D01*
X169159600Y-74980261D01*
X169128487Y-74823848D01*
X169067458Y-74676511D01*
X168978857Y-74543910D01*
X168866090Y-74431143D01*
X168733489Y-74342542D01*
X168586152Y-74281513D01*
X168429739Y-74250400D01*
X168270261Y-74250400D01*
X168113848Y-74281513D01*
X167966511Y-74342542D01*
X167833910Y-74431143D01*
X167721143Y-74543910D01*
X167632542Y-74676511D01*
X167571513Y-74823848D01*
X167540400Y-74980261D01*
X166619600Y-74980261D01*
X166588487Y-74823848D01*
X166527458Y-74676511D01*
X166438857Y-74543910D01*
X166326090Y-74431143D01*
X166193489Y-74342542D01*
X166046152Y-74281513D01*
X165889739Y-74250400D01*
X165730261Y-74250400D01*
X165573848Y-74281513D01*
X165426511Y-74342542D01*
X165293910Y-74431143D01*
X165181143Y-74543910D01*
X165092542Y-74676511D01*
X165031513Y-74823848D01*
X165000400Y-74980261D01*
X164079600Y-74980261D01*
X164048487Y-74823848D01*
X163987458Y-74676511D01*
X163898857Y-74543910D01*
X163786090Y-74431143D01*
X163653489Y-74342542D01*
X163506152Y-74281513D01*
X163349739Y-74250400D01*
X163190261Y-74250400D01*
X163033848Y-74281513D01*
X162886511Y-74342542D01*
X162753910Y-74431143D01*
X162641143Y-74543910D01*
X162552542Y-74676511D01*
X162491513Y-74823848D01*
X162460400Y-74980261D01*
X161539600Y-74980261D01*
X161508487Y-74823848D01*
X161447458Y-74676511D01*
X161358857Y-74543910D01*
X161246090Y-74431143D01*
X161113489Y-74342542D01*
X160966152Y-74281513D01*
X160809739Y-74250400D01*
X160650261Y-74250400D01*
X160493848Y-74281513D01*
X160346511Y-74342542D01*
X160213910Y-74431143D01*
X160101143Y-74543910D01*
X160012542Y-74676511D01*
X159951513Y-74823848D01*
X159920400Y-74980261D01*
X158999600Y-74980261D01*
X158968487Y-74823848D01*
X158907458Y-74676511D01*
X158818857Y-74543910D01*
X158706090Y-74431143D01*
X158573489Y-74342542D01*
X158426152Y-74281513D01*
X158269739Y-74250400D01*
X158110261Y-74250400D01*
X157953848Y-74281513D01*
X157806511Y-74342542D01*
X157673910Y-74431143D01*
X157561143Y-74543910D01*
X157472542Y-74676511D01*
X157411513Y-74823848D01*
X157380400Y-74980261D01*
X156459600Y-74980261D01*
X156428487Y-74823848D01*
X156367458Y-74676511D01*
X156278857Y-74543910D01*
X156166090Y-74431143D01*
X156033489Y-74342542D01*
X155886152Y-74281513D01*
X155729739Y-74250400D01*
X155570261Y-74250400D01*
X155413848Y-74281513D01*
X155266511Y-74342542D01*
X155133910Y-74431143D01*
X155021143Y-74543910D01*
X154932542Y-74676511D01*
X154871513Y-74823848D01*
X154840400Y-74980261D01*
X153919600Y-74980261D01*
X153888487Y-74823848D01*
X153827458Y-74676511D01*
X153738857Y-74543910D01*
X153626090Y-74431143D01*
X153493489Y-74342542D01*
X153346152Y-74281513D01*
X153189739Y-74250400D01*
X153030261Y-74250400D01*
X152873848Y-74281513D01*
X152726511Y-74342542D01*
X152593910Y-74431143D01*
X152481143Y-74543910D01*
X152392542Y-74676511D01*
X152331513Y-74823848D01*
X152300400Y-74980261D01*
X151379600Y-74980261D01*
X151348487Y-74823848D01*
X151287458Y-74676511D01*
X151198857Y-74543910D01*
X151086090Y-74431143D01*
X150953489Y-74342542D01*
X150806152Y-74281513D01*
X150649739Y-74250400D01*
X150490261Y-74250400D01*
X150333848Y-74281513D01*
X150186511Y-74342542D01*
X150053910Y-74431143D01*
X149941143Y-74543910D01*
X149852542Y-74676511D01*
X149791513Y-74823848D01*
X149760400Y-74980261D01*
X148839600Y-74980261D01*
X148808487Y-74823848D01*
X148747458Y-74676511D01*
X148658857Y-74543910D01*
X148546090Y-74431143D01*
X148413489Y-74342542D01*
X148266152Y-74281513D01*
X148109739Y-74250400D01*
X147950261Y-74250400D01*
X147793848Y-74281513D01*
X147646511Y-74342542D01*
X147513910Y-74431143D01*
X147401143Y-74543910D01*
X147312542Y-74676511D01*
X147251513Y-74823848D01*
X147220400Y-74980261D01*
X146299600Y-74980261D01*
X146268487Y-74823848D01*
X146207458Y-74676511D01*
X146118857Y-74543910D01*
X146006090Y-74431143D01*
X145873489Y-74342542D01*
X145726152Y-74281513D01*
X145569739Y-74250400D01*
X145410261Y-74250400D01*
X145253848Y-74281513D01*
X145106511Y-74342542D01*
X144973910Y-74431143D01*
X144861143Y-74543910D01*
X144772542Y-74676511D01*
X144711513Y-74823848D01*
X144680400Y-74980261D01*
X143759600Y-74980261D01*
X143728487Y-74823848D01*
X143667458Y-74676511D01*
X143578857Y-74543910D01*
X143466090Y-74431143D01*
X143333489Y-74342542D01*
X143186152Y-74281513D01*
X143029739Y-74250400D01*
X142870261Y-74250400D01*
X142713848Y-74281513D01*
X142566511Y-74342542D01*
X142433910Y-74431143D01*
X142321143Y-74543910D01*
X142232542Y-74676511D01*
X142171513Y-74823848D01*
X142140400Y-74980261D01*
X141219600Y-74980261D01*
X141188487Y-74823848D01*
X141127458Y-74676511D01*
X141038857Y-74543910D01*
X140926090Y-74431143D01*
X140793489Y-74342542D01*
X140646152Y-74281513D01*
X140489739Y-74250400D01*
X140330261Y-74250400D01*
X140173848Y-74281513D01*
X140026511Y-74342542D01*
X139893910Y-74431143D01*
X139781143Y-74543910D01*
X139692542Y-74676511D01*
X139631513Y-74823848D01*
X139600400Y-74980261D01*
X138679600Y-74980261D01*
X138648487Y-74823848D01*
X138587458Y-74676511D01*
X138498857Y-74543910D01*
X138386090Y-74431143D01*
X138253489Y-74342542D01*
X138106152Y-74281513D01*
X137949739Y-74250400D01*
X137790261Y-74250400D01*
X137633848Y-74281513D01*
X137486511Y-74342542D01*
X137353910Y-74431143D01*
X137241143Y-74543910D01*
X137152542Y-74676511D01*
X137091513Y-74823848D01*
X137060400Y-74980261D01*
X136139600Y-74980261D01*
X136108487Y-74823848D01*
X136047458Y-74676511D01*
X135958857Y-74543910D01*
X135846090Y-74431143D01*
X135713489Y-74342542D01*
X135566152Y-74281513D01*
X135409739Y-74250400D01*
X135250261Y-74250400D01*
X135093848Y-74281513D01*
X134946511Y-74342542D01*
X134813910Y-74431143D01*
X134701143Y-74543910D01*
X134612542Y-74676511D01*
X134551513Y-74823848D01*
X134520400Y-74980261D01*
X134520400Y-75139739D01*
X134534442Y-75210331D01*
X134414694Y-75160730D01*
X134179766Y-75114000D01*
X133940234Y-75114000D01*
X133705306Y-75160730D01*
X133585558Y-75210331D01*
X133599600Y-75139739D01*
X133599600Y-74980261D01*
X133568487Y-74823848D01*
X133507458Y-74676511D01*
X133418857Y-74543910D01*
X133306090Y-74431143D01*
X133173489Y-74342542D01*
X133026152Y-74281513D01*
X132869739Y-74250400D01*
X132710261Y-74250400D01*
X132553848Y-74281513D01*
X132406511Y-74342542D01*
X132273910Y-74431143D01*
X132161143Y-74543910D01*
X132072542Y-74676511D01*
X132011513Y-74823848D01*
X131980400Y-74980261D01*
X130905515Y-74980261D01*
X130839730Y-74821442D01*
X130486575Y-74292907D01*
X130037093Y-73843425D01*
X129508558Y-73490270D01*
X128921281Y-73247012D01*
X128297832Y-73123000D01*
X127662168Y-73123000D01*
X127038719Y-73247012D01*
X126451442Y-73490270D01*
X125922907Y-73843425D01*
X125473425Y-74292907D01*
X125120270Y-74821442D01*
X124877012Y-75408719D01*
X124768100Y-75956255D01*
X124768100Y-75322415D01*
X124934087Y-74380994D01*
X125397869Y-73578405D01*
X126107339Y-72983002D01*
X126991420Y-72661248D01*
X127435213Y-72622406D01*
X127439496Y-72622823D01*
X127457538Y-72621027D01*
X127475668Y-72621054D01*
X127477969Y-72620600D01*
X186412585Y-72620600D01*
X187353463Y-72786491D01*
G36*
X149433001Y-84921134D02*
G01*
X149433000Y-90363000D01*
X145066095Y-90363000D01*
X145064296Y-90111610D01*
X145140000Y-90119066D01*
X145160250Y-90117000D01*
X145267000Y-90010250D01*
X145267000Y-89413000D01*
X145713000Y-89413000D01*
X145713000Y-90010250D01*
X145819750Y-90117000D01*
X145840000Y-90119066D01*
X145923707Y-90110822D01*
X146004196Y-90086405D01*
X146078376Y-90046755D01*
X146143395Y-89993395D01*
X146196755Y-89928376D01*
X146236405Y-89854196D01*
X146260822Y-89773707D01*
X146269066Y-89690000D01*
X146267000Y-89519750D01*
X146160250Y-89413000D01*
X145713000Y-89413000D01*
X145267000Y-89413000D01*
X145140000Y-89413000D01*
X145140000Y-88667000D01*
X145267000Y-88667000D01*
X145267000Y-88069750D01*
X145713000Y-88069750D01*
X145713000Y-88667000D01*
X146160250Y-88667000D01*
X146267000Y-88560250D01*
X146269066Y-88390000D01*
X146260822Y-88306293D01*
X146236405Y-88225804D01*
X146196755Y-88151624D01*
X146143395Y-88086605D01*
X146078376Y-88033245D01*
X146004196Y-87993595D01*
X145923707Y-87969178D01*
X145840000Y-87960934D01*
X145819750Y-87963000D01*
X145713000Y-88069750D01*
X145267000Y-88069750D01*
X145160250Y-87963000D01*
X145140000Y-87960934D01*
X145056293Y-87969178D01*
X145048981Y-87971396D01*
X145042794Y-87106727D01*
X145056293Y-87110822D01*
X145140000Y-87119066D01*
X145160250Y-87117000D01*
X145267000Y-87010250D01*
X145267000Y-86413000D01*
X145713000Y-86413000D01*
X145713000Y-87010250D01*
X145819750Y-87117000D01*
X145840000Y-87119066D01*
X145923707Y-87110822D01*
X146004196Y-87086405D01*
X146078376Y-87046755D01*
X146143395Y-86993395D01*
X146196755Y-86928376D01*
X146236405Y-86854196D01*
X146260822Y-86773707D01*
X146269066Y-86690000D01*
X146267000Y-86519750D01*
X146160250Y-86413000D01*
X145713000Y-86413000D01*
X145267000Y-86413000D01*
X145140000Y-86413000D01*
X145140000Y-85667000D01*
X145267000Y-85667000D01*
X145267000Y-85069750D01*
X145713000Y-85069750D01*
X145713000Y-85667000D01*
X146160250Y-85667000D01*
X146267000Y-85560250D01*
X146269066Y-85390000D01*
X146260822Y-85306293D01*
X146236405Y-85225804D01*
X146196755Y-85151624D01*
X146143395Y-85086605D01*
X146078376Y-85033245D01*
X146004196Y-84993595D01*
X145923707Y-84969178D01*
X145840000Y-84960934D01*
X145819750Y-84963000D01*
X145713000Y-85069750D01*
X145267000Y-85069750D01*
X145160250Y-84963000D01*
X145140000Y-84960934D01*
X145056293Y-84969178D01*
X145027561Y-84977894D01*
X145026997Y-84899091D01*
X145024379Y-84874333D01*
X145016982Y-84850561D01*
X145005089Y-84828689D01*
X144989158Y-84809557D01*
X144969800Y-84793901D01*
X144947760Y-84782323D01*
X144923885Y-84775266D01*
X144900000Y-84773000D01*
X134400000Y-84773000D01*
X134375224Y-84775440D01*
X134351399Y-84782667D01*
X134329443Y-84794403D01*
X134310197Y-84810197D01*
X134294403Y-84829443D01*
X134282667Y-84851399D01*
X134275440Y-84875224D01*
X134273002Y-84899309D01*
X134268333Y-85756893D01*
X134257745Y-85721990D01*
X134180952Y-85578321D01*
X134168582Y-85563248D01*
X134168582Y-85390000D01*
X134162268Y-85325897D01*
X134143570Y-85264257D01*
X134113206Y-85207450D01*
X134072343Y-85157657D01*
X134022550Y-85116794D01*
X133965743Y-85086430D01*
X133904103Y-85067732D01*
X133840000Y-85061418D01*
X133140000Y-85061418D01*
X133075897Y-85067732D01*
X133014257Y-85086430D01*
X132957450Y-85116794D01*
X132907657Y-85157657D01*
X132866794Y-85207450D01*
X132836430Y-85264257D01*
X132817732Y-85325897D01*
X132811418Y-85390000D01*
X132811418Y-85563249D01*
X132799048Y-85578322D01*
X132722255Y-85721991D01*
X132674966Y-85877881D01*
X132663000Y-85999377D01*
X132663001Y-90103447D01*
X129933951Y-92832498D01*
X129902393Y-92858397D01*
X129863567Y-92905707D01*
X129799047Y-92984324D01*
X129775739Y-93027931D01*
X129751468Y-93073339D01*
X129751436Y-93072766D01*
X129745435Y-93049482D01*
X129741061Y-93025829D01*
X129729321Y-92996370D01*
X129626462Y-92714951D01*
X129624379Y-92705049D01*
X129613741Y-92680145D01*
X129610832Y-92672187D01*
X129606469Y-92663122D01*
X129595206Y-92636756D01*
X129590392Y-92629721D01*
X129586695Y-92622039D01*
X129569459Y-92599126D01*
X129563779Y-92590825D01*
X129558333Y-92584336D01*
X129542052Y-92562693D01*
X129534509Y-92555949D01*
X129357180Y-92344660D01*
X129351796Y-92335989D01*
X129333364Y-92316283D01*
X129327969Y-92309855D01*
X129320707Y-92302752D01*
X129301066Y-92281753D01*
X129294212Y-92276835D01*
X129288184Y-92270938D01*
X129264093Y-92255221D01*
X129255850Y-92249306D01*
X129248601Y-92245114D01*
X129225987Y-92230361D01*
X129216508Y-92226556D01*
X128977884Y-92088573D01*
X128969631Y-92082096D01*
X128945802Y-92070022D01*
X128938787Y-92065965D01*
X128929285Y-92061652D01*
X128903387Y-92048529D01*
X128895538Y-92046334D01*
X128888109Y-92042962D01*
X128859820Y-92036346D01*
X128849790Y-92033541D01*
X128841820Y-92032136D01*
X128815798Y-92026050D01*
X128805311Y-92025700D01*
X128524868Y-91976260D01*
X128511005Y-91972055D01*
X128488365Y-91969825D01*
X128484314Y-91969111D01*
X128469994Y-91968016D01*
X128455619Y-91966600D01*
X128451482Y-91966600D01*
X128428823Y-91964867D01*
X128414454Y-91966600D01*
X125469614Y-91966600D01*
X125212720Y-91921306D01*
X125011676Y-91805211D01*
X124862617Y-91627504D01*
X124778312Y-91395878D01*
X124770172Y-91302916D01*
X124770272Y-91302048D01*
X124768384Y-91278985D01*
X124768210Y-91255837D01*
X124768100Y-91255305D01*
X124768100Y-89928894D01*
X126620250Y-89927000D01*
X126727000Y-89820250D01*
X126727000Y-88373000D01*
X127473000Y-88373000D01*
X127473000Y-89820250D01*
X127579750Y-89927000D01*
X129600000Y-89929066D01*
X129683707Y-89920822D01*
X129764196Y-89896405D01*
X129838376Y-89856755D01*
X129903395Y-89803395D01*
X129956755Y-89738376D01*
X129996405Y-89664196D01*
X130020822Y-89583707D01*
X130029066Y-89500000D01*
X130027000Y-88479750D01*
X129920250Y-88373000D01*
X127473000Y-88373000D01*
X126727000Y-88373000D01*
X126707000Y-88373000D01*
X126707000Y-87627000D01*
X126727000Y-87627000D01*
X126727000Y-86179750D01*
X127473000Y-86179750D01*
X127473000Y-87627000D01*
X129920250Y-87627000D01*
X130027000Y-87520250D01*
X130029066Y-86500000D01*
X130020822Y-86416293D01*
X129996405Y-86335804D01*
X129956755Y-86261624D01*
X129903395Y-86196605D01*
X129838376Y-86143245D01*
X129764196Y-86103595D01*
X129683707Y-86079178D01*
X129600000Y-86070934D01*
X127579750Y-86073000D01*
X127473000Y-86179750D01*
X126727000Y-86179750D01*
X126620250Y-86073000D01*
X124768100Y-86071106D01*
X124768100Y-86028582D01*
X129600000Y-86028582D01*
X129664103Y-86022268D01*
X129725743Y-86003570D01*
X129782550Y-85973206D01*
X129832343Y-85932343D01*
X129873206Y-85882550D01*
X129903570Y-85825743D01*
X129922268Y-85764103D01*
X129928582Y-85700000D01*
X129928582Y-83627000D01*
X148138868Y-83627000D01*
X149433001Y-84921134D01*
X149433001Y-84921134D01*
G37*
X149433001Y-84921134D02*
X149433000Y-90363000D01*
X145066095Y-90363000D01*
X145064296Y-90111610D01*
X145140000Y-90119066D01*
X145160250Y-90117000D01*
X145267000Y-90010250D01*
X145267000Y-89413000D01*
X145713000Y-89413000D01*
X145713000Y-90010250D01*
X145819750Y-90117000D01*
X145840000Y-90119066D01*
X145923707Y-90110822D01*
X146004196Y-90086405D01*
X146078376Y-90046755D01*
X146143395Y-89993395D01*
X146196755Y-89928376D01*
X146236405Y-89854196D01*
X146260822Y-89773707D01*
X146269066Y-89690000D01*
X146267000Y-89519750D01*
X146160250Y-89413000D01*
X145713000Y-89413000D01*
X145267000Y-89413000D01*
X145140000Y-89413000D01*
X145140000Y-88667000D01*
X145267000Y-88667000D01*
X145267000Y-88069750D01*
X145713000Y-88069750D01*
X145713000Y-88667000D01*
X146160250Y-88667000D01*
X146267000Y-88560250D01*
X146269066Y-88390000D01*
X146260822Y-88306293D01*
X146236405Y-88225804D01*
X146196755Y-88151624D01*
X146143395Y-88086605D01*
X146078376Y-88033245D01*
X146004196Y-87993595D01*
X145923707Y-87969178D01*
X145840000Y-87960934D01*
X145819750Y-87963000D01*
X145713000Y-88069750D01*
X145267000Y-88069750D01*
X145160250Y-87963000D01*
X145140000Y-87960934D01*
X145056293Y-87969178D01*
X145048981Y-87971396D01*
X145042794Y-87106727D01*
X145056293Y-87110822D01*
X145140000Y-87119066D01*
X145160250Y-87117000D01*
X145267000Y-87010250D01*
X145267000Y-86413000D01*
X145713000Y-86413000D01*
X145713000Y-87010250D01*
X145819750Y-87117000D01*
X145840000Y-87119066D01*
X145923707Y-87110822D01*
X146004196Y-87086405D01*
X146078376Y-87046755D01*
X146143395Y-86993395D01*
X146196755Y-86928376D01*
X146236405Y-86854196D01*
X146260822Y-86773707D01*
X146269066Y-86690000D01*
X146267000Y-86519750D01*
X146160250Y-86413000D01*
X145713000Y-86413000D01*
X145267000Y-86413000D01*
X145140000Y-86413000D01*
X145140000Y-85667000D01*
X145267000Y-85667000D01*
X145267000Y-85069750D01*
X145713000Y-85069750D01*
X145713000Y-85667000D01*
X146160250Y-85667000D01*
X146267000Y-85560250D01*
X146269066Y-85390000D01*
X146260822Y-85306293D01*
X146236405Y-85225804D01*
X146196755Y-85151624D01*
X146143395Y-85086605D01*
X146078376Y-85033245D01*
X146004196Y-84993595D01*
X145923707Y-84969178D01*
X145840000Y-84960934D01*
X145819750Y-84963000D01*
X145713000Y-85069750D01*
X145267000Y-85069750D01*
X145160250Y-84963000D01*
X145140000Y-84960934D01*
X145056293Y-84969178D01*
X145027561Y-84977894D01*
X145026997Y-84899091D01*
X145024379Y-84874333D01*
X145016982Y-84850561D01*
X145005089Y-84828689D01*
X144989158Y-84809557D01*
X144969800Y-84793901D01*
X144947760Y-84782323D01*
X144923885Y-84775266D01*
X144900000Y-84773000D01*
X134400000Y-84773000D01*
X134375224Y-84775440D01*
X134351399Y-84782667D01*
X134329443Y-84794403D01*
X134310197Y-84810197D01*
X134294403Y-84829443D01*
X134282667Y-84851399D01*
X134275440Y-84875224D01*
X134273002Y-84899309D01*
X134268333Y-85756893D01*
X134257745Y-85721990D01*
X134180952Y-85578321D01*
X134168582Y-85563248D01*
X134168582Y-85390000D01*
X134162268Y-85325897D01*
X134143570Y-85264257D01*
X134113206Y-85207450D01*
X134072343Y-85157657D01*
X134022550Y-85116794D01*
X133965743Y-85086430D01*
X133904103Y-85067732D01*
X133840000Y-85061418D01*
X133140000Y-85061418D01*
X133075897Y-85067732D01*
X133014257Y-85086430D01*
X132957450Y-85116794D01*
X132907657Y-85157657D01*
X132866794Y-85207450D01*
X132836430Y-85264257D01*
X132817732Y-85325897D01*
X132811418Y-85390000D01*
X132811418Y-85563249D01*
X132799048Y-85578322D01*
X132722255Y-85721991D01*
X132674966Y-85877881D01*
X132663000Y-85999377D01*
X132663001Y-90103447D01*
X129933951Y-92832498D01*
X129902393Y-92858397D01*
X129863567Y-92905707D01*
X129799047Y-92984324D01*
X129775739Y-93027931D01*
X129751468Y-93073339D01*
X129751436Y-93072766D01*
X129745435Y-93049482D01*
X129741061Y-93025829D01*
X129729321Y-92996370D01*
X129626462Y-92714951D01*
X129624379Y-92705049D01*
X129613741Y-92680145D01*
X129610832Y-92672187D01*
X129606469Y-92663122D01*
X129595206Y-92636756D01*
X129590392Y-92629721D01*
X129586695Y-92622039D01*
X129569459Y-92599126D01*
X129563779Y-92590825D01*
X129558333Y-92584336D01*
X129542052Y-92562693D01*
X129534509Y-92555949D01*
X129357180Y-92344660D01*
X129351796Y-92335989D01*
X129333364Y-92316283D01*
X129327969Y-92309855D01*
X129320707Y-92302752D01*
X129301066Y-92281753D01*
X129294212Y-92276835D01*
X129288184Y-92270938D01*
X129264093Y-92255221D01*
X129255850Y-92249306D01*
X129248601Y-92245114D01*
X129225987Y-92230361D01*
X129216508Y-92226556D01*
X128977884Y-92088573D01*
X128969631Y-92082096D01*
X128945802Y-92070022D01*
X128938787Y-92065965D01*
X128929285Y-92061652D01*
X128903387Y-92048529D01*
X128895538Y-92046334D01*
X128888109Y-92042962D01*
X128859820Y-92036346D01*
X128849790Y-92033541D01*
X128841820Y-92032136D01*
X128815798Y-92026050D01*
X128805311Y-92025700D01*
X128524868Y-91976260D01*
X128511005Y-91972055D01*
X128488365Y-91969825D01*
X128484314Y-91969111D01*
X128469994Y-91968016D01*
X128455619Y-91966600D01*
X128451482Y-91966600D01*
X128428823Y-91964867D01*
X128414454Y-91966600D01*
X125469614Y-91966600D01*
X125212720Y-91921306D01*
X125011676Y-91805211D01*
X124862617Y-91627504D01*
X124778312Y-91395878D01*
X124770172Y-91302916D01*
X124770272Y-91302048D01*
X124768384Y-91278985D01*
X124768210Y-91255837D01*
X124768100Y-91255305D01*
X124768100Y-89928894D01*
X126620250Y-89927000D01*
X126727000Y-89820250D01*
X126727000Y-88373000D01*
X127473000Y-88373000D01*
X127473000Y-89820250D01*
X127579750Y-89927000D01*
X129600000Y-89929066D01*
X129683707Y-89920822D01*
X129764196Y-89896405D01*
X129838376Y-89856755D01*
X129903395Y-89803395D01*
X129956755Y-89738376D01*
X129996405Y-89664196D01*
X130020822Y-89583707D01*
X130029066Y-89500000D01*
X130027000Y-88479750D01*
X129920250Y-88373000D01*
X127473000Y-88373000D01*
X126727000Y-88373000D01*
X126707000Y-88373000D01*
X126707000Y-87627000D01*
X126727000Y-87627000D01*
X126727000Y-86179750D01*
X127473000Y-86179750D01*
X127473000Y-87627000D01*
X129920250Y-87627000D01*
X130027000Y-87520250D01*
X130029066Y-86500000D01*
X130020822Y-86416293D01*
X129996405Y-86335804D01*
X129956755Y-86261624D01*
X129903395Y-86196605D01*
X129838376Y-86143245D01*
X129764196Y-86103595D01*
X129683707Y-86079178D01*
X129600000Y-86070934D01*
X127579750Y-86073000D01*
X127473000Y-86179750D01*
X126727000Y-86179750D01*
X126620250Y-86073000D01*
X124768100Y-86071106D01*
X124768100Y-86028582D01*
X129600000Y-86028582D01*
X129664103Y-86022268D01*
X129725743Y-86003570D01*
X129782550Y-85973206D01*
X129832343Y-85932343D01*
X129873206Y-85882550D01*
X129903570Y-85825743D01*
X129922268Y-85764103D01*
X129928582Y-85700000D01*
X129928582Y-83627000D01*
X148138868Y-83627000D01*
X149433001Y-84921134D01*
M02*
